G04 #@! TF.GenerationSoftware,KiCad,Pcbnew,(5.1.4)-1*
G04 #@! TF.CreationDate,2021-02-14T21:55:27+01:00*
G04 #@! TF.ProjectId,Atari XL s-video,41746172-6920-4584-9c20-732d76696465,rev?*
G04 #@! TF.SameCoordinates,Original*
G04 #@! TF.FileFunction,Legend,Top*
G04 #@! TF.FilePolarity,Positive*
%FSLAX46Y46*%
G04 Gerber Fmt 4.6, Leading zero omitted, Abs format (unit mm)*
G04 Created by KiCad (PCBNEW (5.1.4)-1) date 2021-02-14 21:55:27*
%MOMM*%
%LPD*%
G04 APERTURE LIST*
%ADD10C,0.200000*%
%ADD11C,0.125000*%
%ADD12C,0.120000*%
%ADD13C,0.150000*%
G04 APERTURE END LIST*
D10*
X172015352Y-66440104D02*
X172167733Y-66440104D01*
X172243923Y-66478200D01*
X172320114Y-66554390D01*
X172358209Y-66706771D01*
X172358209Y-66973438D01*
X172320114Y-67125819D01*
X172243923Y-67202009D01*
X172167733Y-67240104D01*
X172015352Y-67240104D01*
X171939161Y-67202009D01*
X171862971Y-67125819D01*
X171824876Y-66973438D01*
X171824876Y-66706771D01*
X171862971Y-66554390D01*
X171939161Y-66478200D01*
X172015352Y-66440104D01*
X173043923Y-66706771D02*
X173043923Y-67240104D01*
X172701066Y-66706771D02*
X172701066Y-67125819D01*
X172739161Y-67202009D01*
X172815352Y-67240104D01*
X172929638Y-67240104D01*
X173005828Y-67202009D01*
X173043923Y-67163914D01*
X173310590Y-66706771D02*
X173615352Y-66706771D01*
X173424876Y-66440104D02*
X173424876Y-67125819D01*
X173462971Y-67202009D01*
X173539161Y-67240104D01*
X173615352Y-67240104D01*
X173882019Y-66706771D02*
X173882019Y-67506771D01*
X173882019Y-66744866D02*
X173958209Y-66706771D01*
X174110590Y-66706771D01*
X174186780Y-66744866D01*
X174224876Y-66782961D01*
X174262971Y-66859152D01*
X174262971Y-67087723D01*
X174224876Y-67163914D01*
X174186780Y-67202009D01*
X174110590Y-67240104D01*
X173958209Y-67240104D01*
X173882019Y-67202009D01*
X174948685Y-66706771D02*
X174948685Y-67240104D01*
X174605828Y-66706771D02*
X174605828Y-67125819D01*
X174643923Y-67202009D01*
X174720114Y-67240104D01*
X174834400Y-67240104D01*
X174910590Y-67202009D01*
X174948685Y-67163914D01*
X175215352Y-66706771D02*
X175520114Y-66706771D01*
X175329638Y-66440104D02*
X175329638Y-67125819D01*
X175367733Y-67202009D01*
X175443923Y-67240104D01*
X175520114Y-67240104D01*
X193884923Y-94773742D02*
X194494447Y-94773742D01*
X194189685Y-95078504D02*
X194189685Y-94468980D01*
X195256352Y-94278504D02*
X194875400Y-94278504D01*
X194837304Y-94659457D01*
X194875400Y-94621361D01*
X194951590Y-94583266D01*
X195142066Y-94583266D01*
X195218257Y-94621361D01*
X195256352Y-94659457D01*
X195294447Y-94735647D01*
X195294447Y-94926123D01*
X195256352Y-95002314D01*
X195218257Y-95040409D01*
X195142066Y-95078504D01*
X194951590Y-95078504D01*
X194875400Y-95040409D01*
X194837304Y-95002314D01*
X196132542Y-94278504D02*
X196399209Y-95078504D01*
X196665876Y-94278504D01*
X197046828Y-95078504D02*
X196970638Y-95040409D01*
X196932542Y-95002314D01*
X196894447Y-94926123D01*
X196894447Y-94697552D01*
X196932542Y-94621361D01*
X196970638Y-94583266D01*
X197046828Y-94545171D01*
X197161114Y-94545171D01*
X197237304Y-94583266D01*
X197275400Y-94621361D01*
X197313495Y-94697552D01*
X197313495Y-94926123D01*
X197275400Y-95002314D01*
X197237304Y-95040409D01*
X197161114Y-95078504D01*
X197046828Y-95078504D01*
X197770638Y-95078504D02*
X197694447Y-95040409D01*
X197656352Y-94964219D01*
X197656352Y-94278504D01*
X197961114Y-94545171D02*
X198265876Y-94545171D01*
X198075400Y-94278504D02*
X198075400Y-94964219D01*
X198113495Y-95040409D01*
X198189685Y-95078504D01*
X198265876Y-95078504D01*
X199142066Y-95078504D02*
X199142066Y-94278504D01*
X199523019Y-94545171D02*
X199523019Y-95078504D01*
X199523019Y-94621361D02*
X199561114Y-94583266D01*
X199637304Y-94545171D01*
X199751590Y-94545171D01*
X199827780Y-94583266D01*
X199865876Y-94659457D01*
X199865876Y-95078504D01*
D11*
X175794171Y-59170000D02*
X175817980Y-59193809D01*
X175841790Y-59265238D01*
X175841790Y-59312857D01*
X175817980Y-59384285D01*
X175770361Y-59431904D01*
X175722742Y-59455714D01*
X175627504Y-59479523D01*
X175556076Y-59479523D01*
X175460838Y-59455714D01*
X175413219Y-59431904D01*
X175365600Y-59384285D01*
X175341790Y-59312857D01*
X175341790Y-59265238D01*
X175365600Y-59193809D01*
X175389409Y-59170000D01*
X175841790Y-58884285D02*
X175817980Y-58931904D01*
X175794171Y-58955714D01*
X175746552Y-58979523D01*
X175603695Y-58979523D01*
X175556076Y-58955714D01*
X175532266Y-58931904D01*
X175508457Y-58884285D01*
X175508457Y-58812857D01*
X175532266Y-58765238D01*
X175556076Y-58741428D01*
X175603695Y-58717619D01*
X175746552Y-58717619D01*
X175794171Y-58741428D01*
X175817980Y-58765238D01*
X175841790Y-58812857D01*
X175841790Y-58884285D01*
X175841790Y-58503333D02*
X175508457Y-58503333D01*
X175556076Y-58503333D02*
X175532266Y-58479523D01*
X175508457Y-58431904D01*
X175508457Y-58360476D01*
X175532266Y-58312857D01*
X175579885Y-58289047D01*
X175841790Y-58289047D01*
X175579885Y-58289047D02*
X175532266Y-58265238D01*
X175508457Y-58217619D01*
X175508457Y-58146190D01*
X175532266Y-58098571D01*
X175579885Y-58074761D01*
X175841790Y-58074761D01*
X175508457Y-57836666D02*
X176008457Y-57836666D01*
X175532266Y-57836666D02*
X175508457Y-57789047D01*
X175508457Y-57693809D01*
X175532266Y-57646190D01*
X175556076Y-57622380D01*
X175603695Y-57598571D01*
X175746552Y-57598571D01*
X175794171Y-57622380D01*
X175817980Y-57646190D01*
X175841790Y-57693809D01*
X175841790Y-57789047D01*
X175817980Y-57836666D01*
X175794171Y-57384285D02*
X175817980Y-57360476D01*
X175841790Y-57384285D01*
X175817980Y-57408095D01*
X175794171Y-57384285D01*
X175841790Y-57384285D01*
X175794171Y-62556104D02*
X175817980Y-62579914D01*
X175841790Y-62651342D01*
X175841790Y-62698961D01*
X175817980Y-62770390D01*
X175770361Y-62818009D01*
X175722742Y-62841819D01*
X175627504Y-62865628D01*
X175556076Y-62865628D01*
X175460838Y-62841819D01*
X175413219Y-62818009D01*
X175365600Y-62770390D01*
X175341790Y-62698961D01*
X175341790Y-62651342D01*
X175365600Y-62579914D01*
X175389409Y-62556104D01*
X175841790Y-62341819D02*
X175341790Y-62341819D01*
X175841790Y-62127533D02*
X175579885Y-62127533D01*
X175532266Y-62151342D01*
X175508457Y-62198961D01*
X175508457Y-62270390D01*
X175532266Y-62318009D01*
X175556076Y-62341819D01*
X175841790Y-61889438D02*
X175508457Y-61889438D01*
X175603695Y-61889438D02*
X175556076Y-61865628D01*
X175532266Y-61841819D01*
X175508457Y-61794200D01*
X175508457Y-61746580D01*
X175841790Y-61508485D02*
X175817980Y-61556104D01*
X175794171Y-61579914D01*
X175746552Y-61603723D01*
X175603695Y-61603723D01*
X175556076Y-61579914D01*
X175532266Y-61556104D01*
X175508457Y-61508485D01*
X175508457Y-61437057D01*
X175532266Y-61389438D01*
X175556076Y-61365628D01*
X175603695Y-61341819D01*
X175746552Y-61341819D01*
X175794171Y-61365628D01*
X175817980Y-61389438D01*
X175841790Y-61437057D01*
X175841790Y-61508485D01*
X175841790Y-61127533D02*
X175508457Y-61127533D01*
X175556076Y-61127533D02*
X175532266Y-61103723D01*
X175508457Y-61056104D01*
X175508457Y-60984676D01*
X175532266Y-60937057D01*
X175579885Y-60913247D01*
X175841790Y-60913247D01*
X175579885Y-60913247D02*
X175532266Y-60889438D01*
X175508457Y-60841819D01*
X175508457Y-60770390D01*
X175532266Y-60722771D01*
X175579885Y-60698961D01*
X175841790Y-60698961D01*
X175841790Y-60246580D02*
X175579885Y-60246580D01*
X175532266Y-60270390D01*
X175508457Y-60318009D01*
X175508457Y-60413247D01*
X175532266Y-60460866D01*
X175817980Y-60246580D02*
X175841790Y-60294200D01*
X175841790Y-60413247D01*
X175817980Y-60460866D01*
X175770361Y-60484676D01*
X175722742Y-60484676D01*
X175675123Y-60460866D01*
X175651314Y-60413247D01*
X175651314Y-60294200D01*
X175627504Y-60246580D01*
X175841790Y-65172352D02*
X175841790Y-65410447D01*
X175341790Y-65410447D01*
X175508457Y-64791400D02*
X175841790Y-64791400D01*
X175508457Y-65005685D02*
X175770361Y-65005685D01*
X175817980Y-64981876D01*
X175841790Y-64934257D01*
X175841790Y-64862828D01*
X175817980Y-64815209D01*
X175794171Y-64791400D01*
X175841790Y-64553304D02*
X175508457Y-64553304D01*
X175556076Y-64553304D02*
X175532266Y-64529495D01*
X175508457Y-64481876D01*
X175508457Y-64410447D01*
X175532266Y-64362828D01*
X175579885Y-64339019D01*
X175841790Y-64339019D01*
X175579885Y-64339019D02*
X175532266Y-64315209D01*
X175508457Y-64267590D01*
X175508457Y-64196161D01*
X175532266Y-64148542D01*
X175579885Y-64124733D01*
X175841790Y-64124733D01*
X175841790Y-63672352D02*
X175579885Y-63672352D01*
X175532266Y-63696161D01*
X175508457Y-63743780D01*
X175508457Y-63839019D01*
X175532266Y-63886638D01*
X175817980Y-63672352D02*
X175841790Y-63719971D01*
X175841790Y-63839019D01*
X175817980Y-63886638D01*
X175770361Y-63910447D01*
X175722742Y-63910447D01*
X175675123Y-63886638D01*
X175651314Y-63839019D01*
X175651314Y-63719971D01*
X175627504Y-63672352D01*
X184852571Y-90678771D02*
X184828761Y-90702580D01*
X184757333Y-90726390D01*
X184709714Y-90726390D01*
X184638285Y-90702580D01*
X184590666Y-90654961D01*
X184566857Y-90607342D01*
X184543047Y-90512104D01*
X184543047Y-90440676D01*
X184566857Y-90345438D01*
X184590666Y-90297819D01*
X184638285Y-90250200D01*
X184709714Y-90226390D01*
X184757333Y-90226390D01*
X184828761Y-90250200D01*
X184852571Y-90274009D01*
X185162095Y-90226390D02*
X185257333Y-90226390D01*
X185304952Y-90250200D01*
X185352571Y-90297819D01*
X185376380Y-90393057D01*
X185376380Y-90559723D01*
X185352571Y-90654961D01*
X185304952Y-90702580D01*
X185257333Y-90726390D01*
X185162095Y-90726390D01*
X185114476Y-90702580D01*
X185066857Y-90654961D01*
X185043047Y-90559723D01*
X185043047Y-90393057D01*
X185066857Y-90297819D01*
X185114476Y-90250200D01*
X185162095Y-90226390D01*
X185828761Y-90726390D02*
X185590666Y-90726390D01*
X185590666Y-90226390D01*
X186090666Y-90226390D02*
X186185904Y-90226390D01*
X186233523Y-90250200D01*
X186281142Y-90297819D01*
X186304952Y-90393057D01*
X186304952Y-90559723D01*
X186281142Y-90654961D01*
X186233523Y-90702580D01*
X186185904Y-90726390D01*
X186090666Y-90726390D01*
X186043047Y-90702580D01*
X185995428Y-90654961D01*
X185971619Y-90559723D01*
X185971619Y-90393057D01*
X185995428Y-90297819D01*
X186043047Y-90250200D01*
X186090666Y-90226390D01*
X186804952Y-90726390D02*
X186638285Y-90488295D01*
X186519238Y-90726390D02*
X186519238Y-90226390D01*
X186709714Y-90226390D01*
X186757333Y-90250200D01*
X186781142Y-90274009D01*
X186804952Y-90321628D01*
X186804952Y-90393057D01*
X186781142Y-90440676D01*
X186757333Y-90464485D01*
X186709714Y-90488295D01*
X186519238Y-90488295D01*
X182222876Y-90678771D02*
X182199066Y-90702580D01*
X182127638Y-90726390D01*
X182080019Y-90726390D01*
X182008590Y-90702580D01*
X181960971Y-90654961D01*
X181937161Y-90607342D01*
X181913352Y-90512104D01*
X181913352Y-90440676D01*
X181937161Y-90345438D01*
X181960971Y-90297819D01*
X182008590Y-90250200D01*
X182080019Y-90226390D01*
X182127638Y-90226390D01*
X182199066Y-90250200D01*
X182222876Y-90274009D01*
X182413352Y-90702580D02*
X182484780Y-90726390D01*
X182603828Y-90726390D01*
X182651447Y-90702580D01*
X182675257Y-90678771D01*
X182699066Y-90631152D01*
X182699066Y-90583533D01*
X182675257Y-90535914D01*
X182651447Y-90512104D01*
X182603828Y-90488295D01*
X182508590Y-90464485D01*
X182460971Y-90440676D01*
X182437161Y-90416866D01*
X182413352Y-90369247D01*
X182413352Y-90321628D01*
X182437161Y-90274009D01*
X182460971Y-90250200D01*
X182508590Y-90226390D01*
X182627638Y-90226390D01*
X182699066Y-90250200D01*
X183008590Y-90488295D02*
X183008590Y-90726390D01*
X182841923Y-90226390D02*
X183008590Y-90488295D01*
X183175257Y-90226390D01*
X183341923Y-90726390D02*
X183341923Y-90226390D01*
X183627638Y-90726390D01*
X183627638Y-90226390D01*
X184151447Y-90678771D02*
X184127638Y-90702580D01*
X184056209Y-90726390D01*
X184008590Y-90726390D01*
X183937161Y-90702580D01*
X183889542Y-90654961D01*
X183865733Y-90607342D01*
X183841923Y-90512104D01*
X183841923Y-90440676D01*
X183865733Y-90345438D01*
X183889542Y-90297819D01*
X183937161Y-90250200D01*
X184008590Y-90226390D01*
X184056209Y-90226390D01*
X184127638Y-90250200D01*
X184151447Y-90274009D01*
X179836047Y-90726390D02*
X179597952Y-90726390D01*
X179597952Y-90226390D01*
X180002714Y-90226390D02*
X180002714Y-90631152D01*
X180026523Y-90678771D01*
X180050333Y-90702580D01*
X180097952Y-90726390D01*
X180193190Y-90726390D01*
X180240809Y-90702580D01*
X180264619Y-90678771D01*
X180288428Y-90631152D01*
X180288428Y-90226390D01*
X180526523Y-90726390D02*
X180526523Y-90226390D01*
X180693190Y-90583533D01*
X180859857Y-90226390D01*
X180859857Y-90726390D01*
X181050333Y-90226390D02*
X181359857Y-90226390D01*
X181193190Y-90416866D01*
X181264619Y-90416866D01*
X181312238Y-90440676D01*
X181336047Y-90464485D01*
X181359857Y-90512104D01*
X181359857Y-90631152D01*
X181336047Y-90678771D01*
X181312238Y-90702580D01*
X181264619Y-90726390D01*
X181121761Y-90726390D01*
X181074142Y-90702580D01*
X181050333Y-90678771D01*
X177296047Y-90726390D02*
X177057952Y-90726390D01*
X177057952Y-90226390D01*
X177462714Y-90226390D02*
X177462714Y-90631152D01*
X177486523Y-90678771D01*
X177510333Y-90702580D01*
X177557952Y-90726390D01*
X177653190Y-90726390D01*
X177700809Y-90702580D01*
X177724619Y-90678771D01*
X177748428Y-90631152D01*
X177748428Y-90226390D01*
X177986523Y-90726390D02*
X177986523Y-90226390D01*
X178153190Y-90583533D01*
X178319857Y-90226390D01*
X178319857Y-90726390D01*
X178534142Y-90274009D02*
X178557952Y-90250200D01*
X178605571Y-90226390D01*
X178724619Y-90226390D01*
X178772238Y-90250200D01*
X178796047Y-90274009D01*
X178819857Y-90321628D01*
X178819857Y-90369247D01*
X178796047Y-90440676D01*
X178510333Y-90726390D01*
X178819857Y-90726390D01*
X174781447Y-90726390D02*
X174543352Y-90726390D01*
X174543352Y-90226390D01*
X174948114Y-90226390D02*
X174948114Y-90631152D01*
X174971923Y-90678771D01*
X174995733Y-90702580D01*
X175043352Y-90726390D01*
X175138590Y-90726390D01*
X175186209Y-90702580D01*
X175210019Y-90678771D01*
X175233828Y-90631152D01*
X175233828Y-90226390D01*
X175471923Y-90726390D02*
X175471923Y-90226390D01*
X175638590Y-90583533D01*
X175805257Y-90226390D01*
X175805257Y-90726390D01*
X176305257Y-90726390D02*
X176019542Y-90726390D01*
X176162400Y-90726390D02*
X176162400Y-90226390D01*
X176114780Y-90297819D01*
X176067161Y-90345438D01*
X176019542Y-90369247D01*
X172114447Y-90726390D02*
X171876352Y-90726390D01*
X171876352Y-90226390D01*
X172281114Y-90226390D02*
X172281114Y-90631152D01*
X172304923Y-90678771D01*
X172328733Y-90702580D01*
X172376352Y-90726390D01*
X172471590Y-90726390D01*
X172519209Y-90702580D01*
X172543019Y-90678771D01*
X172566828Y-90631152D01*
X172566828Y-90226390D01*
X172804923Y-90726390D02*
X172804923Y-90226390D01*
X172971590Y-90583533D01*
X173138257Y-90226390D01*
X173138257Y-90726390D01*
X173471590Y-90226390D02*
X173519209Y-90226390D01*
X173566828Y-90250200D01*
X173590638Y-90274009D01*
X173614447Y-90321628D01*
X173638257Y-90416866D01*
X173638257Y-90535914D01*
X173614447Y-90631152D01*
X173590638Y-90678771D01*
X173566828Y-90702580D01*
X173519209Y-90726390D01*
X173471590Y-90726390D01*
X173423971Y-90702580D01*
X173400161Y-90678771D01*
X173376352Y-90631152D01*
X173352542Y-90535914D01*
X173352542Y-90416866D01*
X173376352Y-90321628D01*
X173400161Y-90274009D01*
X173423971Y-90250200D01*
X173471590Y-90226390D01*
D12*
X172202800Y-65338000D02*
X174862800Y-65338000D01*
X172202800Y-60198000D02*
X172202800Y-65338000D01*
X174862800Y-60198000D02*
X174862800Y-65338000D01*
X172202800Y-60198000D02*
X174862800Y-60198000D01*
X172202800Y-58928000D02*
X172202800Y-57598000D01*
X172202800Y-57598000D02*
X173532800Y-57598000D01*
X186826000Y-93896000D02*
X171466000Y-93896000D01*
X171466000Y-93896000D02*
X171466000Y-96556000D01*
X171466000Y-96556000D02*
X186826000Y-96556000D01*
X186826000Y-96556000D02*
X186826000Y-93896000D01*
X185876000Y-96556000D02*
X185876000Y-102556000D01*
X185876000Y-102556000D02*
X185116000Y-102556000D01*
X185116000Y-102556000D02*
X185116000Y-96556000D01*
X185816000Y-96556000D02*
X185816000Y-102556000D01*
X185696000Y-96556000D02*
X185696000Y-102556000D01*
X185576000Y-96556000D02*
X185576000Y-102556000D01*
X185456000Y-96556000D02*
X185456000Y-102556000D01*
X185336000Y-96556000D02*
X185336000Y-102556000D01*
X185216000Y-96556000D02*
X185216000Y-102556000D01*
X185876000Y-93566000D02*
X185876000Y-93896000D01*
X185116000Y-93566000D02*
X185116000Y-93896000D01*
X184226000Y-93896000D02*
X184226000Y-96556000D01*
X183336000Y-96556000D02*
X183336000Y-102556000D01*
X183336000Y-102556000D02*
X182576000Y-102556000D01*
X182576000Y-102556000D02*
X182576000Y-96556000D01*
X183336000Y-93498929D02*
X183336000Y-93896000D01*
X182576000Y-93498929D02*
X182576000Y-93896000D01*
X181686000Y-93896000D02*
X181686000Y-96556000D01*
X180796000Y-96556000D02*
X180796000Y-102556000D01*
X180796000Y-102556000D02*
X180036000Y-102556000D01*
X180036000Y-102556000D02*
X180036000Y-96556000D01*
X180796000Y-93498929D02*
X180796000Y-93896000D01*
X180036000Y-93498929D02*
X180036000Y-93896000D01*
X179146000Y-93896000D02*
X179146000Y-96556000D01*
X178256000Y-96556000D02*
X178256000Y-102556000D01*
X178256000Y-102556000D02*
X177496000Y-102556000D01*
X177496000Y-102556000D02*
X177496000Y-96556000D01*
X178256000Y-93498929D02*
X178256000Y-93896000D01*
X177496000Y-93498929D02*
X177496000Y-93896000D01*
X176606000Y-93896000D02*
X176606000Y-96556000D01*
X175716000Y-96556000D02*
X175716000Y-102556000D01*
X175716000Y-102556000D02*
X174956000Y-102556000D01*
X174956000Y-102556000D02*
X174956000Y-96556000D01*
X175716000Y-93498929D02*
X175716000Y-93896000D01*
X174956000Y-93498929D02*
X174956000Y-93896000D01*
X174066000Y-93896000D02*
X174066000Y-96556000D01*
X173176000Y-96556000D02*
X173176000Y-102556000D01*
X173176000Y-102556000D02*
X172416000Y-102556000D01*
X172416000Y-102556000D02*
X172416000Y-96556000D01*
X173176000Y-93498929D02*
X173176000Y-93896000D01*
X172416000Y-93498929D02*
X172416000Y-93896000D01*
X185496000Y-91186000D02*
X186766000Y-91186000D01*
X186766000Y-91186000D02*
X186766000Y-92456000D01*
X204479000Y-87951000D02*
X201819000Y-87951000D01*
X204479000Y-93091000D02*
X204479000Y-87951000D01*
X201819000Y-93091000D02*
X201819000Y-87951000D01*
X204479000Y-93091000D02*
X201819000Y-93091000D01*
X204479000Y-94361000D02*
X204479000Y-95691000D01*
X204479000Y-95691000D02*
X203149000Y-95691000D01*
X188122000Y-56734400D02*
X188122000Y-58064400D01*
X186792000Y-56734400D02*
X188122000Y-56734400D01*
X185522000Y-56734400D02*
X185522000Y-59394400D01*
X185522000Y-59394400D02*
X182922000Y-59394400D01*
X185522000Y-56734400D02*
X182922000Y-56734400D01*
X182922000Y-56734400D02*
X182922000Y-59394400D01*
X179906000Y-78333600D02*
X179906000Y-84173600D01*
X179146000Y-77573600D02*
X179906000Y-78333600D01*
X173306000Y-78333600D02*
X174066000Y-77573600D01*
X173306000Y-84173600D02*
X173306000Y-78333600D01*
X179146000Y-77573600D02*
X177726000Y-77573600D01*
X174066000Y-77573600D02*
X175486000Y-77573600D01*
X179906000Y-84173600D02*
X177726000Y-84173600D01*
X173306000Y-84173600D02*
X175486000Y-84173600D01*
X195639000Y-83019000D02*
X196639000Y-83019000D01*
X196639000Y-81319000D02*
X195639000Y-81319000D01*
X177903000Y-72173200D02*
X175353000Y-72173200D01*
X177903000Y-70473200D02*
X175353000Y-70473200D01*
X177903000Y-72173200D02*
X177903000Y-70473200D01*
X187647000Y-83733000D02*
X187647000Y-82323000D01*
X185327000Y-82323000D02*
X185327000Y-85058000D01*
X185317000Y-82323000D02*
X185987000Y-82323000D01*
X186987000Y-82323000D02*
X187647000Y-82323000D01*
X192694000Y-57514600D02*
X193894000Y-57514600D01*
X193894000Y-59274600D02*
X192694000Y-59274600D01*
X193894000Y-61713000D02*
X192694000Y-61713000D01*
X192694000Y-59953000D02*
X193894000Y-59953000D01*
X192694000Y-62315200D02*
X193894000Y-62315200D01*
X193894000Y-64075200D02*
X192694000Y-64075200D01*
X201336000Y-59122200D02*
X200136000Y-59122200D01*
X200136000Y-57362200D02*
X201336000Y-57362200D01*
X200212000Y-59953000D02*
X201412000Y-59953000D01*
X201412000Y-61713000D02*
X200212000Y-61713000D01*
X203572000Y-65287600D02*
X203572000Y-66487600D01*
X201812000Y-66487600D02*
X201812000Y-65287600D01*
X184236000Y-61756400D02*
X185436000Y-61756400D01*
X185436000Y-63516400D02*
X184236000Y-63516400D01*
X185410000Y-65624600D02*
X184210000Y-65624600D01*
X184210000Y-63864600D02*
X185410000Y-63864600D01*
X184210000Y-65922000D02*
X185410000Y-65922000D01*
X185410000Y-67682000D02*
X184210000Y-67682000D01*
X185410000Y-69714000D02*
X184210000Y-69714000D01*
X184210000Y-67954000D02*
X185410000Y-67954000D01*
X184185000Y-69960600D02*
X185385000Y-69960600D01*
X185385000Y-71720600D02*
X184185000Y-71720600D01*
X184160000Y-72018000D02*
X185360000Y-72018000D01*
X185360000Y-73778000D02*
X184160000Y-73778000D01*
X185360000Y-75784600D02*
X184160000Y-75784600D01*
X184160000Y-74024600D02*
X185360000Y-74024600D01*
X193887000Y-91053200D02*
X193887000Y-89853200D01*
X195647000Y-89853200D02*
X195647000Y-91053200D01*
X197781000Y-89853200D02*
X197781000Y-91053200D01*
X196021000Y-91053200D02*
X196021000Y-89853200D01*
D13*
X198222000Y-68300600D02*
X198222000Y-79476600D01*
X193650000Y-68300600D02*
X198222000Y-68300600D01*
X193650000Y-79476600D02*
X193650000Y-68300600D01*
X198222000Y-79476600D02*
X193650000Y-79476600D01*
X195174000Y-69062600D02*
X195174000Y-68300600D01*
X196698000Y-69062600D02*
X195174000Y-69062600D01*
X196698000Y-68300600D02*
X196698000Y-69062600D01*
X188195000Y-95706895D02*
X188156904Y-95783085D01*
X188156904Y-95897371D01*
X188195000Y-96011657D01*
X188271190Y-96087847D01*
X188347380Y-96125942D01*
X188499761Y-96164038D01*
X188614047Y-96164038D01*
X188766428Y-96125942D01*
X188842619Y-96087847D01*
X188918809Y-96011657D01*
X188956904Y-95897371D01*
X188956904Y-95821180D01*
X188918809Y-95706895D01*
X188880714Y-95668800D01*
X188614047Y-95668800D01*
X188614047Y-95821180D01*
X188156904Y-95440228D02*
X188156904Y-94983085D01*
X188956904Y-95211657D02*
X188156904Y-95211657D01*
X188956904Y-94716419D02*
X188156904Y-94716419D01*
X188728333Y-94373561D02*
X188728333Y-93992609D01*
X188956904Y-94449752D02*
X188156904Y-94183085D01*
X188956904Y-93916419D01*
X188956904Y-93040228D02*
X188156904Y-93040228D01*
X188423571Y-92659276D02*
X188956904Y-92659276D01*
X188499761Y-92659276D02*
X188461666Y-92621180D01*
X188423571Y-92544990D01*
X188423571Y-92430704D01*
X188461666Y-92354514D01*
X188537857Y-92316419D01*
X188956904Y-92316419D01*
X188423571Y-91935466D02*
X189223571Y-91935466D01*
X188461666Y-91935466D02*
X188423571Y-91859276D01*
X188423571Y-91706895D01*
X188461666Y-91630704D01*
X188499761Y-91592609D01*
X188575952Y-91554514D01*
X188804523Y-91554514D01*
X188880714Y-91592609D01*
X188918809Y-91630704D01*
X188956904Y-91706895D01*
X188956904Y-91859276D01*
X188918809Y-91935466D01*
X188423571Y-90868800D02*
X188956904Y-90868800D01*
X188423571Y-91211657D02*
X188842619Y-91211657D01*
X188918809Y-91173561D01*
X188956904Y-91097371D01*
X188956904Y-90983085D01*
X188918809Y-90906895D01*
X188880714Y-90868800D01*
X188423571Y-90602133D02*
X188423571Y-90297371D01*
X188156904Y-90487847D02*
X188842619Y-90487847D01*
X188918809Y-90449752D01*
X188956904Y-90373561D01*
X188956904Y-90297371D01*
X177090142Y-86755266D02*
X177137761Y-86802885D01*
X177185380Y-86945742D01*
X177185380Y-87040980D01*
X177137761Y-87183838D01*
X177042523Y-87279076D01*
X176947285Y-87326695D01*
X176756809Y-87374314D01*
X176613952Y-87374314D01*
X176423476Y-87326695D01*
X176328238Y-87279076D01*
X176233000Y-87183838D01*
X176185380Y-87040980D01*
X176185380Y-86945742D01*
X176233000Y-86802885D01*
X176280619Y-86755266D01*
X177185380Y-85802885D02*
X177185380Y-86374314D01*
X177185380Y-86088600D02*
X176185380Y-86088600D01*
X176328238Y-86183838D01*
X176423476Y-86279076D01*
X176471095Y-86374314D01*
X173667428Y-76974552D02*
X173667428Y-76212647D01*
X174048380Y-76593600D02*
X173286476Y-76593600D01*
X195972333Y-80776142D02*
X195924714Y-80823761D01*
X195781857Y-80871380D01*
X195686619Y-80871380D01*
X195543761Y-80823761D01*
X195448523Y-80728523D01*
X195400904Y-80633285D01*
X195353285Y-80442809D01*
X195353285Y-80299952D01*
X195400904Y-80109476D01*
X195448523Y-80014238D01*
X195543761Y-79919000D01*
X195686619Y-79871380D01*
X195781857Y-79871380D01*
X195924714Y-79919000D01*
X195972333Y-79966619D01*
X196353285Y-79966619D02*
X196400904Y-79919000D01*
X196496142Y-79871380D01*
X196734238Y-79871380D01*
X196829476Y-79919000D01*
X196877095Y-79966619D01*
X196924714Y-80061857D01*
X196924714Y-80157095D01*
X196877095Y-80299952D01*
X196305666Y-80871380D01*
X196924714Y-80871380D01*
X172612133Y-71705742D02*
X172564514Y-71753361D01*
X172421657Y-71800980D01*
X172326419Y-71800980D01*
X172183561Y-71753361D01*
X172088323Y-71658123D01*
X172040704Y-71562885D01*
X171993085Y-71372409D01*
X171993085Y-71229552D01*
X172040704Y-71039076D01*
X172088323Y-70943838D01*
X172183561Y-70848600D01*
X172326419Y-70800980D01*
X172421657Y-70800980D01*
X172564514Y-70848600D01*
X172612133Y-70896219D01*
X173612133Y-71800980D02*
X173278800Y-71324790D01*
X173040704Y-71800980D02*
X173040704Y-70800980D01*
X173421657Y-70800980D01*
X173516895Y-70848600D01*
X173564514Y-70896219D01*
X173612133Y-70991457D01*
X173612133Y-71134314D01*
X173564514Y-71229552D01*
X173516895Y-71277171D01*
X173421657Y-71324790D01*
X173040704Y-71324790D01*
X174564514Y-71800980D02*
X173993085Y-71800980D01*
X174278800Y-71800980D02*
X174278800Y-70800980D01*
X174183561Y-70943838D01*
X174088323Y-71039076D01*
X173993085Y-71086695D01*
X185034619Y-83153238D02*
X184987000Y-83248476D01*
X184891761Y-83343714D01*
X184748904Y-83486571D01*
X184701285Y-83581809D01*
X184701285Y-83677047D01*
X184939380Y-83629428D02*
X184891761Y-83724666D01*
X184796523Y-83819904D01*
X184606047Y-83867523D01*
X184272714Y-83867523D01*
X184082238Y-83819904D01*
X183987000Y-83724666D01*
X183939380Y-83629428D01*
X183939380Y-83438952D01*
X183987000Y-83343714D01*
X184082238Y-83248476D01*
X184272714Y-83200857D01*
X184606047Y-83200857D01*
X184796523Y-83248476D01*
X184891761Y-83343714D01*
X184939380Y-83438952D01*
X184939380Y-83629428D01*
X184939380Y-82248476D02*
X184939380Y-82819904D01*
X184939380Y-82534190D02*
X183939380Y-82534190D01*
X184082238Y-82629428D01*
X184177476Y-82724666D01*
X184225095Y-82819904D01*
X189774533Y-58694580D02*
X189441200Y-58218390D01*
X189203104Y-58694580D02*
X189203104Y-57694580D01*
X189584057Y-57694580D01*
X189679295Y-57742200D01*
X189726914Y-57789819D01*
X189774533Y-57885057D01*
X189774533Y-58027914D01*
X189726914Y-58123152D01*
X189679295Y-58170771D01*
X189584057Y-58218390D01*
X189203104Y-58218390D01*
X190726914Y-58694580D02*
X190155485Y-58694580D01*
X190441200Y-58694580D02*
X190441200Y-57694580D01*
X190345961Y-57837438D01*
X190250723Y-57932676D01*
X190155485Y-57980295D01*
X189774533Y-61082180D02*
X189441200Y-60605990D01*
X189203104Y-61082180D02*
X189203104Y-60082180D01*
X189584057Y-60082180D01*
X189679295Y-60129800D01*
X189726914Y-60177419D01*
X189774533Y-60272657D01*
X189774533Y-60415514D01*
X189726914Y-60510752D01*
X189679295Y-60558371D01*
X189584057Y-60605990D01*
X189203104Y-60605990D01*
X190155485Y-60177419D02*
X190203104Y-60129800D01*
X190298342Y-60082180D01*
X190536438Y-60082180D01*
X190631676Y-60129800D01*
X190679295Y-60177419D01*
X190726914Y-60272657D01*
X190726914Y-60367895D01*
X190679295Y-60510752D01*
X190107866Y-61082180D01*
X190726914Y-61082180D01*
X189647533Y-63571380D02*
X189314200Y-63095190D01*
X189076104Y-63571380D02*
X189076104Y-62571380D01*
X189457057Y-62571380D01*
X189552295Y-62619000D01*
X189599914Y-62666619D01*
X189647533Y-62761857D01*
X189647533Y-62904714D01*
X189599914Y-62999952D01*
X189552295Y-63047571D01*
X189457057Y-63095190D01*
X189076104Y-63095190D01*
X189980866Y-62571380D02*
X190599914Y-62571380D01*
X190266580Y-62952333D01*
X190409438Y-62952333D01*
X190504676Y-62999952D01*
X190552295Y-63047571D01*
X190599914Y-63142809D01*
X190599914Y-63380904D01*
X190552295Y-63476142D01*
X190504676Y-63523761D01*
X190409438Y-63571380D01*
X190123723Y-63571380D01*
X190028485Y-63523761D01*
X189980866Y-63476142D01*
X197140333Y-58694580D02*
X196807000Y-58218390D01*
X196568904Y-58694580D02*
X196568904Y-57694580D01*
X196949857Y-57694580D01*
X197045095Y-57742200D01*
X197092714Y-57789819D01*
X197140333Y-57885057D01*
X197140333Y-58027914D01*
X197092714Y-58123152D01*
X197045095Y-58170771D01*
X196949857Y-58218390D01*
X196568904Y-58218390D01*
X197997476Y-58027914D02*
X197997476Y-58694580D01*
X197759380Y-57646961D02*
X197521285Y-58361247D01*
X198140333Y-58361247D01*
X197063933Y-61082180D02*
X196730600Y-60605990D01*
X196492504Y-61082180D02*
X196492504Y-60082180D01*
X196873457Y-60082180D01*
X196968695Y-60129800D01*
X197016314Y-60177419D01*
X197063933Y-60272657D01*
X197063933Y-60415514D01*
X197016314Y-60510752D01*
X196968695Y-60558371D01*
X196873457Y-60605990D01*
X196492504Y-60605990D01*
X197968695Y-60082180D02*
X197492504Y-60082180D01*
X197444885Y-60558371D01*
X197492504Y-60510752D01*
X197587742Y-60463133D01*
X197825838Y-60463133D01*
X197921076Y-60510752D01*
X197968695Y-60558371D01*
X198016314Y-60653609D01*
X198016314Y-60891704D01*
X197968695Y-60986942D01*
X197921076Y-61034561D01*
X197825838Y-61082180D01*
X197587742Y-61082180D01*
X197492504Y-61034561D01*
X197444885Y-60986942D01*
X202941180Y-69661066D02*
X202464990Y-69994400D01*
X202941180Y-70232495D02*
X201941180Y-70232495D01*
X201941180Y-69851542D01*
X201988800Y-69756304D01*
X202036419Y-69708685D01*
X202131657Y-69661066D01*
X202274514Y-69661066D01*
X202369752Y-69708685D01*
X202417371Y-69756304D01*
X202464990Y-69851542D01*
X202464990Y-70232495D01*
X201941180Y-68803923D02*
X201941180Y-68994400D01*
X201988800Y-69089638D01*
X202036419Y-69137257D01*
X202179276Y-69232495D01*
X202369752Y-69280114D01*
X202750704Y-69280114D01*
X202845942Y-69232495D01*
X202893561Y-69184876D01*
X202941180Y-69089638D01*
X202941180Y-68899161D01*
X202893561Y-68803923D01*
X202845942Y-68756304D01*
X202750704Y-68708685D01*
X202512609Y-68708685D01*
X202417371Y-68756304D01*
X202369752Y-68803923D01*
X202322133Y-68899161D01*
X202322133Y-69089638D01*
X202369752Y-69184876D01*
X202417371Y-69232495D01*
X202512609Y-69280114D01*
X180960933Y-63088780D02*
X180627600Y-62612590D01*
X180389504Y-63088780D02*
X180389504Y-62088780D01*
X180770457Y-62088780D01*
X180865695Y-62136400D01*
X180913314Y-62184019D01*
X180960933Y-62279257D01*
X180960933Y-62422114D01*
X180913314Y-62517352D01*
X180865695Y-62564971D01*
X180770457Y-62612590D01*
X180389504Y-62612590D01*
X181294266Y-62088780D02*
X181960933Y-62088780D01*
X181532361Y-63088780D01*
X180858733Y-65120780D02*
X180525400Y-64644590D01*
X180287304Y-65120780D02*
X180287304Y-64120780D01*
X180668257Y-64120780D01*
X180763495Y-64168400D01*
X180811114Y-64216019D01*
X180858733Y-64311257D01*
X180858733Y-64454114D01*
X180811114Y-64549352D01*
X180763495Y-64596971D01*
X180668257Y-64644590D01*
X180287304Y-64644590D01*
X181430161Y-64549352D02*
X181334923Y-64501733D01*
X181287304Y-64454114D01*
X181239685Y-64358876D01*
X181239685Y-64311257D01*
X181287304Y-64216019D01*
X181334923Y-64168400D01*
X181430161Y-64120780D01*
X181620638Y-64120780D01*
X181715876Y-64168400D01*
X181763495Y-64216019D01*
X181811114Y-64311257D01*
X181811114Y-64358876D01*
X181763495Y-64454114D01*
X181715876Y-64501733D01*
X181620638Y-64549352D01*
X181430161Y-64549352D01*
X181334923Y-64596971D01*
X181287304Y-64644590D01*
X181239685Y-64739828D01*
X181239685Y-64930304D01*
X181287304Y-65025542D01*
X181334923Y-65073161D01*
X181430161Y-65120780D01*
X181620638Y-65120780D01*
X181715876Y-65073161D01*
X181763495Y-65025542D01*
X181811114Y-64930304D01*
X181811114Y-64739828D01*
X181763495Y-64644590D01*
X181715876Y-64596971D01*
X181620638Y-64549352D01*
X181011133Y-67101980D02*
X180677800Y-66625790D01*
X180439704Y-67101980D02*
X180439704Y-66101980D01*
X180820657Y-66101980D01*
X180915895Y-66149600D01*
X180963514Y-66197219D01*
X181011133Y-66292457D01*
X181011133Y-66435314D01*
X180963514Y-66530552D01*
X180915895Y-66578171D01*
X180820657Y-66625790D01*
X180439704Y-66625790D01*
X181487323Y-67101980D02*
X181677800Y-67101980D01*
X181773038Y-67054361D01*
X181820657Y-67006742D01*
X181915895Y-66863885D01*
X181963514Y-66673409D01*
X181963514Y-66292457D01*
X181915895Y-66197219D01*
X181868276Y-66149600D01*
X181773038Y-66101980D01*
X181582561Y-66101980D01*
X181487323Y-66149600D01*
X181439704Y-66197219D01*
X181392085Y-66292457D01*
X181392085Y-66530552D01*
X181439704Y-66625790D01*
X181487323Y-66673409D01*
X181582561Y-66721028D01*
X181773038Y-66721028D01*
X181868276Y-66673409D01*
X181915895Y-66625790D01*
X181963514Y-66530552D01*
X180280942Y-69337180D02*
X179947609Y-68860990D01*
X179709514Y-69337180D02*
X179709514Y-68337180D01*
X180090466Y-68337180D01*
X180185704Y-68384800D01*
X180233323Y-68432419D01*
X180280942Y-68527657D01*
X180280942Y-68670514D01*
X180233323Y-68765752D01*
X180185704Y-68813371D01*
X180090466Y-68860990D01*
X179709514Y-68860990D01*
X181233323Y-69337180D02*
X180661895Y-69337180D01*
X180947609Y-69337180D02*
X180947609Y-68337180D01*
X180852371Y-68480038D01*
X180757133Y-68575276D01*
X180661895Y-68622895D01*
X181852371Y-68337180D02*
X181947609Y-68337180D01*
X182042847Y-68384800D01*
X182090466Y-68432419D01*
X182138085Y-68527657D01*
X182185704Y-68718133D01*
X182185704Y-68956228D01*
X182138085Y-69146704D01*
X182090466Y-69241942D01*
X182042847Y-69289561D01*
X181947609Y-69337180D01*
X181852371Y-69337180D01*
X181757133Y-69289561D01*
X181709514Y-69241942D01*
X181661895Y-69146704D01*
X181614276Y-68956228D01*
X181614276Y-68718133D01*
X181661895Y-68527657D01*
X181709514Y-68432419D01*
X181757133Y-68384800D01*
X181852371Y-68337180D01*
X180357542Y-71318380D02*
X180024209Y-70842190D01*
X179786114Y-71318380D02*
X179786114Y-70318380D01*
X180167066Y-70318380D01*
X180262304Y-70366000D01*
X180309923Y-70413619D01*
X180357542Y-70508857D01*
X180357542Y-70651714D01*
X180309923Y-70746952D01*
X180262304Y-70794571D01*
X180167066Y-70842190D01*
X179786114Y-70842190D01*
X181309923Y-71318380D02*
X180738495Y-71318380D01*
X181024209Y-71318380D02*
X181024209Y-70318380D01*
X180928971Y-70461238D01*
X180833733Y-70556476D01*
X180738495Y-70604095D01*
X182262304Y-71318380D02*
X181690876Y-71318380D01*
X181976590Y-71318380D02*
X181976590Y-70318380D01*
X181881352Y-70461238D01*
X181786114Y-70556476D01*
X181690876Y-70604095D01*
X180230942Y-73299580D02*
X179897609Y-72823390D01*
X179659514Y-73299580D02*
X179659514Y-72299580D01*
X180040466Y-72299580D01*
X180135704Y-72347200D01*
X180183323Y-72394819D01*
X180230942Y-72490057D01*
X180230942Y-72632914D01*
X180183323Y-72728152D01*
X180135704Y-72775771D01*
X180040466Y-72823390D01*
X179659514Y-72823390D01*
X181183323Y-73299580D02*
X180611895Y-73299580D01*
X180897609Y-73299580D02*
X180897609Y-72299580D01*
X180802371Y-72442438D01*
X180707133Y-72537676D01*
X180611895Y-72585295D01*
X181564276Y-72394819D02*
X181611895Y-72347200D01*
X181707133Y-72299580D01*
X181945228Y-72299580D01*
X182040466Y-72347200D01*
X182088085Y-72394819D01*
X182135704Y-72490057D01*
X182135704Y-72585295D01*
X182088085Y-72728152D01*
X181516657Y-73299580D01*
X182135704Y-73299580D01*
X180256342Y-75356980D02*
X179923009Y-74880790D01*
X179684914Y-75356980D02*
X179684914Y-74356980D01*
X180065866Y-74356980D01*
X180161104Y-74404600D01*
X180208723Y-74452219D01*
X180256342Y-74547457D01*
X180256342Y-74690314D01*
X180208723Y-74785552D01*
X180161104Y-74833171D01*
X180065866Y-74880790D01*
X179684914Y-74880790D01*
X181208723Y-75356980D02*
X180637295Y-75356980D01*
X180923009Y-75356980D02*
X180923009Y-74356980D01*
X180827771Y-74499838D01*
X180732533Y-74595076D01*
X180637295Y-74642695D01*
X181542057Y-74356980D02*
X182161104Y-74356980D01*
X181827771Y-74737933D01*
X181970628Y-74737933D01*
X182065866Y-74785552D01*
X182113485Y-74833171D01*
X182161104Y-74928409D01*
X182161104Y-75166504D01*
X182113485Y-75261742D01*
X182065866Y-75309361D01*
X181970628Y-75356980D01*
X181684914Y-75356980D01*
X181589676Y-75309361D01*
X181542057Y-75261742D01*
X195168580Y-87184457D02*
X194692390Y-87517790D01*
X195168580Y-87755885D02*
X194168580Y-87755885D01*
X194168580Y-87374933D01*
X194216200Y-87279695D01*
X194263819Y-87232076D01*
X194359057Y-87184457D01*
X194501914Y-87184457D01*
X194597152Y-87232076D01*
X194644771Y-87279695D01*
X194692390Y-87374933D01*
X194692390Y-87755885D01*
X195168580Y-86232076D02*
X195168580Y-86803504D01*
X195168580Y-86517790D02*
X194168580Y-86517790D01*
X194311438Y-86613028D01*
X194406676Y-86708266D01*
X194454295Y-86803504D01*
X194501914Y-85374933D02*
X195168580Y-85374933D01*
X194120961Y-85613028D02*
X194835247Y-85851123D01*
X194835247Y-85232076D01*
X197353380Y-87206057D02*
X196877190Y-87539390D01*
X197353380Y-87777485D02*
X196353380Y-87777485D01*
X196353380Y-87396533D01*
X196401000Y-87301295D01*
X196448619Y-87253676D01*
X196543857Y-87206057D01*
X196686714Y-87206057D01*
X196781952Y-87253676D01*
X196829571Y-87301295D01*
X196877190Y-87396533D01*
X196877190Y-87777485D01*
X197353380Y-86253676D02*
X197353380Y-86825104D01*
X197353380Y-86539390D02*
X196353380Y-86539390D01*
X196496238Y-86634628D01*
X196591476Y-86729866D01*
X196639095Y-86825104D01*
X196353380Y-85348914D02*
X196353380Y-85825104D01*
X196829571Y-85872723D01*
X196781952Y-85825104D01*
X196734333Y-85729866D01*
X196734333Y-85491771D01*
X196781952Y-85396533D01*
X196829571Y-85348914D01*
X196924809Y-85301295D01*
X197162904Y-85301295D01*
X197258142Y-85348914D01*
X197305761Y-85396533D01*
X197353380Y-85491771D01*
X197353380Y-85729866D01*
X197305761Y-85825104D01*
X197258142Y-85872723D01*
X196658380Y-74777504D02*
X197467904Y-74777504D01*
X197563142Y-74729885D01*
X197610761Y-74682266D01*
X197658380Y-74587028D01*
X197658380Y-74396552D01*
X197610761Y-74301314D01*
X197563142Y-74253695D01*
X197467904Y-74206076D01*
X196658380Y-74206076D01*
X197658380Y-73206076D02*
X197658380Y-73777504D01*
X197658380Y-73491790D02*
X196658380Y-73491790D01*
X196801238Y-73587028D01*
X196896476Y-73682266D01*
X196944095Y-73777504D01*
M02*
