M48
; DRILL file {KiCad (5.1.4)-1} date 18-1-2021 22:46:57
; FORMAT={-:-/ absolute / inch / decimal}
; #@! TF.CreationDate,2021-01-18T22:46:57+01:00
; #@! TF.GenerationSoftware,Kicad,Pcbnew,(5.1.4)-1
; #@! TF.FileFunction,Plated,1,4,PTH
FMAT,2
INCH
T1C0.0157
T2C0.0394
T3C0.0394
%
G90
G05
T1
X6.837Y-2.943
X7.2387Y-3.1272
X7.3038Y-3.1868
X7.3087Y-3.0774
X7.3803Y-2.9503
X7.3852Y-2.8143
X7.4357Y-2.9224
X7.4547Y-2.5884
X7.4795Y-2.7054
X7.4871Y-3.2922
X7.5805Y-2.6907
X7.6014Y-2.6514
X7.6387Y-3.0878
X7.7068Y-2.9955
X7.7116Y-3.0562
X7.7203Y-2.8862
X7.7368Y-2.9608
X7.7788Y-2.7625
X7.7952Y-2.9119
X7.8177Y-3.1176
X7.8248Y-3.2239
X7.828Y-3.669
X8.017Y-2.85
T2
X6.803Y-3.64
X6.903Y-3.64
X7.003Y-3.64
X7.103Y-3.64
X7.203Y-3.64
X7.303Y-3.64
X7.254Y-2.286
X7.354Y-2.286
X6.9Y-2.306
X6.9Y-2.406
X6.9Y-2.506
X7.998Y-3.515
X7.998Y-3.615
X7.998Y-3.715
T3
X7.563Y-3.729
T0
M30
