G04 #@! TF.GenerationSoftware,KiCad,Pcbnew,(5.1.4)-1*
G04 #@! TF.CreationDate,2021-02-14T21:55:27+01:00*
G04 #@! TF.ProjectId,Atari XL s-video,41746172-6920-4584-9c20-732d76696465,rev?*
G04 #@! TF.SameCoordinates,Original*
G04 #@! TF.FileFunction,Paste,Top*
G04 #@! TF.FilePolarity,Positive*
%FSLAX46Y46*%
G04 Gerber Fmt 4.6, Leading zero omitted, Abs format (unit mm)*
G04 Created by KiCad (PCBNEW (5.1.4)-1) date 2021-02-14 21:55:27*
%MOMM*%
%LPD*%
G04 APERTURE LIST*
%ADD10R,1.600000X3.500000*%
%ADD11R,1.500000X1.250000*%
%ADD12R,0.600000X0.450000*%
%ADD13R,0.450000X1.500000*%
%ADD14R,1.500000X1.300000*%
%ADD15R,1.300000X1.500000*%
%ADD16R,1.143000X0.508000*%
G04 APERTURE END LIST*
D10*
X176606000Y-83573600D03*
X176606000Y-78173600D03*
D11*
X197389000Y-82169000D03*
X194889000Y-82169000D03*
D12*
X175353000Y-71323200D03*
X177453000Y-71323200D03*
D13*
X186487000Y-81728000D03*
X187137000Y-84388000D03*
X185837000Y-84388000D03*
D14*
X194644000Y-58394600D03*
X191944000Y-58394600D03*
X191944000Y-60833000D03*
X194644000Y-60833000D03*
X194644000Y-63195200D03*
X191944000Y-63195200D03*
X199386000Y-58242200D03*
X202086000Y-58242200D03*
X202162000Y-60833000D03*
X199462000Y-60833000D03*
D15*
X202692000Y-67237600D03*
X202692000Y-64537600D03*
D14*
X186186000Y-62636400D03*
X183486000Y-62636400D03*
X183460000Y-64744600D03*
X186160000Y-64744600D03*
X186160000Y-66802000D03*
X183460000Y-66802000D03*
X183460000Y-68834000D03*
X186160000Y-68834000D03*
X186135000Y-70840600D03*
X183435000Y-70840600D03*
X186110000Y-72898000D03*
X183410000Y-72898000D03*
X183410000Y-74904600D03*
X186110000Y-74904600D03*
D15*
X194767000Y-89103200D03*
X194767000Y-91803200D03*
X196901000Y-91803200D03*
X196901000Y-89103200D03*
D16*
X199111000Y-70713600D03*
X192761000Y-69443600D03*
X192761000Y-70713600D03*
X192761000Y-71983600D03*
X192761000Y-73253600D03*
X192761000Y-74523600D03*
X192761000Y-75793600D03*
X192761000Y-77063600D03*
X192761000Y-78333600D03*
X199111000Y-78333600D03*
X199111000Y-77063600D03*
X199111000Y-75793600D03*
X199111000Y-74523600D03*
X199111000Y-73253600D03*
X199111000Y-71983600D03*
X199111000Y-69443600D03*
M02*
