G04 #@! TF.GenerationSoftware,KiCad,Pcbnew,(5.1.4)-1*
G04 #@! TF.CreationDate,2021-01-18T22:47:00+01:00*
G04 #@! TF.ProjectId,Atari XL s-video,41746172-6920-4584-9c20-732d76696465,rev?*
G04 #@! TF.SameCoordinates,Original*
G04 #@! TF.FileFunction,Copper,L2,Inr*
G04 #@! TF.FilePolarity,Positive*
%FSLAX46Y46*%
G04 Gerber Fmt 4.6, Leading zero omitted, Abs format (unit mm)*
G04 Created by KiCad (PCBNEW (5.1.4)-1) date 2021-01-18 22:47:00*
%MOMM*%
%LPD*%
G04 APERTURE LIST*
%ADD10C,2.499360*%
%ADD11R,1.700000X1.700000*%
%ADD12O,1.700000X1.700000*%
%ADD13C,0.800000*%
%ADD14C,0.254000*%
G04 APERTURE END LIST*
D10*
X192100000Y-94716600D03*
D11*
X185496000Y-92456000D03*
D12*
X182956000Y-92456000D03*
X180416000Y-92456000D03*
X177876000Y-92456000D03*
X175336000Y-92456000D03*
X172796000Y-92456000D03*
D11*
X175260000Y-63652400D03*
D12*
X175260000Y-61112400D03*
X175260000Y-58572400D03*
D11*
X203149000Y-94361000D03*
D12*
X203149000Y-91821000D03*
X203149000Y-89281000D03*
X184252000Y-58064400D03*
D11*
X186792000Y-58064400D03*
D13*
X185516900Y-80945200D03*
X187585100Y-71482900D03*
X198831200Y-93192600D03*
X198750700Y-81887200D03*
X203631800Y-72390000D03*
X183863400Y-79430800D03*
X173659800Y-74752200D03*
X190171800Y-83620700D03*
X188867800Y-74229900D03*
X185642100Y-78165700D03*
X198569400Y-79187700D03*
X194022000Y-78429800D03*
X195753700Y-76085400D03*
X195875400Y-77627500D03*
X196514500Y-75204200D03*
X187460100Y-74937700D03*
X196094900Y-73308300D03*
X197582300Y-70167000D03*
X193075800Y-67345000D03*
X189980300Y-68716200D03*
X189348900Y-65745700D03*
X197998700Y-73961700D03*
X192545600Y-68344800D03*
D14*
G36*
X174430986Y-57331694D02*
G01*
X174204866Y-57517266D01*
X174019294Y-57743386D01*
X173881401Y-58001366D01*
X173796487Y-58281289D01*
X173767815Y-58572400D01*
X173796487Y-58863511D01*
X173881401Y-59143434D01*
X174019294Y-59401414D01*
X174204866Y-59627534D01*
X174430986Y-59813106D01*
X174485791Y-59842400D01*
X174430986Y-59871694D01*
X174204866Y-60057266D01*
X174019294Y-60283386D01*
X173881401Y-60541366D01*
X173796487Y-60821289D01*
X173767815Y-61112400D01*
X173796487Y-61403511D01*
X173881401Y-61683434D01*
X174019294Y-61941414D01*
X174204866Y-62167534D01*
X174234687Y-62192007D01*
X174165820Y-62212898D01*
X174055506Y-62271863D01*
X173958815Y-62351215D01*
X173879463Y-62447906D01*
X173820498Y-62558220D01*
X173784188Y-62677918D01*
X173771928Y-62802400D01*
X173771928Y-64502400D01*
X173784188Y-64626882D01*
X173820498Y-64746580D01*
X173879463Y-64856894D01*
X173958815Y-64953585D01*
X174055506Y-65032937D01*
X174165820Y-65091902D01*
X174285518Y-65128212D01*
X174410000Y-65140472D01*
X176110000Y-65140472D01*
X176234482Y-65128212D01*
X176354180Y-65091902D01*
X176464494Y-65032937D01*
X176561185Y-64953585D01*
X176640537Y-64856894D01*
X176699502Y-64746580D01*
X176735812Y-64626882D01*
X176748072Y-64502400D01*
X176748072Y-62802400D01*
X176735812Y-62677918D01*
X176699502Y-62558220D01*
X176640537Y-62447906D01*
X176561185Y-62351215D01*
X176464494Y-62271863D01*
X176354180Y-62212898D01*
X176285313Y-62192007D01*
X176315134Y-62167534D01*
X176500706Y-61941414D01*
X176638599Y-61683434D01*
X176723513Y-61403511D01*
X176752185Y-61112400D01*
X176723513Y-60821289D01*
X176638599Y-60541366D01*
X176500706Y-60283386D01*
X176315134Y-60057266D01*
X176089014Y-59871694D01*
X176034209Y-59842400D01*
X176089014Y-59813106D01*
X176315134Y-59627534D01*
X176500706Y-59401414D01*
X176638599Y-59143434D01*
X176723513Y-58863511D01*
X176752185Y-58572400D01*
X176723513Y-58281289D01*
X176638599Y-58001366D01*
X176500706Y-57743386D01*
X176315134Y-57517266D01*
X176089014Y-57331694D01*
X176033460Y-57302000D01*
X182975688Y-57302000D01*
X182873401Y-57493366D01*
X182788487Y-57773289D01*
X182759815Y-58064400D01*
X182788487Y-58355511D01*
X182873401Y-58635434D01*
X183011294Y-58893414D01*
X183196866Y-59119534D01*
X183422986Y-59305106D01*
X183680966Y-59442999D01*
X183960889Y-59527913D01*
X184179050Y-59549400D01*
X184324950Y-59549400D01*
X184543111Y-59527913D01*
X184823034Y-59442999D01*
X185081014Y-59305106D01*
X185307134Y-59119534D01*
X185331607Y-59089713D01*
X185352498Y-59158580D01*
X185411463Y-59268894D01*
X185490815Y-59365585D01*
X185587506Y-59444937D01*
X185697820Y-59503902D01*
X185817518Y-59540212D01*
X185942000Y-59552472D01*
X187642000Y-59552472D01*
X187766482Y-59540212D01*
X187886180Y-59503902D01*
X187996494Y-59444937D01*
X188093185Y-59365585D01*
X188172537Y-59268894D01*
X188231502Y-59158580D01*
X188267812Y-59038882D01*
X188280072Y-58914400D01*
X188280072Y-57302000D01*
X203911185Y-57302000D01*
X203902320Y-71388533D01*
X203733739Y-71355000D01*
X203529861Y-71355000D01*
X203329902Y-71394774D01*
X203141544Y-71472795D01*
X202972026Y-71586063D01*
X202827863Y-71730226D01*
X202714595Y-71899744D01*
X202636574Y-72088102D01*
X202596800Y-72288061D01*
X202596800Y-72491939D01*
X202636574Y-72691898D01*
X202714595Y-72880256D01*
X202827863Y-73049774D01*
X202972026Y-73193937D01*
X203141544Y-73307205D01*
X203329902Y-73385226D01*
X203529861Y-73425000D01*
X203733739Y-73425000D01*
X203901059Y-73391718D01*
X203891869Y-87994249D01*
X203720034Y-87902401D01*
X203440111Y-87817487D01*
X203221950Y-87796000D01*
X203076050Y-87796000D01*
X202857889Y-87817487D01*
X202577966Y-87902401D01*
X202319986Y-88040294D01*
X202093866Y-88225866D01*
X201908294Y-88451986D01*
X201770401Y-88709966D01*
X201685487Y-88989889D01*
X201656815Y-89281000D01*
X201685487Y-89572111D01*
X201770401Y-89852034D01*
X201908294Y-90110014D01*
X202093866Y-90336134D01*
X202319986Y-90521706D01*
X202374791Y-90551000D01*
X202319986Y-90580294D01*
X202093866Y-90765866D01*
X201908294Y-90991986D01*
X201770401Y-91249966D01*
X201685487Y-91529889D01*
X201656815Y-91821000D01*
X201685487Y-92112111D01*
X201770401Y-92392034D01*
X201908294Y-92650014D01*
X202093866Y-92876134D01*
X202123687Y-92900607D01*
X202054820Y-92921498D01*
X201944506Y-92980463D01*
X201847815Y-93059815D01*
X201768463Y-93156506D01*
X201709498Y-93266820D01*
X201673188Y-93386518D01*
X201660928Y-93511000D01*
X201660928Y-95211000D01*
X201673188Y-95335482D01*
X201709498Y-95455180D01*
X201768463Y-95565494D01*
X201847815Y-95662185D01*
X201944506Y-95741537D01*
X202054820Y-95800502D01*
X202174518Y-95836812D01*
X202299000Y-95849072D01*
X203886926Y-95849072D01*
X203886614Y-96344578D01*
X193000594Y-96377269D01*
X193107896Y-96319915D01*
X193233771Y-96029977D01*
X192100000Y-94896205D01*
X190966229Y-96029977D01*
X191092104Y-96319915D01*
X191217713Y-96382623D01*
X171374647Y-96442212D01*
X171377797Y-94769319D01*
X190206935Y-94769319D01*
X190253595Y-95137625D01*
X190371211Y-95489751D01*
X190496685Y-95724496D01*
X190786623Y-95850371D01*
X191920395Y-94716600D01*
X192279605Y-94716600D01*
X193413377Y-95850371D01*
X193703315Y-95724496D01*
X193869139Y-95392338D01*
X193966975Y-95034213D01*
X193993065Y-94663881D01*
X193946405Y-94295575D01*
X193828789Y-93943449D01*
X193703315Y-93708704D01*
X193413377Y-93582829D01*
X192279605Y-94716600D01*
X191920395Y-94716600D01*
X190786623Y-93582829D01*
X190496685Y-93708704D01*
X190330861Y-94040862D01*
X190233025Y-94398987D01*
X190206935Y-94769319D01*
X171377797Y-94769319D01*
X171381303Y-92908034D01*
X171417401Y-93027034D01*
X171555294Y-93285014D01*
X171740866Y-93511134D01*
X171966986Y-93696706D01*
X172224966Y-93834599D01*
X172504889Y-93919513D01*
X172723050Y-93941000D01*
X172868950Y-93941000D01*
X173087111Y-93919513D01*
X173367034Y-93834599D01*
X173625014Y-93696706D01*
X173851134Y-93511134D01*
X174036706Y-93285014D01*
X174066000Y-93230209D01*
X174095294Y-93285014D01*
X174280866Y-93511134D01*
X174506986Y-93696706D01*
X174764966Y-93834599D01*
X175044889Y-93919513D01*
X175263050Y-93941000D01*
X175408950Y-93941000D01*
X175627111Y-93919513D01*
X175907034Y-93834599D01*
X176165014Y-93696706D01*
X176391134Y-93511134D01*
X176576706Y-93285014D01*
X176606000Y-93230209D01*
X176635294Y-93285014D01*
X176820866Y-93511134D01*
X177046986Y-93696706D01*
X177304966Y-93834599D01*
X177584889Y-93919513D01*
X177803050Y-93941000D01*
X177948950Y-93941000D01*
X178167111Y-93919513D01*
X178447034Y-93834599D01*
X178705014Y-93696706D01*
X178931134Y-93511134D01*
X179116706Y-93285014D01*
X179146000Y-93230209D01*
X179175294Y-93285014D01*
X179360866Y-93511134D01*
X179586986Y-93696706D01*
X179844966Y-93834599D01*
X180124889Y-93919513D01*
X180343050Y-93941000D01*
X180488950Y-93941000D01*
X180707111Y-93919513D01*
X180987034Y-93834599D01*
X181245014Y-93696706D01*
X181471134Y-93511134D01*
X181656706Y-93285014D01*
X181686000Y-93230209D01*
X181715294Y-93285014D01*
X181900866Y-93511134D01*
X182126986Y-93696706D01*
X182384966Y-93834599D01*
X182664889Y-93919513D01*
X182883050Y-93941000D01*
X183028950Y-93941000D01*
X183247111Y-93919513D01*
X183527034Y-93834599D01*
X183785014Y-93696706D01*
X184011134Y-93511134D01*
X184035607Y-93481313D01*
X184056498Y-93550180D01*
X184115463Y-93660494D01*
X184194815Y-93757185D01*
X184291506Y-93836537D01*
X184401820Y-93895502D01*
X184521518Y-93931812D01*
X184646000Y-93944072D01*
X186346000Y-93944072D01*
X186470482Y-93931812D01*
X186590180Y-93895502D01*
X186700494Y-93836537D01*
X186797185Y-93757185D01*
X186876537Y-93660494D01*
X186935502Y-93550180D01*
X186971812Y-93430482D01*
X186974496Y-93403223D01*
X190966229Y-93403223D01*
X192100000Y-94536995D01*
X193233771Y-93403223D01*
X193107896Y-93113285D01*
X193062579Y-93090661D01*
X197796200Y-93090661D01*
X197796200Y-93294539D01*
X197835974Y-93494498D01*
X197913995Y-93682856D01*
X198027263Y-93852374D01*
X198171426Y-93996537D01*
X198340944Y-94109805D01*
X198529302Y-94187826D01*
X198729261Y-94227600D01*
X198933139Y-94227600D01*
X199133098Y-94187826D01*
X199321456Y-94109805D01*
X199490974Y-93996537D01*
X199635137Y-93852374D01*
X199748405Y-93682856D01*
X199826426Y-93494498D01*
X199866200Y-93294539D01*
X199866200Y-93090661D01*
X199826426Y-92890702D01*
X199748405Y-92702344D01*
X199635137Y-92532826D01*
X199490974Y-92388663D01*
X199321456Y-92275395D01*
X199133098Y-92197374D01*
X198933139Y-92157600D01*
X198729261Y-92157600D01*
X198529302Y-92197374D01*
X198340944Y-92275395D01*
X198171426Y-92388663D01*
X198027263Y-92532826D01*
X197913995Y-92702344D01*
X197835974Y-92890702D01*
X197796200Y-93090661D01*
X193062579Y-93090661D01*
X192775738Y-92947461D01*
X192417613Y-92849625D01*
X192047281Y-92823535D01*
X191678975Y-92870195D01*
X191326849Y-92987811D01*
X191092104Y-93113285D01*
X190966229Y-93403223D01*
X186974496Y-93403223D01*
X186984072Y-93306000D01*
X186984072Y-91606000D01*
X186971812Y-91481518D01*
X186935502Y-91361820D01*
X186876537Y-91251506D01*
X186797185Y-91154815D01*
X186700494Y-91075463D01*
X186590180Y-91016498D01*
X186470482Y-90980188D01*
X186346000Y-90967928D01*
X184646000Y-90967928D01*
X184521518Y-90980188D01*
X184401820Y-91016498D01*
X184291506Y-91075463D01*
X184194815Y-91154815D01*
X184115463Y-91251506D01*
X184056498Y-91361820D01*
X184035607Y-91430687D01*
X184011134Y-91400866D01*
X183785014Y-91215294D01*
X183527034Y-91077401D01*
X183247111Y-90992487D01*
X183028950Y-90971000D01*
X182883050Y-90971000D01*
X182664889Y-90992487D01*
X182384966Y-91077401D01*
X182126986Y-91215294D01*
X181900866Y-91400866D01*
X181715294Y-91626986D01*
X181686000Y-91681791D01*
X181656706Y-91626986D01*
X181471134Y-91400866D01*
X181245014Y-91215294D01*
X180987034Y-91077401D01*
X180707111Y-90992487D01*
X180488950Y-90971000D01*
X180343050Y-90971000D01*
X180124889Y-90992487D01*
X179844966Y-91077401D01*
X179586986Y-91215294D01*
X179360866Y-91400866D01*
X179175294Y-91626986D01*
X179146000Y-91681791D01*
X179116706Y-91626986D01*
X178931134Y-91400866D01*
X178705014Y-91215294D01*
X178447034Y-91077401D01*
X178167111Y-90992487D01*
X177948950Y-90971000D01*
X177803050Y-90971000D01*
X177584889Y-90992487D01*
X177304966Y-91077401D01*
X177046986Y-91215294D01*
X176820866Y-91400866D01*
X176635294Y-91626986D01*
X176606000Y-91681791D01*
X176576706Y-91626986D01*
X176391134Y-91400866D01*
X176165014Y-91215294D01*
X175907034Y-91077401D01*
X175627111Y-90992487D01*
X175408950Y-90971000D01*
X175263050Y-90971000D01*
X175044889Y-90992487D01*
X174764966Y-91077401D01*
X174506986Y-91215294D01*
X174280866Y-91400866D01*
X174095294Y-91626986D01*
X174066000Y-91681791D01*
X174036706Y-91626986D01*
X173851134Y-91400866D01*
X173625014Y-91215294D01*
X173367034Y-91077401D01*
X173087111Y-90992487D01*
X172868950Y-90971000D01*
X172723050Y-90971000D01*
X172504889Y-90992487D01*
X172224966Y-91077401D01*
X171966986Y-91215294D01*
X171740866Y-91400866D01*
X171555294Y-91626986D01*
X171417401Y-91884966D01*
X171383016Y-91998318D01*
X171398984Y-83518761D01*
X189136800Y-83518761D01*
X189136800Y-83722639D01*
X189176574Y-83922598D01*
X189254595Y-84110956D01*
X189367863Y-84280474D01*
X189512026Y-84424637D01*
X189681544Y-84537905D01*
X189869902Y-84615926D01*
X190069861Y-84655700D01*
X190273739Y-84655700D01*
X190473698Y-84615926D01*
X190662056Y-84537905D01*
X190831574Y-84424637D01*
X190975737Y-84280474D01*
X191089005Y-84110956D01*
X191167026Y-83922598D01*
X191206800Y-83722639D01*
X191206800Y-83518761D01*
X191167026Y-83318802D01*
X191089005Y-83130444D01*
X190975737Y-82960926D01*
X190831574Y-82816763D01*
X190662056Y-82703495D01*
X190473698Y-82625474D01*
X190273739Y-82585700D01*
X190069861Y-82585700D01*
X189869902Y-82625474D01*
X189681544Y-82703495D01*
X189512026Y-82816763D01*
X189367863Y-82960926D01*
X189254595Y-83130444D01*
X189176574Y-83318802D01*
X189136800Y-83518761D01*
X171398984Y-83518761D01*
X171404023Y-80843261D01*
X184481900Y-80843261D01*
X184481900Y-81047139D01*
X184521674Y-81247098D01*
X184599695Y-81435456D01*
X184712963Y-81604974D01*
X184857126Y-81749137D01*
X185026644Y-81862405D01*
X185215002Y-81940426D01*
X185414961Y-81980200D01*
X185618839Y-81980200D01*
X185818798Y-81940426D01*
X186007156Y-81862405D01*
X186122610Y-81785261D01*
X197715700Y-81785261D01*
X197715700Y-81989139D01*
X197755474Y-82189098D01*
X197833495Y-82377456D01*
X197946763Y-82546974D01*
X198090926Y-82691137D01*
X198260444Y-82804405D01*
X198448802Y-82882426D01*
X198648761Y-82922200D01*
X198852639Y-82922200D01*
X199052598Y-82882426D01*
X199240956Y-82804405D01*
X199410474Y-82691137D01*
X199554637Y-82546974D01*
X199667905Y-82377456D01*
X199745926Y-82189098D01*
X199785700Y-81989139D01*
X199785700Y-81785261D01*
X199745926Y-81585302D01*
X199667905Y-81396944D01*
X199554637Y-81227426D01*
X199410474Y-81083263D01*
X199240956Y-80969995D01*
X199052598Y-80891974D01*
X198852639Y-80852200D01*
X198648761Y-80852200D01*
X198448802Y-80891974D01*
X198260444Y-80969995D01*
X198090926Y-81083263D01*
X197946763Y-81227426D01*
X197833495Y-81396944D01*
X197755474Y-81585302D01*
X197715700Y-81785261D01*
X186122610Y-81785261D01*
X186176674Y-81749137D01*
X186320837Y-81604974D01*
X186434105Y-81435456D01*
X186512126Y-81247098D01*
X186551900Y-81047139D01*
X186551900Y-80843261D01*
X186512126Y-80643302D01*
X186434105Y-80454944D01*
X186320837Y-80285426D01*
X186176674Y-80141263D01*
X186007156Y-80027995D01*
X185818798Y-79949974D01*
X185618839Y-79910200D01*
X185414961Y-79910200D01*
X185215002Y-79949974D01*
X185026644Y-80027995D01*
X184857126Y-80141263D01*
X184712963Y-80285426D01*
X184599695Y-80454944D01*
X184521674Y-80643302D01*
X184481900Y-80843261D01*
X171404023Y-80843261D01*
X171409257Y-78063761D01*
X184607100Y-78063761D01*
X184607100Y-78267639D01*
X184646874Y-78467598D01*
X184724895Y-78655956D01*
X184838163Y-78825474D01*
X184982326Y-78969637D01*
X185151844Y-79082905D01*
X185340202Y-79160926D01*
X185540161Y-79200700D01*
X185744039Y-79200700D01*
X185943998Y-79160926D01*
X186132356Y-79082905D01*
X186301874Y-78969637D01*
X186446037Y-78825474D01*
X186559305Y-78655956D01*
X186637326Y-78467598D01*
X186665121Y-78327861D01*
X192987000Y-78327861D01*
X192987000Y-78531739D01*
X193026774Y-78731698D01*
X193104795Y-78920056D01*
X193218063Y-79089574D01*
X193362226Y-79233737D01*
X193531744Y-79347005D01*
X193720102Y-79425026D01*
X193920061Y-79464800D01*
X194123939Y-79464800D01*
X194323898Y-79425026D01*
X194512256Y-79347005D01*
X194681774Y-79233737D01*
X194825937Y-79089574D01*
X194828484Y-79085761D01*
X197534400Y-79085761D01*
X197534400Y-79289639D01*
X197574174Y-79489598D01*
X197652195Y-79677956D01*
X197765463Y-79847474D01*
X197909626Y-79991637D01*
X198079144Y-80104905D01*
X198267502Y-80182926D01*
X198467461Y-80222700D01*
X198671339Y-80222700D01*
X198871298Y-80182926D01*
X199059656Y-80104905D01*
X199229174Y-79991637D01*
X199373337Y-79847474D01*
X199486605Y-79677956D01*
X199564626Y-79489598D01*
X199604400Y-79289639D01*
X199604400Y-79085761D01*
X199564626Y-78885802D01*
X199486605Y-78697444D01*
X199373337Y-78527926D01*
X199229174Y-78383763D01*
X199059656Y-78270495D01*
X198871298Y-78192474D01*
X198671339Y-78152700D01*
X198467461Y-78152700D01*
X198267502Y-78192474D01*
X198079144Y-78270495D01*
X197909626Y-78383763D01*
X197765463Y-78527926D01*
X197652195Y-78697444D01*
X197574174Y-78885802D01*
X197534400Y-79085761D01*
X194828484Y-79085761D01*
X194939205Y-78920056D01*
X195017226Y-78731698D01*
X195057000Y-78531739D01*
X195057000Y-78327861D01*
X195039374Y-78239250D01*
X195071463Y-78287274D01*
X195215626Y-78431437D01*
X195385144Y-78544705D01*
X195573502Y-78622726D01*
X195773461Y-78662500D01*
X195977339Y-78662500D01*
X196177298Y-78622726D01*
X196365656Y-78544705D01*
X196535174Y-78431437D01*
X196679337Y-78287274D01*
X196792605Y-78117756D01*
X196870626Y-77929398D01*
X196910400Y-77729439D01*
X196910400Y-77525561D01*
X196870626Y-77325602D01*
X196792605Y-77137244D01*
X196679337Y-76967726D01*
X196535174Y-76823563D01*
X196501649Y-76801162D01*
X196557637Y-76745174D01*
X196670905Y-76575656D01*
X196748926Y-76387298D01*
X196785056Y-76205660D01*
X196816398Y-76199426D01*
X197004756Y-76121405D01*
X197174274Y-76008137D01*
X197318437Y-75863974D01*
X197431705Y-75694456D01*
X197509726Y-75506098D01*
X197549500Y-75306139D01*
X197549500Y-75102261D01*
X197509726Y-74902302D01*
X197496816Y-74871136D01*
X197508444Y-74878905D01*
X197696802Y-74956926D01*
X197896761Y-74996700D01*
X198100639Y-74996700D01*
X198300598Y-74956926D01*
X198488956Y-74878905D01*
X198658474Y-74765637D01*
X198802637Y-74621474D01*
X198915905Y-74451956D01*
X198993926Y-74263598D01*
X199033700Y-74063639D01*
X199033700Y-73859761D01*
X198993926Y-73659802D01*
X198915905Y-73471444D01*
X198802637Y-73301926D01*
X198658474Y-73157763D01*
X198488956Y-73044495D01*
X198300598Y-72966474D01*
X198100639Y-72926700D01*
X197896761Y-72926700D01*
X197696802Y-72966474D01*
X197508444Y-73044495D01*
X197338926Y-73157763D01*
X197194763Y-73301926D01*
X197129900Y-73399001D01*
X197129900Y-73206361D01*
X197090126Y-73006402D01*
X197012105Y-72818044D01*
X196898837Y-72648526D01*
X196754674Y-72504363D01*
X196585156Y-72391095D01*
X196396798Y-72313074D01*
X196196839Y-72273300D01*
X195992961Y-72273300D01*
X195793002Y-72313074D01*
X195604644Y-72391095D01*
X195435126Y-72504363D01*
X195290963Y-72648526D01*
X195177695Y-72818044D01*
X195099674Y-73006402D01*
X195059900Y-73206361D01*
X195059900Y-73410239D01*
X195099674Y-73610198D01*
X195177695Y-73798556D01*
X195290963Y-73968074D01*
X195435126Y-74112237D01*
X195604644Y-74225505D01*
X195793002Y-74303526D01*
X195952132Y-74335179D01*
X195854726Y-74400263D01*
X195710563Y-74544426D01*
X195597295Y-74713944D01*
X195519274Y-74902302D01*
X195483144Y-75083940D01*
X195451802Y-75090174D01*
X195263444Y-75168195D01*
X195093926Y-75281463D01*
X194949763Y-75425626D01*
X194836495Y-75595144D01*
X194758474Y-75783502D01*
X194718700Y-75983461D01*
X194718700Y-76187339D01*
X194758474Y-76387298D01*
X194836495Y-76575656D01*
X194949763Y-76745174D01*
X195093926Y-76889337D01*
X195127451Y-76911738D01*
X195071463Y-76967726D01*
X194958195Y-77137244D01*
X194880174Y-77325602D01*
X194840400Y-77525561D01*
X194840400Y-77729439D01*
X194858026Y-77818050D01*
X194825937Y-77770026D01*
X194681774Y-77625863D01*
X194512256Y-77512595D01*
X194323898Y-77434574D01*
X194123939Y-77394800D01*
X193920061Y-77394800D01*
X193720102Y-77434574D01*
X193531744Y-77512595D01*
X193362226Y-77625863D01*
X193218063Y-77770026D01*
X193104795Y-77939544D01*
X193026774Y-78127902D01*
X192987000Y-78327861D01*
X186665121Y-78327861D01*
X186677100Y-78267639D01*
X186677100Y-78063761D01*
X186637326Y-77863802D01*
X186559305Y-77675444D01*
X186446037Y-77505926D01*
X186301874Y-77361763D01*
X186132356Y-77248495D01*
X185943998Y-77170474D01*
X185744039Y-77130700D01*
X185540161Y-77130700D01*
X185340202Y-77170474D01*
X185151844Y-77248495D01*
X184982326Y-77361763D01*
X184838163Y-77505926D01*
X184724895Y-77675444D01*
X184646874Y-77863802D01*
X184607100Y-78063761D01*
X171409257Y-78063761D01*
X171415336Y-74835761D01*
X186425100Y-74835761D01*
X186425100Y-75039639D01*
X186464874Y-75239598D01*
X186542895Y-75427956D01*
X186656163Y-75597474D01*
X186800326Y-75741637D01*
X186969844Y-75854905D01*
X187158202Y-75932926D01*
X187358161Y-75972700D01*
X187562039Y-75972700D01*
X187761998Y-75932926D01*
X187950356Y-75854905D01*
X188119874Y-75741637D01*
X188264037Y-75597474D01*
X188377305Y-75427956D01*
X188455326Y-75239598D01*
X188466403Y-75183912D01*
X188565902Y-75225126D01*
X188765861Y-75264900D01*
X188969739Y-75264900D01*
X189169698Y-75225126D01*
X189358056Y-75147105D01*
X189527574Y-75033837D01*
X189671737Y-74889674D01*
X189785005Y-74720156D01*
X189863026Y-74531798D01*
X189902800Y-74331839D01*
X189902800Y-74127961D01*
X189863026Y-73928002D01*
X189785005Y-73739644D01*
X189671737Y-73570126D01*
X189527574Y-73425963D01*
X189358056Y-73312695D01*
X189169698Y-73234674D01*
X188969739Y-73194900D01*
X188765861Y-73194900D01*
X188565902Y-73234674D01*
X188377544Y-73312695D01*
X188208026Y-73425963D01*
X188063863Y-73570126D01*
X187950595Y-73739644D01*
X187872574Y-73928002D01*
X187861497Y-73983688D01*
X187761998Y-73942474D01*
X187562039Y-73902700D01*
X187358161Y-73902700D01*
X187158202Y-73942474D01*
X186969844Y-74020495D01*
X186800326Y-74133763D01*
X186656163Y-74277926D01*
X186542895Y-74447444D01*
X186464874Y-74635802D01*
X186425100Y-74835761D01*
X171415336Y-74835761D01*
X171421842Y-71380961D01*
X186550100Y-71380961D01*
X186550100Y-71584839D01*
X186589874Y-71784798D01*
X186667895Y-71973156D01*
X186781163Y-72142674D01*
X186925326Y-72286837D01*
X187094844Y-72400105D01*
X187283202Y-72478126D01*
X187483161Y-72517900D01*
X187687039Y-72517900D01*
X187886998Y-72478126D01*
X188075356Y-72400105D01*
X188244874Y-72286837D01*
X188389037Y-72142674D01*
X188502305Y-71973156D01*
X188580326Y-71784798D01*
X188620100Y-71584839D01*
X188620100Y-71380961D01*
X188580326Y-71181002D01*
X188502305Y-70992644D01*
X188389037Y-70823126D01*
X188244874Y-70678963D01*
X188075356Y-70565695D01*
X187886998Y-70487674D01*
X187687039Y-70447900D01*
X187483161Y-70447900D01*
X187283202Y-70487674D01*
X187094844Y-70565695D01*
X186925326Y-70678963D01*
X186781163Y-70823126D01*
X186667895Y-70992644D01*
X186589874Y-71181002D01*
X186550100Y-71380961D01*
X171421842Y-71380961D01*
X171424319Y-70065061D01*
X196547300Y-70065061D01*
X196547300Y-70268939D01*
X196587074Y-70468898D01*
X196665095Y-70657256D01*
X196778363Y-70826774D01*
X196922526Y-70970937D01*
X197092044Y-71084205D01*
X197280402Y-71162226D01*
X197480361Y-71202000D01*
X197684239Y-71202000D01*
X197884198Y-71162226D01*
X198072556Y-71084205D01*
X198242074Y-70970937D01*
X198386237Y-70826774D01*
X198499505Y-70657256D01*
X198577526Y-70468898D01*
X198617300Y-70268939D01*
X198617300Y-70065061D01*
X198577526Y-69865102D01*
X198499505Y-69676744D01*
X198386237Y-69507226D01*
X198242074Y-69363063D01*
X198072556Y-69249795D01*
X197884198Y-69171774D01*
X197684239Y-69132000D01*
X197480361Y-69132000D01*
X197280402Y-69171774D01*
X197092044Y-69249795D01*
X196922526Y-69363063D01*
X196778363Y-69507226D01*
X196665095Y-69676744D01*
X196587074Y-69865102D01*
X196547300Y-70065061D01*
X171424319Y-70065061D01*
X171427052Y-68614261D01*
X188945300Y-68614261D01*
X188945300Y-68818139D01*
X188985074Y-69018098D01*
X189063095Y-69206456D01*
X189176363Y-69375974D01*
X189320526Y-69520137D01*
X189490044Y-69633405D01*
X189678402Y-69711426D01*
X189878361Y-69751200D01*
X190082239Y-69751200D01*
X190282198Y-69711426D01*
X190470556Y-69633405D01*
X190640074Y-69520137D01*
X190784237Y-69375974D01*
X190897505Y-69206456D01*
X190975526Y-69018098D01*
X191015300Y-68818139D01*
X191015300Y-68614261D01*
X190975526Y-68414302D01*
X190904513Y-68242861D01*
X191510600Y-68242861D01*
X191510600Y-68446739D01*
X191550374Y-68646698D01*
X191628395Y-68835056D01*
X191741663Y-69004574D01*
X191885826Y-69148737D01*
X192055344Y-69262005D01*
X192243702Y-69340026D01*
X192443661Y-69379800D01*
X192647539Y-69379800D01*
X192847498Y-69340026D01*
X193035856Y-69262005D01*
X193205374Y-69148737D01*
X193349537Y-69004574D01*
X193462805Y-68835056D01*
X193540826Y-68646698D01*
X193580600Y-68446739D01*
X193580600Y-68252487D01*
X193735574Y-68148937D01*
X193879737Y-68004774D01*
X193993005Y-67835256D01*
X194071026Y-67646898D01*
X194110800Y-67446939D01*
X194110800Y-67243061D01*
X194071026Y-67043102D01*
X193993005Y-66854744D01*
X193879737Y-66685226D01*
X193735574Y-66541063D01*
X193566056Y-66427795D01*
X193377698Y-66349774D01*
X193177739Y-66310000D01*
X192973861Y-66310000D01*
X192773902Y-66349774D01*
X192585544Y-66427795D01*
X192416026Y-66541063D01*
X192271863Y-66685226D01*
X192158595Y-66854744D01*
X192080574Y-67043102D01*
X192040800Y-67243061D01*
X192040800Y-67437313D01*
X191885826Y-67540863D01*
X191741663Y-67685026D01*
X191628395Y-67854544D01*
X191550374Y-68042902D01*
X191510600Y-68242861D01*
X190904513Y-68242861D01*
X190897505Y-68225944D01*
X190784237Y-68056426D01*
X190640074Y-67912263D01*
X190470556Y-67798995D01*
X190282198Y-67720974D01*
X190082239Y-67681200D01*
X189878361Y-67681200D01*
X189678402Y-67720974D01*
X189490044Y-67798995D01*
X189320526Y-67912263D01*
X189176363Y-68056426D01*
X189063095Y-68225944D01*
X188985074Y-68414302D01*
X188945300Y-68614261D01*
X171427052Y-68614261D01*
X171432646Y-65643761D01*
X188313900Y-65643761D01*
X188313900Y-65847639D01*
X188353674Y-66047598D01*
X188431695Y-66235956D01*
X188544963Y-66405474D01*
X188689126Y-66549637D01*
X188858644Y-66662905D01*
X189047002Y-66740926D01*
X189246961Y-66780700D01*
X189450839Y-66780700D01*
X189650798Y-66740926D01*
X189839156Y-66662905D01*
X190008674Y-66549637D01*
X190152837Y-66405474D01*
X190266105Y-66235956D01*
X190344126Y-66047598D01*
X190383900Y-65847639D01*
X190383900Y-65643761D01*
X190344126Y-65443802D01*
X190266105Y-65255444D01*
X190152837Y-65085926D01*
X190008674Y-64941763D01*
X189839156Y-64828495D01*
X189650798Y-64750474D01*
X189450839Y-64710700D01*
X189246961Y-64710700D01*
X189047002Y-64750474D01*
X188858644Y-64828495D01*
X188689126Y-64941763D01*
X188544963Y-65085926D01*
X188431695Y-65255444D01*
X188353674Y-65443802D01*
X188313900Y-65643761D01*
X171432646Y-65643761D01*
X171448357Y-57302000D01*
X174486540Y-57302000D01*
X174430986Y-57331694D01*
X174430986Y-57331694D01*
G37*
X174430986Y-57331694D02*
X174204866Y-57517266D01*
X174019294Y-57743386D01*
X173881401Y-58001366D01*
X173796487Y-58281289D01*
X173767815Y-58572400D01*
X173796487Y-58863511D01*
X173881401Y-59143434D01*
X174019294Y-59401414D01*
X174204866Y-59627534D01*
X174430986Y-59813106D01*
X174485791Y-59842400D01*
X174430986Y-59871694D01*
X174204866Y-60057266D01*
X174019294Y-60283386D01*
X173881401Y-60541366D01*
X173796487Y-60821289D01*
X173767815Y-61112400D01*
X173796487Y-61403511D01*
X173881401Y-61683434D01*
X174019294Y-61941414D01*
X174204866Y-62167534D01*
X174234687Y-62192007D01*
X174165820Y-62212898D01*
X174055506Y-62271863D01*
X173958815Y-62351215D01*
X173879463Y-62447906D01*
X173820498Y-62558220D01*
X173784188Y-62677918D01*
X173771928Y-62802400D01*
X173771928Y-64502400D01*
X173784188Y-64626882D01*
X173820498Y-64746580D01*
X173879463Y-64856894D01*
X173958815Y-64953585D01*
X174055506Y-65032937D01*
X174165820Y-65091902D01*
X174285518Y-65128212D01*
X174410000Y-65140472D01*
X176110000Y-65140472D01*
X176234482Y-65128212D01*
X176354180Y-65091902D01*
X176464494Y-65032937D01*
X176561185Y-64953585D01*
X176640537Y-64856894D01*
X176699502Y-64746580D01*
X176735812Y-64626882D01*
X176748072Y-64502400D01*
X176748072Y-62802400D01*
X176735812Y-62677918D01*
X176699502Y-62558220D01*
X176640537Y-62447906D01*
X176561185Y-62351215D01*
X176464494Y-62271863D01*
X176354180Y-62212898D01*
X176285313Y-62192007D01*
X176315134Y-62167534D01*
X176500706Y-61941414D01*
X176638599Y-61683434D01*
X176723513Y-61403511D01*
X176752185Y-61112400D01*
X176723513Y-60821289D01*
X176638599Y-60541366D01*
X176500706Y-60283386D01*
X176315134Y-60057266D01*
X176089014Y-59871694D01*
X176034209Y-59842400D01*
X176089014Y-59813106D01*
X176315134Y-59627534D01*
X176500706Y-59401414D01*
X176638599Y-59143434D01*
X176723513Y-58863511D01*
X176752185Y-58572400D01*
X176723513Y-58281289D01*
X176638599Y-58001366D01*
X176500706Y-57743386D01*
X176315134Y-57517266D01*
X176089014Y-57331694D01*
X176033460Y-57302000D01*
X182975688Y-57302000D01*
X182873401Y-57493366D01*
X182788487Y-57773289D01*
X182759815Y-58064400D01*
X182788487Y-58355511D01*
X182873401Y-58635434D01*
X183011294Y-58893414D01*
X183196866Y-59119534D01*
X183422986Y-59305106D01*
X183680966Y-59442999D01*
X183960889Y-59527913D01*
X184179050Y-59549400D01*
X184324950Y-59549400D01*
X184543111Y-59527913D01*
X184823034Y-59442999D01*
X185081014Y-59305106D01*
X185307134Y-59119534D01*
X185331607Y-59089713D01*
X185352498Y-59158580D01*
X185411463Y-59268894D01*
X185490815Y-59365585D01*
X185587506Y-59444937D01*
X185697820Y-59503902D01*
X185817518Y-59540212D01*
X185942000Y-59552472D01*
X187642000Y-59552472D01*
X187766482Y-59540212D01*
X187886180Y-59503902D01*
X187996494Y-59444937D01*
X188093185Y-59365585D01*
X188172537Y-59268894D01*
X188231502Y-59158580D01*
X188267812Y-59038882D01*
X188280072Y-58914400D01*
X188280072Y-57302000D01*
X203911185Y-57302000D01*
X203902320Y-71388533D01*
X203733739Y-71355000D01*
X203529861Y-71355000D01*
X203329902Y-71394774D01*
X203141544Y-71472795D01*
X202972026Y-71586063D01*
X202827863Y-71730226D01*
X202714595Y-71899744D01*
X202636574Y-72088102D01*
X202596800Y-72288061D01*
X202596800Y-72491939D01*
X202636574Y-72691898D01*
X202714595Y-72880256D01*
X202827863Y-73049774D01*
X202972026Y-73193937D01*
X203141544Y-73307205D01*
X203329902Y-73385226D01*
X203529861Y-73425000D01*
X203733739Y-73425000D01*
X203901059Y-73391718D01*
X203891869Y-87994249D01*
X203720034Y-87902401D01*
X203440111Y-87817487D01*
X203221950Y-87796000D01*
X203076050Y-87796000D01*
X202857889Y-87817487D01*
X202577966Y-87902401D01*
X202319986Y-88040294D01*
X202093866Y-88225866D01*
X201908294Y-88451986D01*
X201770401Y-88709966D01*
X201685487Y-88989889D01*
X201656815Y-89281000D01*
X201685487Y-89572111D01*
X201770401Y-89852034D01*
X201908294Y-90110014D01*
X202093866Y-90336134D01*
X202319986Y-90521706D01*
X202374791Y-90551000D01*
X202319986Y-90580294D01*
X202093866Y-90765866D01*
X201908294Y-90991986D01*
X201770401Y-91249966D01*
X201685487Y-91529889D01*
X201656815Y-91821000D01*
X201685487Y-92112111D01*
X201770401Y-92392034D01*
X201908294Y-92650014D01*
X202093866Y-92876134D01*
X202123687Y-92900607D01*
X202054820Y-92921498D01*
X201944506Y-92980463D01*
X201847815Y-93059815D01*
X201768463Y-93156506D01*
X201709498Y-93266820D01*
X201673188Y-93386518D01*
X201660928Y-93511000D01*
X201660928Y-95211000D01*
X201673188Y-95335482D01*
X201709498Y-95455180D01*
X201768463Y-95565494D01*
X201847815Y-95662185D01*
X201944506Y-95741537D01*
X202054820Y-95800502D01*
X202174518Y-95836812D01*
X202299000Y-95849072D01*
X203886926Y-95849072D01*
X203886614Y-96344578D01*
X193000594Y-96377269D01*
X193107896Y-96319915D01*
X193233771Y-96029977D01*
X192100000Y-94896205D01*
X190966229Y-96029977D01*
X191092104Y-96319915D01*
X191217713Y-96382623D01*
X171374647Y-96442212D01*
X171377797Y-94769319D01*
X190206935Y-94769319D01*
X190253595Y-95137625D01*
X190371211Y-95489751D01*
X190496685Y-95724496D01*
X190786623Y-95850371D01*
X191920395Y-94716600D01*
X192279605Y-94716600D01*
X193413377Y-95850371D01*
X193703315Y-95724496D01*
X193869139Y-95392338D01*
X193966975Y-95034213D01*
X193993065Y-94663881D01*
X193946405Y-94295575D01*
X193828789Y-93943449D01*
X193703315Y-93708704D01*
X193413377Y-93582829D01*
X192279605Y-94716600D01*
X191920395Y-94716600D01*
X190786623Y-93582829D01*
X190496685Y-93708704D01*
X190330861Y-94040862D01*
X190233025Y-94398987D01*
X190206935Y-94769319D01*
X171377797Y-94769319D01*
X171381303Y-92908034D01*
X171417401Y-93027034D01*
X171555294Y-93285014D01*
X171740866Y-93511134D01*
X171966986Y-93696706D01*
X172224966Y-93834599D01*
X172504889Y-93919513D01*
X172723050Y-93941000D01*
X172868950Y-93941000D01*
X173087111Y-93919513D01*
X173367034Y-93834599D01*
X173625014Y-93696706D01*
X173851134Y-93511134D01*
X174036706Y-93285014D01*
X174066000Y-93230209D01*
X174095294Y-93285014D01*
X174280866Y-93511134D01*
X174506986Y-93696706D01*
X174764966Y-93834599D01*
X175044889Y-93919513D01*
X175263050Y-93941000D01*
X175408950Y-93941000D01*
X175627111Y-93919513D01*
X175907034Y-93834599D01*
X176165014Y-93696706D01*
X176391134Y-93511134D01*
X176576706Y-93285014D01*
X176606000Y-93230209D01*
X176635294Y-93285014D01*
X176820866Y-93511134D01*
X177046986Y-93696706D01*
X177304966Y-93834599D01*
X177584889Y-93919513D01*
X177803050Y-93941000D01*
X177948950Y-93941000D01*
X178167111Y-93919513D01*
X178447034Y-93834599D01*
X178705014Y-93696706D01*
X178931134Y-93511134D01*
X179116706Y-93285014D01*
X179146000Y-93230209D01*
X179175294Y-93285014D01*
X179360866Y-93511134D01*
X179586986Y-93696706D01*
X179844966Y-93834599D01*
X180124889Y-93919513D01*
X180343050Y-93941000D01*
X180488950Y-93941000D01*
X180707111Y-93919513D01*
X180987034Y-93834599D01*
X181245014Y-93696706D01*
X181471134Y-93511134D01*
X181656706Y-93285014D01*
X181686000Y-93230209D01*
X181715294Y-93285014D01*
X181900866Y-93511134D01*
X182126986Y-93696706D01*
X182384966Y-93834599D01*
X182664889Y-93919513D01*
X182883050Y-93941000D01*
X183028950Y-93941000D01*
X183247111Y-93919513D01*
X183527034Y-93834599D01*
X183785014Y-93696706D01*
X184011134Y-93511134D01*
X184035607Y-93481313D01*
X184056498Y-93550180D01*
X184115463Y-93660494D01*
X184194815Y-93757185D01*
X184291506Y-93836537D01*
X184401820Y-93895502D01*
X184521518Y-93931812D01*
X184646000Y-93944072D01*
X186346000Y-93944072D01*
X186470482Y-93931812D01*
X186590180Y-93895502D01*
X186700494Y-93836537D01*
X186797185Y-93757185D01*
X186876537Y-93660494D01*
X186935502Y-93550180D01*
X186971812Y-93430482D01*
X186974496Y-93403223D01*
X190966229Y-93403223D01*
X192100000Y-94536995D01*
X193233771Y-93403223D01*
X193107896Y-93113285D01*
X193062579Y-93090661D01*
X197796200Y-93090661D01*
X197796200Y-93294539D01*
X197835974Y-93494498D01*
X197913995Y-93682856D01*
X198027263Y-93852374D01*
X198171426Y-93996537D01*
X198340944Y-94109805D01*
X198529302Y-94187826D01*
X198729261Y-94227600D01*
X198933139Y-94227600D01*
X199133098Y-94187826D01*
X199321456Y-94109805D01*
X199490974Y-93996537D01*
X199635137Y-93852374D01*
X199748405Y-93682856D01*
X199826426Y-93494498D01*
X199866200Y-93294539D01*
X199866200Y-93090661D01*
X199826426Y-92890702D01*
X199748405Y-92702344D01*
X199635137Y-92532826D01*
X199490974Y-92388663D01*
X199321456Y-92275395D01*
X199133098Y-92197374D01*
X198933139Y-92157600D01*
X198729261Y-92157600D01*
X198529302Y-92197374D01*
X198340944Y-92275395D01*
X198171426Y-92388663D01*
X198027263Y-92532826D01*
X197913995Y-92702344D01*
X197835974Y-92890702D01*
X197796200Y-93090661D01*
X193062579Y-93090661D01*
X192775738Y-92947461D01*
X192417613Y-92849625D01*
X192047281Y-92823535D01*
X191678975Y-92870195D01*
X191326849Y-92987811D01*
X191092104Y-93113285D01*
X190966229Y-93403223D01*
X186974496Y-93403223D01*
X186984072Y-93306000D01*
X186984072Y-91606000D01*
X186971812Y-91481518D01*
X186935502Y-91361820D01*
X186876537Y-91251506D01*
X186797185Y-91154815D01*
X186700494Y-91075463D01*
X186590180Y-91016498D01*
X186470482Y-90980188D01*
X186346000Y-90967928D01*
X184646000Y-90967928D01*
X184521518Y-90980188D01*
X184401820Y-91016498D01*
X184291506Y-91075463D01*
X184194815Y-91154815D01*
X184115463Y-91251506D01*
X184056498Y-91361820D01*
X184035607Y-91430687D01*
X184011134Y-91400866D01*
X183785014Y-91215294D01*
X183527034Y-91077401D01*
X183247111Y-90992487D01*
X183028950Y-90971000D01*
X182883050Y-90971000D01*
X182664889Y-90992487D01*
X182384966Y-91077401D01*
X182126986Y-91215294D01*
X181900866Y-91400866D01*
X181715294Y-91626986D01*
X181686000Y-91681791D01*
X181656706Y-91626986D01*
X181471134Y-91400866D01*
X181245014Y-91215294D01*
X180987034Y-91077401D01*
X180707111Y-90992487D01*
X180488950Y-90971000D01*
X180343050Y-90971000D01*
X180124889Y-90992487D01*
X179844966Y-91077401D01*
X179586986Y-91215294D01*
X179360866Y-91400866D01*
X179175294Y-91626986D01*
X179146000Y-91681791D01*
X179116706Y-91626986D01*
X178931134Y-91400866D01*
X178705014Y-91215294D01*
X178447034Y-91077401D01*
X178167111Y-90992487D01*
X177948950Y-90971000D01*
X177803050Y-90971000D01*
X177584889Y-90992487D01*
X177304966Y-91077401D01*
X177046986Y-91215294D01*
X176820866Y-91400866D01*
X176635294Y-91626986D01*
X176606000Y-91681791D01*
X176576706Y-91626986D01*
X176391134Y-91400866D01*
X176165014Y-91215294D01*
X175907034Y-91077401D01*
X175627111Y-90992487D01*
X175408950Y-90971000D01*
X175263050Y-90971000D01*
X175044889Y-90992487D01*
X174764966Y-91077401D01*
X174506986Y-91215294D01*
X174280866Y-91400866D01*
X174095294Y-91626986D01*
X174066000Y-91681791D01*
X174036706Y-91626986D01*
X173851134Y-91400866D01*
X173625014Y-91215294D01*
X173367034Y-91077401D01*
X173087111Y-90992487D01*
X172868950Y-90971000D01*
X172723050Y-90971000D01*
X172504889Y-90992487D01*
X172224966Y-91077401D01*
X171966986Y-91215294D01*
X171740866Y-91400866D01*
X171555294Y-91626986D01*
X171417401Y-91884966D01*
X171383016Y-91998318D01*
X171398984Y-83518761D01*
X189136800Y-83518761D01*
X189136800Y-83722639D01*
X189176574Y-83922598D01*
X189254595Y-84110956D01*
X189367863Y-84280474D01*
X189512026Y-84424637D01*
X189681544Y-84537905D01*
X189869902Y-84615926D01*
X190069861Y-84655700D01*
X190273739Y-84655700D01*
X190473698Y-84615926D01*
X190662056Y-84537905D01*
X190831574Y-84424637D01*
X190975737Y-84280474D01*
X191089005Y-84110956D01*
X191167026Y-83922598D01*
X191206800Y-83722639D01*
X191206800Y-83518761D01*
X191167026Y-83318802D01*
X191089005Y-83130444D01*
X190975737Y-82960926D01*
X190831574Y-82816763D01*
X190662056Y-82703495D01*
X190473698Y-82625474D01*
X190273739Y-82585700D01*
X190069861Y-82585700D01*
X189869902Y-82625474D01*
X189681544Y-82703495D01*
X189512026Y-82816763D01*
X189367863Y-82960926D01*
X189254595Y-83130444D01*
X189176574Y-83318802D01*
X189136800Y-83518761D01*
X171398984Y-83518761D01*
X171404023Y-80843261D01*
X184481900Y-80843261D01*
X184481900Y-81047139D01*
X184521674Y-81247098D01*
X184599695Y-81435456D01*
X184712963Y-81604974D01*
X184857126Y-81749137D01*
X185026644Y-81862405D01*
X185215002Y-81940426D01*
X185414961Y-81980200D01*
X185618839Y-81980200D01*
X185818798Y-81940426D01*
X186007156Y-81862405D01*
X186122610Y-81785261D01*
X197715700Y-81785261D01*
X197715700Y-81989139D01*
X197755474Y-82189098D01*
X197833495Y-82377456D01*
X197946763Y-82546974D01*
X198090926Y-82691137D01*
X198260444Y-82804405D01*
X198448802Y-82882426D01*
X198648761Y-82922200D01*
X198852639Y-82922200D01*
X199052598Y-82882426D01*
X199240956Y-82804405D01*
X199410474Y-82691137D01*
X199554637Y-82546974D01*
X199667905Y-82377456D01*
X199745926Y-82189098D01*
X199785700Y-81989139D01*
X199785700Y-81785261D01*
X199745926Y-81585302D01*
X199667905Y-81396944D01*
X199554637Y-81227426D01*
X199410474Y-81083263D01*
X199240956Y-80969995D01*
X199052598Y-80891974D01*
X198852639Y-80852200D01*
X198648761Y-80852200D01*
X198448802Y-80891974D01*
X198260444Y-80969995D01*
X198090926Y-81083263D01*
X197946763Y-81227426D01*
X197833495Y-81396944D01*
X197755474Y-81585302D01*
X197715700Y-81785261D01*
X186122610Y-81785261D01*
X186176674Y-81749137D01*
X186320837Y-81604974D01*
X186434105Y-81435456D01*
X186512126Y-81247098D01*
X186551900Y-81047139D01*
X186551900Y-80843261D01*
X186512126Y-80643302D01*
X186434105Y-80454944D01*
X186320837Y-80285426D01*
X186176674Y-80141263D01*
X186007156Y-80027995D01*
X185818798Y-79949974D01*
X185618839Y-79910200D01*
X185414961Y-79910200D01*
X185215002Y-79949974D01*
X185026644Y-80027995D01*
X184857126Y-80141263D01*
X184712963Y-80285426D01*
X184599695Y-80454944D01*
X184521674Y-80643302D01*
X184481900Y-80843261D01*
X171404023Y-80843261D01*
X171409257Y-78063761D01*
X184607100Y-78063761D01*
X184607100Y-78267639D01*
X184646874Y-78467598D01*
X184724895Y-78655956D01*
X184838163Y-78825474D01*
X184982326Y-78969637D01*
X185151844Y-79082905D01*
X185340202Y-79160926D01*
X185540161Y-79200700D01*
X185744039Y-79200700D01*
X185943998Y-79160926D01*
X186132356Y-79082905D01*
X186301874Y-78969637D01*
X186446037Y-78825474D01*
X186559305Y-78655956D01*
X186637326Y-78467598D01*
X186665121Y-78327861D01*
X192987000Y-78327861D01*
X192987000Y-78531739D01*
X193026774Y-78731698D01*
X193104795Y-78920056D01*
X193218063Y-79089574D01*
X193362226Y-79233737D01*
X193531744Y-79347005D01*
X193720102Y-79425026D01*
X193920061Y-79464800D01*
X194123939Y-79464800D01*
X194323898Y-79425026D01*
X194512256Y-79347005D01*
X194681774Y-79233737D01*
X194825937Y-79089574D01*
X194828484Y-79085761D01*
X197534400Y-79085761D01*
X197534400Y-79289639D01*
X197574174Y-79489598D01*
X197652195Y-79677956D01*
X197765463Y-79847474D01*
X197909626Y-79991637D01*
X198079144Y-80104905D01*
X198267502Y-80182926D01*
X198467461Y-80222700D01*
X198671339Y-80222700D01*
X198871298Y-80182926D01*
X199059656Y-80104905D01*
X199229174Y-79991637D01*
X199373337Y-79847474D01*
X199486605Y-79677956D01*
X199564626Y-79489598D01*
X199604400Y-79289639D01*
X199604400Y-79085761D01*
X199564626Y-78885802D01*
X199486605Y-78697444D01*
X199373337Y-78527926D01*
X199229174Y-78383763D01*
X199059656Y-78270495D01*
X198871298Y-78192474D01*
X198671339Y-78152700D01*
X198467461Y-78152700D01*
X198267502Y-78192474D01*
X198079144Y-78270495D01*
X197909626Y-78383763D01*
X197765463Y-78527926D01*
X197652195Y-78697444D01*
X197574174Y-78885802D01*
X197534400Y-79085761D01*
X194828484Y-79085761D01*
X194939205Y-78920056D01*
X195017226Y-78731698D01*
X195057000Y-78531739D01*
X195057000Y-78327861D01*
X195039374Y-78239250D01*
X195071463Y-78287274D01*
X195215626Y-78431437D01*
X195385144Y-78544705D01*
X195573502Y-78622726D01*
X195773461Y-78662500D01*
X195977339Y-78662500D01*
X196177298Y-78622726D01*
X196365656Y-78544705D01*
X196535174Y-78431437D01*
X196679337Y-78287274D01*
X196792605Y-78117756D01*
X196870626Y-77929398D01*
X196910400Y-77729439D01*
X196910400Y-77525561D01*
X196870626Y-77325602D01*
X196792605Y-77137244D01*
X196679337Y-76967726D01*
X196535174Y-76823563D01*
X196501649Y-76801162D01*
X196557637Y-76745174D01*
X196670905Y-76575656D01*
X196748926Y-76387298D01*
X196785056Y-76205660D01*
X196816398Y-76199426D01*
X197004756Y-76121405D01*
X197174274Y-76008137D01*
X197318437Y-75863974D01*
X197431705Y-75694456D01*
X197509726Y-75506098D01*
X197549500Y-75306139D01*
X197549500Y-75102261D01*
X197509726Y-74902302D01*
X197496816Y-74871136D01*
X197508444Y-74878905D01*
X197696802Y-74956926D01*
X197896761Y-74996700D01*
X198100639Y-74996700D01*
X198300598Y-74956926D01*
X198488956Y-74878905D01*
X198658474Y-74765637D01*
X198802637Y-74621474D01*
X198915905Y-74451956D01*
X198993926Y-74263598D01*
X199033700Y-74063639D01*
X199033700Y-73859761D01*
X198993926Y-73659802D01*
X198915905Y-73471444D01*
X198802637Y-73301926D01*
X198658474Y-73157763D01*
X198488956Y-73044495D01*
X198300598Y-72966474D01*
X198100639Y-72926700D01*
X197896761Y-72926700D01*
X197696802Y-72966474D01*
X197508444Y-73044495D01*
X197338926Y-73157763D01*
X197194763Y-73301926D01*
X197129900Y-73399001D01*
X197129900Y-73206361D01*
X197090126Y-73006402D01*
X197012105Y-72818044D01*
X196898837Y-72648526D01*
X196754674Y-72504363D01*
X196585156Y-72391095D01*
X196396798Y-72313074D01*
X196196839Y-72273300D01*
X195992961Y-72273300D01*
X195793002Y-72313074D01*
X195604644Y-72391095D01*
X195435126Y-72504363D01*
X195290963Y-72648526D01*
X195177695Y-72818044D01*
X195099674Y-73006402D01*
X195059900Y-73206361D01*
X195059900Y-73410239D01*
X195099674Y-73610198D01*
X195177695Y-73798556D01*
X195290963Y-73968074D01*
X195435126Y-74112237D01*
X195604644Y-74225505D01*
X195793002Y-74303526D01*
X195952132Y-74335179D01*
X195854726Y-74400263D01*
X195710563Y-74544426D01*
X195597295Y-74713944D01*
X195519274Y-74902302D01*
X195483144Y-75083940D01*
X195451802Y-75090174D01*
X195263444Y-75168195D01*
X195093926Y-75281463D01*
X194949763Y-75425626D01*
X194836495Y-75595144D01*
X194758474Y-75783502D01*
X194718700Y-75983461D01*
X194718700Y-76187339D01*
X194758474Y-76387298D01*
X194836495Y-76575656D01*
X194949763Y-76745174D01*
X195093926Y-76889337D01*
X195127451Y-76911738D01*
X195071463Y-76967726D01*
X194958195Y-77137244D01*
X194880174Y-77325602D01*
X194840400Y-77525561D01*
X194840400Y-77729439D01*
X194858026Y-77818050D01*
X194825937Y-77770026D01*
X194681774Y-77625863D01*
X194512256Y-77512595D01*
X194323898Y-77434574D01*
X194123939Y-77394800D01*
X193920061Y-77394800D01*
X193720102Y-77434574D01*
X193531744Y-77512595D01*
X193362226Y-77625863D01*
X193218063Y-77770026D01*
X193104795Y-77939544D01*
X193026774Y-78127902D01*
X192987000Y-78327861D01*
X186665121Y-78327861D01*
X186677100Y-78267639D01*
X186677100Y-78063761D01*
X186637326Y-77863802D01*
X186559305Y-77675444D01*
X186446037Y-77505926D01*
X186301874Y-77361763D01*
X186132356Y-77248495D01*
X185943998Y-77170474D01*
X185744039Y-77130700D01*
X185540161Y-77130700D01*
X185340202Y-77170474D01*
X185151844Y-77248495D01*
X184982326Y-77361763D01*
X184838163Y-77505926D01*
X184724895Y-77675444D01*
X184646874Y-77863802D01*
X184607100Y-78063761D01*
X171409257Y-78063761D01*
X171415336Y-74835761D01*
X186425100Y-74835761D01*
X186425100Y-75039639D01*
X186464874Y-75239598D01*
X186542895Y-75427956D01*
X186656163Y-75597474D01*
X186800326Y-75741637D01*
X186969844Y-75854905D01*
X187158202Y-75932926D01*
X187358161Y-75972700D01*
X187562039Y-75972700D01*
X187761998Y-75932926D01*
X187950356Y-75854905D01*
X188119874Y-75741637D01*
X188264037Y-75597474D01*
X188377305Y-75427956D01*
X188455326Y-75239598D01*
X188466403Y-75183912D01*
X188565902Y-75225126D01*
X188765861Y-75264900D01*
X188969739Y-75264900D01*
X189169698Y-75225126D01*
X189358056Y-75147105D01*
X189527574Y-75033837D01*
X189671737Y-74889674D01*
X189785005Y-74720156D01*
X189863026Y-74531798D01*
X189902800Y-74331839D01*
X189902800Y-74127961D01*
X189863026Y-73928002D01*
X189785005Y-73739644D01*
X189671737Y-73570126D01*
X189527574Y-73425963D01*
X189358056Y-73312695D01*
X189169698Y-73234674D01*
X188969739Y-73194900D01*
X188765861Y-73194900D01*
X188565902Y-73234674D01*
X188377544Y-73312695D01*
X188208026Y-73425963D01*
X188063863Y-73570126D01*
X187950595Y-73739644D01*
X187872574Y-73928002D01*
X187861497Y-73983688D01*
X187761998Y-73942474D01*
X187562039Y-73902700D01*
X187358161Y-73902700D01*
X187158202Y-73942474D01*
X186969844Y-74020495D01*
X186800326Y-74133763D01*
X186656163Y-74277926D01*
X186542895Y-74447444D01*
X186464874Y-74635802D01*
X186425100Y-74835761D01*
X171415336Y-74835761D01*
X171421842Y-71380961D01*
X186550100Y-71380961D01*
X186550100Y-71584839D01*
X186589874Y-71784798D01*
X186667895Y-71973156D01*
X186781163Y-72142674D01*
X186925326Y-72286837D01*
X187094844Y-72400105D01*
X187283202Y-72478126D01*
X187483161Y-72517900D01*
X187687039Y-72517900D01*
X187886998Y-72478126D01*
X188075356Y-72400105D01*
X188244874Y-72286837D01*
X188389037Y-72142674D01*
X188502305Y-71973156D01*
X188580326Y-71784798D01*
X188620100Y-71584839D01*
X188620100Y-71380961D01*
X188580326Y-71181002D01*
X188502305Y-70992644D01*
X188389037Y-70823126D01*
X188244874Y-70678963D01*
X188075356Y-70565695D01*
X187886998Y-70487674D01*
X187687039Y-70447900D01*
X187483161Y-70447900D01*
X187283202Y-70487674D01*
X187094844Y-70565695D01*
X186925326Y-70678963D01*
X186781163Y-70823126D01*
X186667895Y-70992644D01*
X186589874Y-71181002D01*
X186550100Y-71380961D01*
X171421842Y-71380961D01*
X171424319Y-70065061D01*
X196547300Y-70065061D01*
X196547300Y-70268939D01*
X196587074Y-70468898D01*
X196665095Y-70657256D01*
X196778363Y-70826774D01*
X196922526Y-70970937D01*
X197092044Y-71084205D01*
X197280402Y-71162226D01*
X197480361Y-71202000D01*
X197684239Y-71202000D01*
X197884198Y-71162226D01*
X198072556Y-71084205D01*
X198242074Y-70970937D01*
X198386237Y-70826774D01*
X198499505Y-70657256D01*
X198577526Y-70468898D01*
X198617300Y-70268939D01*
X198617300Y-70065061D01*
X198577526Y-69865102D01*
X198499505Y-69676744D01*
X198386237Y-69507226D01*
X198242074Y-69363063D01*
X198072556Y-69249795D01*
X197884198Y-69171774D01*
X197684239Y-69132000D01*
X197480361Y-69132000D01*
X197280402Y-69171774D01*
X197092044Y-69249795D01*
X196922526Y-69363063D01*
X196778363Y-69507226D01*
X196665095Y-69676744D01*
X196587074Y-69865102D01*
X196547300Y-70065061D01*
X171424319Y-70065061D01*
X171427052Y-68614261D01*
X188945300Y-68614261D01*
X188945300Y-68818139D01*
X188985074Y-69018098D01*
X189063095Y-69206456D01*
X189176363Y-69375974D01*
X189320526Y-69520137D01*
X189490044Y-69633405D01*
X189678402Y-69711426D01*
X189878361Y-69751200D01*
X190082239Y-69751200D01*
X190282198Y-69711426D01*
X190470556Y-69633405D01*
X190640074Y-69520137D01*
X190784237Y-69375974D01*
X190897505Y-69206456D01*
X190975526Y-69018098D01*
X191015300Y-68818139D01*
X191015300Y-68614261D01*
X190975526Y-68414302D01*
X190904513Y-68242861D01*
X191510600Y-68242861D01*
X191510600Y-68446739D01*
X191550374Y-68646698D01*
X191628395Y-68835056D01*
X191741663Y-69004574D01*
X191885826Y-69148737D01*
X192055344Y-69262005D01*
X192243702Y-69340026D01*
X192443661Y-69379800D01*
X192647539Y-69379800D01*
X192847498Y-69340026D01*
X193035856Y-69262005D01*
X193205374Y-69148737D01*
X193349537Y-69004574D01*
X193462805Y-68835056D01*
X193540826Y-68646698D01*
X193580600Y-68446739D01*
X193580600Y-68252487D01*
X193735574Y-68148937D01*
X193879737Y-68004774D01*
X193993005Y-67835256D01*
X194071026Y-67646898D01*
X194110800Y-67446939D01*
X194110800Y-67243061D01*
X194071026Y-67043102D01*
X193993005Y-66854744D01*
X193879737Y-66685226D01*
X193735574Y-66541063D01*
X193566056Y-66427795D01*
X193377698Y-66349774D01*
X193177739Y-66310000D01*
X192973861Y-66310000D01*
X192773902Y-66349774D01*
X192585544Y-66427795D01*
X192416026Y-66541063D01*
X192271863Y-66685226D01*
X192158595Y-66854744D01*
X192080574Y-67043102D01*
X192040800Y-67243061D01*
X192040800Y-67437313D01*
X191885826Y-67540863D01*
X191741663Y-67685026D01*
X191628395Y-67854544D01*
X191550374Y-68042902D01*
X191510600Y-68242861D01*
X190904513Y-68242861D01*
X190897505Y-68225944D01*
X190784237Y-68056426D01*
X190640074Y-67912263D01*
X190470556Y-67798995D01*
X190282198Y-67720974D01*
X190082239Y-67681200D01*
X189878361Y-67681200D01*
X189678402Y-67720974D01*
X189490044Y-67798995D01*
X189320526Y-67912263D01*
X189176363Y-68056426D01*
X189063095Y-68225944D01*
X188985074Y-68414302D01*
X188945300Y-68614261D01*
X171427052Y-68614261D01*
X171432646Y-65643761D01*
X188313900Y-65643761D01*
X188313900Y-65847639D01*
X188353674Y-66047598D01*
X188431695Y-66235956D01*
X188544963Y-66405474D01*
X188689126Y-66549637D01*
X188858644Y-66662905D01*
X189047002Y-66740926D01*
X189246961Y-66780700D01*
X189450839Y-66780700D01*
X189650798Y-66740926D01*
X189839156Y-66662905D01*
X190008674Y-66549637D01*
X190152837Y-66405474D01*
X190266105Y-66235956D01*
X190344126Y-66047598D01*
X190383900Y-65847639D01*
X190383900Y-65643761D01*
X190344126Y-65443802D01*
X190266105Y-65255444D01*
X190152837Y-65085926D01*
X190008674Y-64941763D01*
X189839156Y-64828495D01*
X189650798Y-64750474D01*
X189450839Y-64710700D01*
X189246961Y-64710700D01*
X189047002Y-64750474D01*
X188858644Y-64828495D01*
X188689126Y-64941763D01*
X188544963Y-65085926D01*
X188431695Y-65255444D01*
X188353674Y-65443802D01*
X188313900Y-65643761D01*
X171432646Y-65643761D01*
X171448357Y-57302000D01*
X174486540Y-57302000D01*
X174430986Y-57331694D01*
M02*
