G04 #@! TF.GenerationSoftware,KiCad,Pcbnew,(5.1.4)-1*
G04 #@! TF.CreationDate,2021-02-14T21:55:27+01:00*
G04 #@! TF.ProjectId,Atari XL s-video,41746172-6920-4584-9c20-732d76696465,rev?*
G04 #@! TF.SameCoordinates,Original*
G04 #@! TF.FileFunction,Soldermask,Bot*
G04 #@! TF.FilePolarity,Negative*
%FSLAX46Y46*%
G04 Gerber Fmt 4.6, Leading zero omitted, Abs format (unit mm)*
G04 Created by KiCad (PCBNEW (5.1.4)-1) date 2021-02-14 21:55:27*
%MOMM*%
%LPD*%
G04 APERTURE LIST*
%ADD10C,0.100000*%
G04 APERTURE END LIST*
D10*
G36*
X192479393Y-93465904D02*
G01*
X192716101Y-93563952D01*
X192716103Y-93563953D01*
X192929135Y-93706296D01*
X193110304Y-93887465D01*
X193252647Y-94100497D01*
X193252648Y-94100499D01*
X193350696Y-94337207D01*
X193400680Y-94588493D01*
X193400680Y-94844707D01*
X193350696Y-95095993D01*
X193281933Y-95262000D01*
X193252647Y-95332703D01*
X193110304Y-95545735D01*
X192929135Y-95726904D01*
X192716103Y-95869247D01*
X192716102Y-95869248D01*
X192716101Y-95869248D01*
X192479393Y-95967296D01*
X192228107Y-96017280D01*
X191971893Y-96017280D01*
X191720607Y-95967296D01*
X191483899Y-95869248D01*
X191483898Y-95869248D01*
X191483897Y-95869247D01*
X191270865Y-95726904D01*
X191089696Y-95545735D01*
X190947353Y-95332703D01*
X190918067Y-95262000D01*
X190849304Y-95095993D01*
X190799320Y-94844707D01*
X190799320Y-94588493D01*
X190849304Y-94337207D01*
X190947352Y-94100499D01*
X190947353Y-94100497D01*
X191089696Y-93887465D01*
X191270865Y-93706296D01*
X191483897Y-93563953D01*
X191483899Y-93563952D01*
X191720607Y-93465904D01*
X191971893Y-93415920D01*
X192228107Y-93415920D01*
X192479393Y-93465904D01*
X192479393Y-93465904D01*
G37*
G36*
X204050000Y-95262000D02*
G01*
X202248000Y-95262000D01*
X202248000Y-93460000D01*
X204050000Y-93460000D01*
X204050000Y-95262000D01*
X204050000Y-95262000D01*
G37*
G36*
X180526443Y-91561519D02*
G01*
X180592627Y-91568037D01*
X180762466Y-91619557D01*
X180918991Y-91703222D01*
X180954729Y-91732552D01*
X181056186Y-91815814D01*
X181139448Y-91917271D01*
X181168778Y-91953009D01*
X181252443Y-92109534D01*
X181303963Y-92279373D01*
X181321359Y-92456000D01*
X181303963Y-92632627D01*
X181252443Y-92802466D01*
X181168778Y-92958991D01*
X181139448Y-92994729D01*
X181056186Y-93096186D01*
X180954729Y-93179448D01*
X180918991Y-93208778D01*
X180762466Y-93292443D01*
X180592627Y-93343963D01*
X180526442Y-93350482D01*
X180460260Y-93357000D01*
X180371740Y-93357000D01*
X180305558Y-93350482D01*
X180239373Y-93343963D01*
X180069534Y-93292443D01*
X179913009Y-93208778D01*
X179877271Y-93179448D01*
X179775814Y-93096186D01*
X179692552Y-92994729D01*
X179663222Y-92958991D01*
X179579557Y-92802466D01*
X179528037Y-92632627D01*
X179510641Y-92456000D01*
X179528037Y-92279373D01*
X179579557Y-92109534D01*
X179663222Y-91953009D01*
X179692552Y-91917271D01*
X179775814Y-91815814D01*
X179877271Y-91732552D01*
X179913009Y-91703222D01*
X180069534Y-91619557D01*
X180239373Y-91568037D01*
X180305557Y-91561519D01*
X180371740Y-91555000D01*
X180460260Y-91555000D01*
X180526443Y-91561519D01*
X180526443Y-91561519D01*
G37*
G36*
X186397000Y-93357000D02*
G01*
X184595000Y-93357000D01*
X184595000Y-91555000D01*
X186397000Y-91555000D01*
X186397000Y-93357000D01*
X186397000Y-93357000D01*
G37*
G36*
X183066443Y-91561519D02*
G01*
X183132627Y-91568037D01*
X183302466Y-91619557D01*
X183458991Y-91703222D01*
X183494729Y-91732552D01*
X183596186Y-91815814D01*
X183679448Y-91917271D01*
X183708778Y-91953009D01*
X183792443Y-92109534D01*
X183843963Y-92279373D01*
X183861359Y-92456000D01*
X183843963Y-92632627D01*
X183792443Y-92802466D01*
X183708778Y-92958991D01*
X183679448Y-92994729D01*
X183596186Y-93096186D01*
X183494729Y-93179448D01*
X183458991Y-93208778D01*
X183302466Y-93292443D01*
X183132627Y-93343963D01*
X183066442Y-93350482D01*
X183000260Y-93357000D01*
X182911740Y-93357000D01*
X182845558Y-93350482D01*
X182779373Y-93343963D01*
X182609534Y-93292443D01*
X182453009Y-93208778D01*
X182417271Y-93179448D01*
X182315814Y-93096186D01*
X182232552Y-92994729D01*
X182203222Y-92958991D01*
X182119557Y-92802466D01*
X182068037Y-92632627D01*
X182050641Y-92456000D01*
X182068037Y-92279373D01*
X182119557Y-92109534D01*
X182203222Y-91953009D01*
X182232552Y-91917271D01*
X182315814Y-91815814D01*
X182417271Y-91732552D01*
X182453009Y-91703222D01*
X182609534Y-91619557D01*
X182779373Y-91568037D01*
X182845557Y-91561519D01*
X182911740Y-91555000D01*
X183000260Y-91555000D01*
X183066443Y-91561519D01*
X183066443Y-91561519D01*
G37*
G36*
X172906443Y-91561519D02*
G01*
X172972627Y-91568037D01*
X173142466Y-91619557D01*
X173298991Y-91703222D01*
X173334729Y-91732552D01*
X173436186Y-91815814D01*
X173519448Y-91917271D01*
X173548778Y-91953009D01*
X173632443Y-92109534D01*
X173683963Y-92279373D01*
X173701359Y-92456000D01*
X173683963Y-92632627D01*
X173632443Y-92802466D01*
X173548778Y-92958991D01*
X173519448Y-92994729D01*
X173436186Y-93096186D01*
X173334729Y-93179448D01*
X173298991Y-93208778D01*
X173142466Y-93292443D01*
X172972627Y-93343963D01*
X172906442Y-93350482D01*
X172840260Y-93357000D01*
X172751740Y-93357000D01*
X172685558Y-93350482D01*
X172619373Y-93343963D01*
X172449534Y-93292443D01*
X172293009Y-93208778D01*
X172257271Y-93179448D01*
X172155814Y-93096186D01*
X172072552Y-92994729D01*
X172043222Y-92958991D01*
X171959557Y-92802466D01*
X171908037Y-92632627D01*
X171890641Y-92456000D01*
X171908037Y-92279373D01*
X171959557Y-92109534D01*
X172043222Y-91953009D01*
X172072552Y-91917271D01*
X172155814Y-91815814D01*
X172257271Y-91732552D01*
X172293009Y-91703222D01*
X172449534Y-91619557D01*
X172619373Y-91568037D01*
X172685557Y-91561519D01*
X172751740Y-91555000D01*
X172840260Y-91555000D01*
X172906443Y-91561519D01*
X172906443Y-91561519D01*
G37*
G36*
X175446443Y-91561519D02*
G01*
X175512627Y-91568037D01*
X175682466Y-91619557D01*
X175838991Y-91703222D01*
X175874729Y-91732552D01*
X175976186Y-91815814D01*
X176059448Y-91917271D01*
X176088778Y-91953009D01*
X176172443Y-92109534D01*
X176223963Y-92279373D01*
X176241359Y-92456000D01*
X176223963Y-92632627D01*
X176172443Y-92802466D01*
X176088778Y-92958991D01*
X176059448Y-92994729D01*
X175976186Y-93096186D01*
X175874729Y-93179448D01*
X175838991Y-93208778D01*
X175682466Y-93292443D01*
X175512627Y-93343963D01*
X175446442Y-93350482D01*
X175380260Y-93357000D01*
X175291740Y-93357000D01*
X175225558Y-93350482D01*
X175159373Y-93343963D01*
X174989534Y-93292443D01*
X174833009Y-93208778D01*
X174797271Y-93179448D01*
X174695814Y-93096186D01*
X174612552Y-92994729D01*
X174583222Y-92958991D01*
X174499557Y-92802466D01*
X174448037Y-92632627D01*
X174430641Y-92456000D01*
X174448037Y-92279373D01*
X174499557Y-92109534D01*
X174583222Y-91953009D01*
X174612552Y-91917271D01*
X174695814Y-91815814D01*
X174797271Y-91732552D01*
X174833009Y-91703222D01*
X174989534Y-91619557D01*
X175159373Y-91568037D01*
X175225557Y-91561519D01*
X175291740Y-91555000D01*
X175380260Y-91555000D01*
X175446443Y-91561519D01*
X175446443Y-91561519D01*
G37*
G36*
X177986443Y-91561519D02*
G01*
X178052627Y-91568037D01*
X178222466Y-91619557D01*
X178378991Y-91703222D01*
X178414729Y-91732552D01*
X178516186Y-91815814D01*
X178599448Y-91917271D01*
X178628778Y-91953009D01*
X178712443Y-92109534D01*
X178763963Y-92279373D01*
X178781359Y-92456000D01*
X178763963Y-92632627D01*
X178712443Y-92802466D01*
X178628778Y-92958991D01*
X178599448Y-92994729D01*
X178516186Y-93096186D01*
X178414729Y-93179448D01*
X178378991Y-93208778D01*
X178222466Y-93292443D01*
X178052627Y-93343963D01*
X177986442Y-93350482D01*
X177920260Y-93357000D01*
X177831740Y-93357000D01*
X177765558Y-93350482D01*
X177699373Y-93343963D01*
X177529534Y-93292443D01*
X177373009Y-93208778D01*
X177337271Y-93179448D01*
X177235814Y-93096186D01*
X177152552Y-92994729D01*
X177123222Y-92958991D01*
X177039557Y-92802466D01*
X176988037Y-92632627D01*
X176970641Y-92456000D01*
X176988037Y-92279373D01*
X177039557Y-92109534D01*
X177123222Y-91953009D01*
X177152552Y-91917271D01*
X177235814Y-91815814D01*
X177337271Y-91732552D01*
X177373009Y-91703222D01*
X177529534Y-91619557D01*
X177699373Y-91568037D01*
X177765557Y-91561519D01*
X177831740Y-91555000D01*
X177920260Y-91555000D01*
X177986443Y-91561519D01*
X177986443Y-91561519D01*
G37*
G36*
X203259443Y-90926519D02*
G01*
X203325627Y-90933037D01*
X203495466Y-90984557D01*
X203651991Y-91068222D01*
X203687729Y-91097552D01*
X203789186Y-91180814D01*
X203872448Y-91282271D01*
X203901778Y-91318009D01*
X203985443Y-91474534D01*
X204036963Y-91644373D01*
X204054359Y-91821000D01*
X204036963Y-91997627D01*
X203985443Y-92167466D01*
X203901778Y-92323991D01*
X203872448Y-92359729D01*
X203789186Y-92461186D01*
X203687729Y-92544448D01*
X203651991Y-92573778D01*
X203495466Y-92657443D01*
X203325627Y-92708963D01*
X203259443Y-92715481D01*
X203193260Y-92722000D01*
X203104740Y-92722000D01*
X203038557Y-92715481D01*
X202972373Y-92708963D01*
X202802534Y-92657443D01*
X202646009Y-92573778D01*
X202610271Y-92544448D01*
X202508814Y-92461186D01*
X202425552Y-92359729D01*
X202396222Y-92323991D01*
X202312557Y-92167466D01*
X202261037Y-91997627D01*
X202243641Y-91821000D01*
X202261037Y-91644373D01*
X202312557Y-91474534D01*
X202396222Y-91318009D01*
X202425552Y-91282271D01*
X202508814Y-91180814D01*
X202610271Y-91097552D01*
X202646009Y-91068222D01*
X202802534Y-90984557D01*
X202972373Y-90933037D01*
X203038557Y-90926519D01*
X203104740Y-90920000D01*
X203193260Y-90920000D01*
X203259443Y-90926519D01*
X203259443Y-90926519D01*
G37*
G36*
X203259442Y-88386518D02*
G01*
X203325627Y-88393037D01*
X203495466Y-88444557D01*
X203651991Y-88528222D01*
X203687729Y-88557552D01*
X203789186Y-88640814D01*
X203872448Y-88742271D01*
X203901778Y-88778009D01*
X203985443Y-88934534D01*
X204036963Y-89104373D01*
X204054359Y-89281000D01*
X204036963Y-89457627D01*
X203985443Y-89627466D01*
X203901778Y-89783991D01*
X203872448Y-89819729D01*
X203789186Y-89921186D01*
X203687729Y-90004448D01*
X203651991Y-90033778D01*
X203495466Y-90117443D01*
X203325627Y-90168963D01*
X203259442Y-90175482D01*
X203193260Y-90182000D01*
X203104740Y-90182000D01*
X203038557Y-90175481D01*
X202972373Y-90168963D01*
X202802534Y-90117443D01*
X202646009Y-90033778D01*
X202610271Y-90004448D01*
X202508814Y-89921186D01*
X202425552Y-89819729D01*
X202396222Y-89783991D01*
X202312557Y-89627466D01*
X202261037Y-89457627D01*
X202243641Y-89281000D01*
X202261037Y-89104373D01*
X202312557Y-88934534D01*
X202396222Y-88778009D01*
X202425552Y-88742271D01*
X202508814Y-88640814D01*
X202610271Y-88557552D01*
X202646009Y-88528222D01*
X202802534Y-88444557D01*
X202972373Y-88393037D01*
X203038558Y-88386518D01*
X203104740Y-88380000D01*
X203193260Y-88380000D01*
X203259442Y-88386518D01*
X203259442Y-88386518D01*
G37*
G36*
X192014000Y-82492800D02*
G01*
X190662000Y-82492800D01*
X190662000Y-80890800D01*
X192014000Y-80890800D01*
X192014000Y-82492800D01*
X192014000Y-82492800D01*
G37*
G36*
X187518000Y-82492800D02*
G01*
X186166000Y-82492800D01*
X186166000Y-80890800D01*
X187518000Y-80890800D01*
X187518000Y-82492800D01*
X187518000Y-82492800D01*
G37*
G36*
X189652000Y-82492800D02*
G01*
X188300000Y-82492800D01*
X188300000Y-80890800D01*
X189652000Y-80890800D01*
X189652000Y-82492800D01*
X189652000Y-82492800D01*
G37*
G36*
X192014000Y-79992800D02*
G01*
X190662000Y-79992800D01*
X190662000Y-78390800D01*
X192014000Y-78390800D01*
X192014000Y-79992800D01*
X192014000Y-79992800D01*
G37*
G36*
X189652000Y-79992800D02*
G01*
X188300000Y-79992800D01*
X188300000Y-78390800D01*
X189652000Y-78390800D01*
X189652000Y-79992800D01*
X189652000Y-79992800D01*
G37*
G36*
X187518000Y-79992800D02*
G01*
X186166000Y-79992800D01*
X186166000Y-78390800D01*
X187518000Y-78390800D01*
X187518000Y-79992800D01*
X187518000Y-79992800D01*
G37*
G36*
X187020000Y-76924100D02*
G01*
X186410000Y-76924100D01*
X186410000Y-75679100D01*
X187020000Y-75679100D01*
X187020000Y-76924100D01*
X187020000Y-76924100D01*
G37*
G36*
X190830000Y-76924100D02*
G01*
X190220000Y-76924100D01*
X190220000Y-75679100D01*
X190830000Y-75679100D01*
X190830000Y-76924100D01*
X190830000Y-76924100D01*
G37*
G36*
X189560000Y-76924100D02*
G01*
X188950000Y-76924100D01*
X188950000Y-75679100D01*
X189560000Y-75679100D01*
X189560000Y-76924100D01*
X189560000Y-76924100D01*
G37*
G36*
X188290000Y-76924100D02*
G01*
X187680000Y-76924100D01*
X187680000Y-75679100D01*
X188290000Y-75679100D01*
X188290000Y-76924100D01*
X188290000Y-76924100D01*
G37*
G36*
X184242000Y-75228400D02*
G01*
X182890000Y-75228400D01*
X182890000Y-73626400D01*
X184242000Y-73626400D01*
X184242000Y-75228400D01*
X184242000Y-75228400D01*
G37*
G36*
X184242000Y-72728400D02*
G01*
X182890000Y-72728400D01*
X182890000Y-71126400D01*
X184242000Y-71126400D01*
X184242000Y-72728400D01*
X184242000Y-72728400D01*
G37*
G36*
X188290000Y-70574100D02*
G01*
X187680000Y-70574100D01*
X187680000Y-69329100D01*
X188290000Y-69329100D01*
X188290000Y-70574100D01*
X188290000Y-70574100D01*
G37*
G36*
X189560000Y-70574100D02*
G01*
X188950000Y-70574100D01*
X188950000Y-69329100D01*
X189560000Y-69329100D01*
X189560000Y-70574100D01*
X189560000Y-70574100D01*
G37*
G36*
X190830000Y-70574100D02*
G01*
X190220000Y-70574100D01*
X190220000Y-69329100D01*
X190830000Y-69329100D01*
X190830000Y-70574100D01*
X190830000Y-70574100D01*
G37*
G36*
X187020000Y-70574100D02*
G01*
X186410000Y-70574100D01*
X186410000Y-69329100D01*
X187020000Y-69329100D01*
X187020000Y-70574100D01*
X187020000Y-70574100D01*
G37*
G36*
X182280000Y-66334600D02*
G01*
X180678000Y-66334600D01*
X180678000Y-64932600D01*
X182280000Y-64932600D01*
X182280000Y-66334600D01*
X182280000Y-66334600D01*
G37*
G36*
X184980000Y-66334600D02*
G01*
X183378000Y-66334600D01*
X183378000Y-64932600D01*
X184980000Y-64932600D01*
X184980000Y-66334600D01*
X184980000Y-66334600D01*
G37*
G36*
X201363200Y-65115400D02*
G01*
X199761200Y-65115400D01*
X199761200Y-63713400D01*
X201363200Y-63713400D01*
X201363200Y-65115400D01*
X201363200Y-65115400D01*
G37*
G36*
X198663200Y-65115400D02*
G01*
X197061200Y-65115400D01*
X197061200Y-63713400D01*
X198663200Y-63713400D01*
X198663200Y-65115400D01*
X198663200Y-65115400D01*
G37*
G36*
X173643243Y-63113519D02*
G01*
X173709427Y-63120037D01*
X173879266Y-63171557D01*
X174035791Y-63255222D01*
X174071529Y-63284552D01*
X174172986Y-63367814D01*
X174256248Y-63469271D01*
X174285578Y-63505009D01*
X174369243Y-63661534D01*
X174420763Y-63831373D01*
X174438159Y-64008000D01*
X174420763Y-64184627D01*
X174369243Y-64354466D01*
X174285578Y-64510991D01*
X174256248Y-64546729D01*
X174172986Y-64648186D01*
X174071529Y-64731448D01*
X174035791Y-64760778D01*
X173879266Y-64844443D01*
X173709427Y-64895963D01*
X173643242Y-64902482D01*
X173577060Y-64909000D01*
X173488540Y-64909000D01*
X173422358Y-64902482D01*
X173356173Y-64895963D01*
X173186334Y-64844443D01*
X173029809Y-64760778D01*
X172994071Y-64731448D01*
X172892614Y-64648186D01*
X172809352Y-64546729D01*
X172780022Y-64510991D01*
X172696357Y-64354466D01*
X172644837Y-64184627D01*
X172627441Y-64008000D01*
X172644837Y-63831373D01*
X172696357Y-63661534D01*
X172780022Y-63505009D01*
X172809352Y-63469271D01*
X172892614Y-63367814D01*
X172994071Y-63284552D01*
X173029809Y-63255222D01*
X173186334Y-63171557D01*
X173356173Y-63120037D01*
X173422357Y-63113519D01*
X173488540Y-63107000D01*
X173577060Y-63107000D01*
X173643243Y-63113519D01*
X173643243Y-63113519D01*
G37*
G36*
X184980000Y-63794600D02*
G01*
X183378000Y-63794600D01*
X183378000Y-62392600D01*
X184980000Y-62392600D01*
X184980000Y-63794600D01*
X184980000Y-63794600D01*
G37*
G36*
X182280000Y-63794600D02*
G01*
X180678000Y-63794600D01*
X180678000Y-62392600D01*
X182280000Y-62392600D01*
X182280000Y-63794600D01*
X182280000Y-63794600D01*
G37*
G36*
X198714000Y-62575400D02*
G01*
X197112000Y-62575400D01*
X197112000Y-61173400D01*
X198714000Y-61173400D01*
X198714000Y-62575400D01*
X198714000Y-62575400D01*
G37*
G36*
X201414000Y-62575400D02*
G01*
X199812000Y-62575400D01*
X199812000Y-61173400D01*
X201414000Y-61173400D01*
X201414000Y-62575400D01*
X201414000Y-62575400D01*
G37*
G36*
X173643242Y-60573518D02*
G01*
X173709427Y-60580037D01*
X173879266Y-60631557D01*
X174035791Y-60715222D01*
X174071529Y-60744552D01*
X174172986Y-60827814D01*
X174256248Y-60929271D01*
X174285578Y-60965009D01*
X174369243Y-61121534D01*
X174420763Y-61291373D01*
X174438159Y-61468000D01*
X174420763Y-61644627D01*
X174369243Y-61814466D01*
X174285578Y-61970991D01*
X174256248Y-62006729D01*
X174172986Y-62108186D01*
X174071529Y-62191448D01*
X174035791Y-62220778D01*
X173879266Y-62304443D01*
X173709427Y-62355963D01*
X173643242Y-62362482D01*
X173577060Y-62369000D01*
X173488540Y-62369000D01*
X173422358Y-62362482D01*
X173356173Y-62355963D01*
X173186334Y-62304443D01*
X173029809Y-62220778D01*
X172994071Y-62191448D01*
X172892614Y-62108186D01*
X172809352Y-62006729D01*
X172780022Y-61970991D01*
X172696357Y-61814466D01*
X172644837Y-61644627D01*
X172627441Y-61468000D01*
X172644837Y-61291373D01*
X172696357Y-61121534D01*
X172780022Y-60965009D01*
X172809352Y-60929271D01*
X172892614Y-60827814D01*
X172994071Y-60744552D01*
X173029809Y-60715222D01*
X173186334Y-60631557D01*
X173356173Y-60580037D01*
X173422358Y-60573518D01*
X173488540Y-60567000D01*
X173577060Y-60567000D01*
X173643242Y-60573518D01*
X173643242Y-60573518D01*
G37*
G36*
X184955000Y-61559400D02*
G01*
X183353000Y-61559400D01*
X183353000Y-60157400D01*
X184955000Y-60157400D01*
X184955000Y-61559400D01*
X184955000Y-61559400D01*
G37*
G36*
X182255000Y-61559400D02*
G01*
X180653000Y-61559400D01*
X180653000Y-60157400D01*
X182255000Y-60157400D01*
X182255000Y-61559400D01*
X182255000Y-61559400D01*
G37*
G36*
X201388600Y-60187800D02*
G01*
X199786600Y-60187800D01*
X199786600Y-58785800D01*
X201388600Y-58785800D01*
X201388600Y-60187800D01*
X201388600Y-60187800D01*
G37*
G36*
X198688600Y-60187800D02*
G01*
X197086600Y-60187800D01*
X197086600Y-58785800D01*
X198688600Y-58785800D01*
X198688600Y-60187800D01*
X198688600Y-60187800D01*
G37*
G36*
X174433800Y-59829000D02*
G01*
X172631800Y-59829000D01*
X172631800Y-58027000D01*
X174433800Y-58027000D01*
X174433800Y-59829000D01*
X174433800Y-59829000D01*
G37*
G36*
X184362443Y-57169919D02*
G01*
X184428627Y-57176437D01*
X184598466Y-57227957D01*
X184754991Y-57311622D01*
X184790729Y-57340952D01*
X184892186Y-57424214D01*
X184975448Y-57525671D01*
X185004778Y-57561409D01*
X185088443Y-57717934D01*
X185139963Y-57887773D01*
X185157359Y-58064400D01*
X185139963Y-58241027D01*
X185088443Y-58410866D01*
X185004778Y-58567391D01*
X184975448Y-58603129D01*
X184892186Y-58704586D01*
X184793225Y-58785800D01*
X184754991Y-58817178D01*
X184598466Y-58900843D01*
X184428627Y-58952363D01*
X184362442Y-58958882D01*
X184296260Y-58965400D01*
X184207740Y-58965400D01*
X184141558Y-58958882D01*
X184075373Y-58952363D01*
X183905534Y-58900843D01*
X183749009Y-58817178D01*
X183710775Y-58785800D01*
X183611814Y-58704586D01*
X183528552Y-58603129D01*
X183499222Y-58567391D01*
X183415557Y-58410866D01*
X183364037Y-58241027D01*
X183346641Y-58064400D01*
X183364037Y-57887773D01*
X183415557Y-57717934D01*
X183499222Y-57561409D01*
X183528552Y-57525671D01*
X183611814Y-57424214D01*
X183713271Y-57340952D01*
X183749009Y-57311622D01*
X183905534Y-57227957D01*
X184075373Y-57176437D01*
X184141557Y-57169919D01*
X184207740Y-57163400D01*
X184296260Y-57163400D01*
X184362443Y-57169919D01*
X184362443Y-57169919D01*
G37*
G36*
X187693000Y-58965400D02*
G01*
X185891000Y-58965400D01*
X185891000Y-57163400D01*
X187693000Y-57163400D01*
X187693000Y-58965400D01*
X187693000Y-58965400D01*
G37*
M02*
