G04 #@! TF.GenerationSoftware,KiCad,Pcbnew,(5.1.4)-1*
G04 #@! TF.CreationDate,2021-02-14T21:55:27+01:00*
G04 #@! TF.ProjectId,Atari XL s-video,41746172-6920-4584-9c20-732d76696465,rev?*
G04 #@! TF.SameCoordinates,Original*
G04 #@! TF.FileFunction,Copper,L4,Bot*
G04 #@! TF.FilePolarity,Positive*
%FSLAX46Y46*%
G04 Gerber Fmt 4.6, Leading zero omitted, Abs format (unit mm)*
G04 Created by KiCad (PCBNEW (5.1.4)-1) date 2021-02-14 21:55:27*
%MOMM*%
%LPD*%
G04 APERTURE LIST*
%ADD10R,1.700000X1.700000*%
%ADD11O,1.700000X1.700000*%
%ADD12R,1.500000X1.300000*%
%ADD13C,2.499360*%
%ADD14R,1.250000X1.500000*%
%ADD15R,0.508000X1.143000*%
%ADD16C,0.800000*%
%ADD17C,0.500000*%
G04 APERTURE END LIST*
D10*
X173532800Y-58928000D03*
D11*
X173532800Y-61468000D03*
X173532800Y-64008000D03*
D12*
X197913000Y-61874400D03*
X200613000Y-61874400D03*
X197887600Y-59486800D03*
X200587600Y-59486800D03*
X197862200Y-64414400D03*
X200562200Y-64414400D03*
D13*
X192100000Y-94716600D03*
D10*
X185496000Y-92456000D03*
D11*
X182956000Y-92456000D03*
X180416000Y-92456000D03*
X177876000Y-92456000D03*
X175336000Y-92456000D03*
X172796000Y-92456000D03*
D10*
X203149000Y-94361000D03*
D11*
X203149000Y-91821000D03*
X203149000Y-89281000D03*
X184252000Y-58064400D03*
D10*
X186792000Y-58064400D03*
D14*
X191338000Y-81691800D03*
X191338000Y-79191800D03*
X188976000Y-79191800D03*
X188976000Y-81691800D03*
X183566000Y-74427400D03*
X183566000Y-71927400D03*
X186842000Y-81691800D03*
X186842000Y-79191800D03*
D12*
X181479000Y-65633600D03*
X184179000Y-65633600D03*
X184179000Y-63093600D03*
X181479000Y-63093600D03*
X181454000Y-60858400D03*
X184154000Y-60858400D03*
D15*
X190525000Y-76301600D03*
X189255000Y-76301600D03*
X187985000Y-76301600D03*
X186715000Y-76301600D03*
X186715000Y-69951600D03*
X187985000Y-69951600D03*
X189255000Y-69951600D03*
X190525000Y-69951600D03*
D16*
X185516900Y-80945200D03*
X187585100Y-71482900D03*
X198831200Y-93192600D03*
X198750700Y-81887200D03*
X203631800Y-72390000D03*
X183863400Y-79430800D03*
X173659800Y-74752200D03*
X190171800Y-83620700D03*
X188867800Y-74229900D03*
X185642100Y-78165700D03*
X198569400Y-79187700D03*
X194022000Y-78429800D03*
X195753700Y-76085400D03*
X195875400Y-77627500D03*
X196514500Y-75204200D03*
X187460100Y-74937700D03*
X196094900Y-73308300D03*
X197582300Y-70167000D03*
X193075800Y-67345000D03*
X189980300Y-68716200D03*
X189348900Y-65745700D03*
X197998700Y-73961700D03*
X192545600Y-68344800D03*
D17*
X188976000Y-79191800D02*
X188601000Y-79691800D01*
X188601000Y-79691800D02*
X188351000Y-79691800D01*
X188351000Y-79691800D02*
X188247400Y-79691800D01*
X188247400Y-79691800D02*
X188101000Y-79838200D01*
X188101000Y-79838200D02*
X187967000Y-79972200D01*
X187967000Y-79972200D02*
X187967000Y-80148900D01*
X187967000Y-80148900D02*
X187674100Y-80441800D01*
X187674100Y-80441800D02*
X186009900Y-80441800D01*
X186009900Y-80441800D02*
X185717000Y-80734700D01*
X185717000Y-80734700D02*
X185516900Y-80934800D01*
X185516900Y-80934800D02*
X185516900Y-80945200D01*
X187585100Y-71482900D02*
X187574500Y-71482900D01*
X187574500Y-71482900D02*
X186865200Y-70773600D01*
X186865200Y-70773600D02*
X186718500Y-70626900D01*
X186718500Y-70626900D02*
X186715000Y-70623400D01*
X186715000Y-70623400D02*
X186715000Y-70523100D01*
X186715000Y-70523100D02*
X186715000Y-69951600D01*
X186715000Y-69951600D02*
X186711000Y-70273100D01*
X186711000Y-70273100D02*
X186461000Y-70273100D01*
X186461000Y-70273100D02*
X186357400Y-70273100D01*
X186357400Y-70273100D02*
X185203100Y-71427400D01*
X185203100Y-71427400D02*
X184191000Y-71427400D01*
X184191000Y-71427400D02*
X183941000Y-71427400D01*
X183941000Y-71427400D02*
X183566000Y-71927400D01*
X203631800Y-72390000D02*
X203631800Y-72390000D01*
X203631800Y-66234000D02*
X203631800Y-71094600D01*
X201812200Y-64414400D02*
X203631800Y-66234000D01*
X200562200Y-64414400D02*
X201812200Y-64414400D01*
X203631800Y-70450600D02*
X203631800Y-71094600D01*
X203631800Y-71094600D02*
X203631800Y-72390000D01*
X186715000Y-76301600D02*
X186711000Y-76429800D01*
X186711000Y-76429800D02*
X186461000Y-76429800D01*
X186461000Y-76429800D02*
X184625000Y-76429800D01*
X184625000Y-76429800D02*
X183863400Y-77191400D01*
X183863400Y-77191400D02*
X183863400Y-79430800D01*
X183566000Y-74427400D02*
X183941000Y-74927400D01*
X183941000Y-74927400D02*
X183941000Y-75177400D01*
X183941000Y-75177400D02*
X183941000Y-75745800D01*
X183941000Y-75745800D02*
X184625000Y-76429800D01*
X190171800Y-83620700D02*
X190171800Y-83336600D01*
X190171800Y-83336600D02*
X190963000Y-82545400D01*
X190963000Y-82545400D02*
X190963000Y-82441800D01*
X190963000Y-82441800D02*
X190963000Y-82191800D01*
X190963000Y-82191800D02*
X191338000Y-81691800D01*
X190525000Y-76301600D02*
X190525000Y-76873100D01*
X190525000Y-76873100D02*
X190525000Y-77456300D01*
X190525000Y-77456300D02*
X190951200Y-77882500D01*
X190951200Y-77882500D02*
X190951200Y-78326400D01*
X190951200Y-78326400D02*
X190963000Y-78338200D01*
X190963000Y-78338200D02*
X190963000Y-78441800D01*
X190963000Y-78441800D02*
X190963000Y-78691800D01*
X190963000Y-78691800D02*
X191338000Y-79191800D01*
X189255000Y-76301600D02*
X189255000Y-76873100D01*
X189255000Y-76873100D02*
X189255000Y-77317800D01*
X189255000Y-77317800D02*
X190151100Y-78213900D01*
X190151100Y-78213900D02*
X190151100Y-78463900D01*
X190151100Y-78463900D02*
X190151100Y-79463900D01*
X190151100Y-79463900D02*
X190151100Y-79713900D01*
X190151100Y-79713900D02*
X190151100Y-80169700D01*
X190151100Y-80169700D02*
X189851000Y-80469800D01*
X189851000Y-80469800D02*
X189851000Y-81045400D01*
X189851000Y-81045400D02*
X189704600Y-81191800D01*
X189704600Y-81191800D02*
X189601000Y-81191800D01*
X189601000Y-81191800D02*
X189351000Y-81191800D01*
X189351000Y-81191800D02*
X188976000Y-81691800D01*
X187985000Y-76301600D02*
X187981000Y-76623100D01*
X187981000Y-76623100D02*
X187731000Y-76623100D01*
X187731000Y-76623100D02*
X187627400Y-76623100D01*
X187627400Y-76623100D02*
X187481000Y-76769500D01*
X187481000Y-76769500D02*
X187480700Y-76769800D01*
X187480700Y-76769800D02*
X187480700Y-77085100D01*
X187480700Y-77085100D02*
X187181000Y-77384800D01*
X187181000Y-77384800D02*
X187142600Y-77423200D01*
X187142600Y-77423200D02*
X186942900Y-77423200D01*
X186942900Y-77423200D02*
X186487100Y-77423200D01*
X186487100Y-77423200D02*
X186238200Y-77423200D01*
X186238200Y-77423200D02*
X186034200Y-77219200D01*
X186034200Y-77219200D02*
X185250000Y-77219200D01*
X185250000Y-77219200D02*
X184695600Y-77773600D01*
X184695600Y-77773600D02*
X184695600Y-78557800D01*
X184695600Y-78557800D02*
X184695600Y-78919400D01*
X184695600Y-78919400D02*
X184813500Y-79037300D01*
X184813500Y-79037300D02*
X184813500Y-79824300D01*
X184813500Y-79824300D02*
X184566800Y-80071000D01*
X184566800Y-80071000D02*
X184566800Y-80551700D01*
X184566800Y-80551700D02*
X184566800Y-81338700D01*
X184566800Y-81338700D02*
X185123400Y-81895300D01*
X185123400Y-81895300D02*
X186217000Y-81895300D01*
X186217000Y-81895300D02*
X186467000Y-81895300D01*
X186467000Y-81895300D02*
X186842000Y-81691800D01*
X185642100Y-78165700D02*
X185642100Y-78220500D01*
X185642100Y-78220500D02*
X185967000Y-78545400D01*
X185967000Y-78545400D02*
X186113400Y-78691800D01*
X186113400Y-78691800D02*
X186217000Y-78691800D01*
X186217000Y-78691800D02*
X186467000Y-78691800D01*
X186467000Y-78691800D02*
X186842000Y-79191800D01*
X195076000Y-66394900D02*
X194826000Y-66394900D01*
X192682300Y-66394900D02*
X192125700Y-66951500D01*
X192125700Y-66951500D02*
X191642000Y-67435200D01*
X191642000Y-67435200D02*
X191642000Y-67970500D01*
X191642000Y-67970500D02*
X191642000Y-68719100D01*
X191642000Y-68719100D02*
X191642000Y-68719200D01*
X191642000Y-68719200D02*
X191782200Y-68859400D01*
X191782200Y-68859400D02*
X191782200Y-68911400D01*
X191782200Y-68911400D02*
X191819800Y-68949000D01*
X191819800Y-68949000D02*
X191819800Y-69811200D01*
X191819800Y-69811200D02*
X191329100Y-70301900D01*
X191329100Y-70301900D02*
X191329100Y-70751000D01*
X191329100Y-70751000D02*
X191321600Y-70758500D01*
X191321600Y-70758500D02*
X191321600Y-70958300D01*
X191321600Y-70958300D02*
X188867800Y-73412100D01*
X188867800Y-73412100D02*
X188867800Y-74229900D01*
X194826000Y-66394900D02*
X192682300Y-66394900D01*
X197762200Y-64414400D02*
X197862200Y-64414400D01*
X195781700Y-66394900D02*
X197762200Y-64414400D01*
X194826000Y-66394900D02*
X195781700Y-66394900D01*
X197862200Y-63264400D02*
X197862200Y-64414400D01*
X198152199Y-62974401D02*
X197862200Y-63264400D01*
X199412999Y-62974401D02*
X198152199Y-62974401D01*
X200513000Y-61874400D02*
X199412999Y-62974401D01*
X200613000Y-61874400D02*
X200513000Y-61874400D01*
X200587600Y-61849000D02*
X200613000Y-61874400D01*
X200587600Y-59486800D02*
X200587600Y-61849000D01*
X172796000Y-92456000D02*
X174196100Y-93856100D01*
X174196100Y-93856100D02*
X186118100Y-93856100D01*
X186118100Y-93856100D02*
X186573900Y-93856100D01*
X186573900Y-93856100D02*
X186984200Y-93856100D01*
X186984200Y-93856100D02*
X193847900Y-86992400D01*
X193847900Y-86992400D02*
X196513600Y-84326700D01*
X196513600Y-84326700D02*
X196513600Y-84076700D01*
X196513600Y-84076700D02*
X196513600Y-83076700D01*
X196513600Y-83076700D02*
X196513600Y-82826700D01*
X196513600Y-82826700D02*
X196513600Y-81826700D01*
X196513600Y-81826700D02*
X196513600Y-81807900D01*
X196513600Y-81807900D02*
X198172500Y-80149000D01*
X198172500Y-80149000D02*
X198172500Y-79584600D01*
X198172500Y-79584600D02*
X198569400Y-79187700D01*
X175336000Y-92456000D02*
X175896000Y-92456000D01*
X175896000Y-92456000D02*
X177296100Y-91055900D01*
X177296100Y-91055900D02*
X178704500Y-91055900D01*
X179504600Y-90255800D02*
X180913100Y-90255800D01*
X180913100Y-90255800D02*
X181713200Y-89455700D01*
X181713200Y-89455700D02*
X182623800Y-89455700D01*
X182623800Y-89455700D02*
X183423900Y-88655600D01*
X183423900Y-88655600D02*
X183673900Y-88655600D01*
X183673900Y-88655600D02*
X184873900Y-88655600D01*
X184873900Y-88655600D02*
X185123900Y-88655600D01*
X185123900Y-88655600D02*
X186527200Y-88655600D01*
X186527200Y-88655600D02*
X192190900Y-82991900D01*
X192190900Y-82991900D02*
X192513100Y-82669700D01*
X192513100Y-82669700D02*
X192513100Y-82419700D01*
X192513100Y-82419700D02*
X192513100Y-81419700D01*
X192513100Y-81419700D02*
X192513100Y-81169700D01*
X192513100Y-81169700D02*
X192513100Y-80169700D01*
X192513100Y-80169700D02*
X192513100Y-79938700D01*
X192513100Y-79938700D02*
X194022000Y-78429800D01*
X178704500Y-91055900D02*
X179504600Y-90255800D01*
X177876000Y-92456000D02*
X178436000Y-92456000D01*
X178436000Y-92456000D02*
X179836100Y-91055900D01*
X179836100Y-91055900D02*
X181244500Y-91055900D01*
X181244500Y-91055900D02*
X182044600Y-90255800D01*
X182044600Y-90255800D02*
X182955200Y-90255800D01*
X182955200Y-90255800D02*
X183755300Y-89455700D01*
X183755300Y-89455700D02*
X184005300Y-89455700D01*
X184005300Y-89455700D02*
X185205300Y-89455700D01*
X185205300Y-89455700D02*
X185455300Y-89455700D01*
X185455300Y-89455700D02*
X186858600Y-89455700D01*
X186858600Y-89455700D02*
X192522300Y-83792000D01*
X192522300Y-83792000D02*
X193313200Y-83001100D01*
X193313200Y-83001100D02*
X193313200Y-82751100D01*
X193313200Y-82751100D02*
X193313200Y-81751100D01*
X193313200Y-81751100D02*
X193313200Y-81501100D01*
X193313200Y-81501100D02*
X193313200Y-80501100D01*
X193313200Y-80501100D02*
X193313200Y-80466400D01*
X193313200Y-80466400D02*
X194960900Y-78818700D01*
X194960900Y-78818700D02*
X194960900Y-78040900D01*
X194960900Y-78040900D02*
X194936500Y-78016500D01*
X194936500Y-78016500D02*
X194936500Y-78016400D01*
X194936500Y-78016400D02*
X194936500Y-77238600D01*
X194936500Y-77238600D02*
X194936500Y-76902600D01*
X194936500Y-76902600D02*
X195753700Y-76085400D01*
X195772200Y-79154800D02*
X195772200Y-77730700D01*
X195772200Y-77730700D02*
X195875400Y-77627500D01*
X194113300Y-80813700D02*
X195772200Y-79154800D01*
X194113300Y-83332500D02*
X194113300Y-80813700D01*
X180976000Y-92456000D02*
X182376100Y-91055900D01*
X180416000Y-92456000D02*
X180976000Y-92456000D01*
X182376100Y-91055900D02*
X183286600Y-91055900D01*
X183286600Y-91055900D02*
X184086700Y-90255800D01*
X184086700Y-90255800D02*
X187190000Y-90255800D01*
X187190000Y-90255800D02*
X194113300Y-83332500D01*
X196514500Y-75204200D02*
X196514500Y-75502600D01*
X196514500Y-75502600D02*
X196703800Y-75691900D01*
X196703800Y-75691900D02*
X196703800Y-77112300D01*
X196703800Y-77112300D02*
X196825500Y-77234000D01*
X196825500Y-77234000D02*
X196825500Y-78021000D01*
X196825500Y-78021000D02*
X196572300Y-78274200D01*
X196572300Y-78274200D02*
X196572300Y-79486200D01*
X196572300Y-79486200D02*
X194913400Y-81145100D01*
X194913400Y-81145100D02*
X194913400Y-83663900D01*
X194913400Y-83663900D02*
X193185100Y-85392200D01*
X193185100Y-85392200D02*
X187521400Y-91055900D01*
X187521400Y-91055900D02*
X184418100Y-91055900D01*
X184418100Y-91055900D02*
X183018000Y-92456000D01*
X183018000Y-92456000D02*
X182956000Y-92456000D01*
X187460100Y-74937700D02*
X187702400Y-75180000D01*
X187702400Y-75180000D02*
X188474300Y-75180000D01*
X188474300Y-75180000D02*
X189261300Y-75180000D01*
X189261300Y-75180000D02*
X194223200Y-75180000D01*
X194223200Y-75180000D02*
X196094900Y-73308300D01*
X185496000Y-92456000D02*
X186096000Y-91856000D01*
X186096000Y-91856000D02*
X186346000Y-91856000D01*
X186346000Y-91856000D02*
X187852800Y-91856000D01*
X187852800Y-91856000D02*
X193516500Y-86192300D01*
X193516500Y-86192300D02*
X195713500Y-83995300D01*
X195713500Y-83995300D02*
X195713500Y-83745300D01*
X195713500Y-83745300D02*
X195713500Y-82745300D01*
X195713500Y-82745300D02*
X195713500Y-82495300D01*
X195713500Y-82495300D02*
X195713500Y-81495300D01*
X195713500Y-81495300D02*
X195713500Y-81476500D01*
X195713500Y-81476500D02*
X197372400Y-79817600D01*
X197372400Y-79817600D02*
X197372400Y-78605700D01*
X197372400Y-78605700D02*
X197625600Y-78352500D01*
X197625600Y-78352500D02*
X197625600Y-76902500D01*
X197625600Y-76902500D02*
X197503900Y-76780800D01*
X197503900Y-76780800D02*
X197503900Y-75360400D01*
X197503900Y-75360400D02*
X197464600Y-75321100D01*
X197464600Y-75321100D02*
X197464600Y-74810700D01*
X197464600Y-74810700D02*
X196094900Y-73441000D01*
X196094900Y-73441000D02*
X196094900Y-73308300D01*
X174929800Y-58928000D02*
X173532800Y-58928000D01*
X176460200Y-60458400D02*
X174929800Y-58928000D01*
X181454000Y-60858400D02*
X180954000Y-60458400D01*
X180954000Y-60458400D02*
X176460200Y-60458400D01*
X174758400Y-62693600D02*
X173532800Y-61468000D01*
X181479000Y-63093600D02*
X180979000Y-62693600D01*
X180979000Y-62693600D02*
X174758400Y-62693600D01*
X174758400Y-65233600D02*
X173532800Y-64008000D01*
X181479000Y-65633600D02*
X180979000Y-65233600D01*
X180979000Y-65233600D02*
X174758400Y-65233600D01*
X197582300Y-70167000D02*
X195897800Y-70167000D01*
X195897800Y-70167000D02*
X193075800Y-67345000D01*
X189980300Y-68716200D02*
X189348900Y-68084800D01*
X189348900Y-68084800D02*
X189348900Y-65745700D01*
X197998700Y-73961700D02*
X197045000Y-73008000D01*
X197045000Y-73008000D02*
X197045000Y-72914800D01*
X197045000Y-72914800D02*
X192545600Y-68415400D01*
X192545600Y-68415400D02*
X192545600Y-68344800D01*
X184179000Y-65633600D02*
X183679000Y-66033600D01*
X183679000Y-66033600D02*
X183679000Y-66283600D01*
X183679000Y-66283600D02*
X183679000Y-66387200D01*
X183679000Y-66387200D02*
X182390900Y-67675300D01*
X182390900Y-67675300D02*
X182390900Y-72199500D01*
X182390900Y-72199500D02*
X182390900Y-72655300D01*
X182390900Y-72655300D02*
X182390900Y-72834400D01*
X182390900Y-72834400D02*
X182441000Y-72884500D01*
X182441000Y-72884500D02*
X182733900Y-73177400D01*
X182733900Y-73177400D02*
X183983900Y-73177400D01*
X183983900Y-73177400D02*
X184398100Y-73177400D01*
X184398100Y-73177400D02*
X187971000Y-73177400D01*
X187971000Y-73177400D02*
X190374800Y-70773600D01*
X190374800Y-70773600D02*
X190521500Y-70626900D01*
X190521500Y-70626900D02*
X190521500Y-70526600D01*
X190521500Y-70526600D02*
X190525000Y-70523100D01*
X190525000Y-70523100D02*
X190525000Y-69951600D01*
X190525000Y-69951600D02*
X190529000Y-69630100D01*
X190529000Y-69630100D02*
X190779000Y-69630100D01*
X190779000Y-69630100D02*
X190882600Y-69630100D01*
X190882600Y-69630100D02*
X191029000Y-69483700D01*
X191029000Y-69483700D02*
X191029000Y-69276500D01*
X191029000Y-69276500D02*
X190885400Y-69132900D01*
X190885400Y-69132900D02*
X190885400Y-69032500D01*
X190885400Y-69032500D02*
X190885400Y-67657100D01*
X190885400Y-67657100D02*
X190885400Y-67060200D01*
X190885400Y-67060200D02*
X191325600Y-66620000D01*
X191325600Y-66620000D02*
X192350800Y-65594800D01*
X192350800Y-65594800D02*
X193738800Y-65594800D01*
X194722400Y-64611200D02*
X194826000Y-64611200D01*
X194826000Y-64611200D02*
X195076000Y-64611200D01*
X184179000Y-63093600D02*
X184679000Y-63493600D01*
X184679000Y-63493600D02*
X184929000Y-63493600D01*
X184929000Y-63493600D02*
X185032600Y-63493600D01*
X185032600Y-63493600D02*
X185172400Y-63633400D01*
X185172400Y-63633400D02*
X185488300Y-63633400D01*
X185488300Y-63633400D02*
X187096300Y-65241400D01*
X187096300Y-65241400D02*
X188372900Y-65241400D01*
X189255000Y-69951600D02*
X189255000Y-69380100D01*
X189255000Y-69380100D02*
X189251300Y-69376400D01*
X189251300Y-69376400D02*
X189251300Y-69276400D01*
X189251300Y-69276400D02*
X188372900Y-68398000D01*
X188372900Y-68398000D02*
X188372900Y-65241400D01*
X194826000Y-62553800D02*
X194722400Y-62553800D01*
X194722400Y-62553800D02*
X192481500Y-64794700D01*
X192481500Y-64794700D02*
X192019400Y-64794700D01*
X192019400Y-64794700D02*
X192018500Y-64795600D01*
X192018500Y-64795600D02*
X188955400Y-64795600D01*
X188955400Y-64795600D02*
X188509600Y-65241400D01*
X188509600Y-65241400D02*
X188372900Y-65241400D01*
X194722400Y-62552000D02*
X195707000Y-61567400D01*
X194722400Y-62553800D02*
X194722400Y-62552000D01*
X195707000Y-61567400D02*
X195707000Y-59893200D01*
X196113400Y-59486800D02*
X197887600Y-59486800D01*
X195707000Y-59893200D02*
X196113400Y-59486800D01*
X193738800Y-65594800D02*
X194722400Y-64611200D01*
X197813000Y-61874400D02*
X197913000Y-61874400D01*
X195076200Y-64611200D02*
X197813000Y-61874400D01*
X194722400Y-64611200D02*
X195076200Y-64611200D01*
X187985000Y-69951600D02*
X187985000Y-69380100D01*
X187985000Y-69380100D02*
X187981500Y-69376600D01*
X187981500Y-69376600D02*
X187981500Y-69276300D01*
X187981500Y-69276300D02*
X185479100Y-66773900D01*
X185479100Y-66773900D02*
X185479100Y-64755700D01*
X185479100Y-64755700D02*
X185156900Y-64433500D01*
X185156900Y-64433500D02*
X184906900Y-64433500D01*
X184906900Y-64433500D02*
X183906900Y-64433500D01*
X183906900Y-64433500D02*
X183656900Y-64433500D01*
X183656900Y-64433500D02*
X183340900Y-64433500D01*
X183340900Y-64433500D02*
X183201100Y-64293700D01*
X183201100Y-64293700D02*
X182878900Y-63971500D01*
X182878900Y-63971500D02*
X182878900Y-62671500D01*
X182878900Y-62671500D02*
X182878900Y-62215700D01*
X182878900Y-62215700D02*
X182878900Y-61679900D01*
X182878900Y-61679900D02*
X183154000Y-61404800D01*
X183154000Y-61404800D02*
X183300400Y-61258400D01*
X183300400Y-61258400D02*
X183404000Y-61258400D01*
X183404000Y-61258400D02*
X183654000Y-61258400D01*
X183654000Y-61258400D02*
X184154000Y-60858400D01*
M02*
