G04 #@! TF.GenerationSoftware,KiCad,Pcbnew,(5.1.4)-1*
G04 #@! TF.CreationDate,2021-02-14T21:55:27+01:00*
G04 #@! TF.ProjectId,Atari XL s-video,41746172-6920-4584-9c20-732d76696465,rev?*
G04 #@! TF.SameCoordinates,Original*
G04 #@! TF.FileFunction,Legend,Bot*
G04 #@! TF.FilePolarity,Positive*
%FSLAX46Y46*%
G04 Gerber Fmt 4.6, Leading zero omitted, Abs format (unit mm)*
G04 Created by KiCad (PCBNEW (5.1.4)-1) date 2021-02-14 21:55:27*
%MOMM*%
%LPD*%
G04 APERTURE LIST*
%ADD10C,0.200000*%
%ADD11C,0.120000*%
%ADD12C,0.010000*%
%ADD13C,0.150000*%
G04 APERTURE END LIST*
D10*
X194613980Y-87277733D02*
X194233028Y-87277733D01*
X194690171Y-87506304D02*
X194423504Y-86706304D01*
X194156838Y-87506304D01*
X194004457Y-86972971D02*
X193699695Y-86972971D01*
X193890171Y-86706304D02*
X193890171Y-87392019D01*
X193852076Y-87468209D01*
X193775885Y-87506304D01*
X193699695Y-87506304D01*
X193090171Y-87506304D02*
X193090171Y-87087257D01*
X193128266Y-87011066D01*
X193204457Y-86972971D01*
X193356838Y-86972971D01*
X193433028Y-87011066D01*
X193090171Y-87468209D02*
X193166361Y-87506304D01*
X193356838Y-87506304D01*
X193433028Y-87468209D01*
X193471123Y-87392019D01*
X193471123Y-87315828D01*
X193433028Y-87239638D01*
X193356838Y-87201542D01*
X193166361Y-87201542D01*
X193090171Y-87163447D01*
X192709219Y-87506304D02*
X192709219Y-86972971D01*
X192709219Y-87125352D02*
X192671123Y-87049161D01*
X192633028Y-87011066D01*
X192556838Y-86972971D01*
X192480647Y-86972971D01*
X192213980Y-87506304D02*
X192213980Y-86972971D01*
X192213980Y-86706304D02*
X192252076Y-86744400D01*
X192213980Y-86782495D01*
X192175885Y-86744400D01*
X192213980Y-86706304D01*
X192213980Y-86782495D01*
X190880647Y-86706304D02*
X191033028Y-86706304D01*
X191109219Y-86744400D01*
X191147314Y-86782495D01*
X191223504Y-86896780D01*
X191261600Y-87049161D01*
X191261600Y-87353923D01*
X191223504Y-87430114D01*
X191185409Y-87468209D01*
X191109219Y-87506304D01*
X190956838Y-87506304D01*
X190880647Y-87468209D01*
X190842552Y-87430114D01*
X190804457Y-87353923D01*
X190804457Y-87163447D01*
X190842552Y-87087257D01*
X190880647Y-87049161D01*
X190956838Y-87011066D01*
X191109219Y-87011066D01*
X191185409Y-87049161D01*
X191223504Y-87087257D01*
X191261600Y-87163447D01*
X190309219Y-86706304D02*
X190233028Y-86706304D01*
X190156838Y-86744400D01*
X190118742Y-86782495D01*
X190080647Y-86858685D01*
X190042552Y-87011066D01*
X190042552Y-87201542D01*
X190080647Y-87353923D01*
X190118742Y-87430114D01*
X190156838Y-87468209D01*
X190233028Y-87506304D01*
X190309219Y-87506304D01*
X190385409Y-87468209D01*
X190423504Y-87430114D01*
X190461600Y-87353923D01*
X190499695Y-87201542D01*
X190499695Y-87011066D01*
X190461600Y-86858685D01*
X190423504Y-86782495D01*
X190385409Y-86744400D01*
X190309219Y-86706304D01*
X189547314Y-86706304D02*
X189471123Y-86706304D01*
X189394933Y-86744400D01*
X189356838Y-86782495D01*
X189318742Y-86858685D01*
X189280647Y-87011066D01*
X189280647Y-87201542D01*
X189318742Y-87353923D01*
X189356838Y-87430114D01*
X189394933Y-87468209D01*
X189471123Y-87506304D01*
X189547314Y-87506304D01*
X189623504Y-87468209D01*
X189661600Y-87430114D01*
X189699695Y-87353923D01*
X189737790Y-87201542D01*
X189737790Y-87011066D01*
X189699695Y-86858685D01*
X189661600Y-86782495D01*
X189623504Y-86744400D01*
X189547314Y-86706304D01*
X189013980Y-86706304D02*
X188480647Y-87506304D01*
X188480647Y-86706304D02*
X189013980Y-87506304D01*
X187794933Y-87506304D02*
X188175885Y-87506304D01*
X188175885Y-86706304D01*
X186347314Y-86668209D02*
X187033028Y-87696780D01*
X185356838Y-87049161D02*
X185433028Y-87011066D01*
X185471123Y-86972971D01*
X185509219Y-86896780D01*
X185509219Y-86858685D01*
X185471123Y-86782495D01*
X185433028Y-86744400D01*
X185356838Y-86706304D01*
X185204457Y-86706304D01*
X185128266Y-86744400D01*
X185090171Y-86782495D01*
X185052076Y-86858685D01*
X185052076Y-86896780D01*
X185090171Y-86972971D01*
X185128266Y-87011066D01*
X185204457Y-87049161D01*
X185356838Y-87049161D01*
X185433028Y-87087257D01*
X185471123Y-87125352D01*
X185509219Y-87201542D01*
X185509219Y-87353923D01*
X185471123Y-87430114D01*
X185433028Y-87468209D01*
X185356838Y-87506304D01*
X185204457Y-87506304D01*
X185128266Y-87468209D01*
X185090171Y-87430114D01*
X185052076Y-87353923D01*
X185052076Y-87201542D01*
X185090171Y-87125352D01*
X185128266Y-87087257D01*
X185204457Y-87049161D01*
X184556838Y-86706304D02*
X184480647Y-86706304D01*
X184404457Y-86744400D01*
X184366361Y-86782495D01*
X184328266Y-86858685D01*
X184290171Y-87011066D01*
X184290171Y-87201542D01*
X184328266Y-87353923D01*
X184366361Y-87430114D01*
X184404457Y-87468209D01*
X184480647Y-87506304D01*
X184556838Y-87506304D01*
X184633028Y-87468209D01*
X184671123Y-87430114D01*
X184709219Y-87353923D01*
X184747314Y-87201542D01*
X184747314Y-87011066D01*
X184709219Y-86858685D01*
X184671123Y-86782495D01*
X184633028Y-86744400D01*
X184556838Y-86706304D01*
X183794933Y-86706304D02*
X183718742Y-86706304D01*
X183642552Y-86744400D01*
X183604457Y-86782495D01*
X183566361Y-86858685D01*
X183528266Y-87011066D01*
X183528266Y-87201542D01*
X183566361Y-87353923D01*
X183604457Y-87430114D01*
X183642552Y-87468209D01*
X183718742Y-87506304D01*
X183794933Y-87506304D01*
X183871123Y-87468209D01*
X183909219Y-87430114D01*
X183947314Y-87353923D01*
X183985409Y-87201542D01*
X183985409Y-87011066D01*
X183947314Y-86858685D01*
X183909219Y-86782495D01*
X183871123Y-86744400D01*
X183794933Y-86706304D01*
X182652076Y-86706304D02*
X182118742Y-87506304D01*
X182118742Y-86706304D02*
X182652076Y-87506304D01*
X181433028Y-87506304D02*
X181813980Y-87506304D01*
X181813980Y-86706304D01*
X196709219Y-88868209D02*
X196594933Y-88906304D01*
X196404457Y-88906304D01*
X196328266Y-88868209D01*
X196290171Y-88830114D01*
X196252076Y-88753923D01*
X196252076Y-88677733D01*
X196290171Y-88601542D01*
X196328266Y-88563447D01*
X196404457Y-88525352D01*
X196556838Y-88487257D01*
X196633028Y-88449161D01*
X196671123Y-88411066D01*
X196709219Y-88334876D01*
X196709219Y-88258685D01*
X196671123Y-88182495D01*
X196633028Y-88144400D01*
X196556838Y-88106304D01*
X196366361Y-88106304D01*
X196252076Y-88144400D01*
X195909219Y-88601542D02*
X195299695Y-88601542D01*
X195033028Y-88106304D02*
X194766361Y-88906304D01*
X194499695Y-88106304D01*
X194233028Y-88906304D02*
X194233028Y-88372971D01*
X194233028Y-88106304D02*
X194271123Y-88144400D01*
X194233028Y-88182495D01*
X194194933Y-88144400D01*
X194233028Y-88106304D01*
X194233028Y-88182495D01*
X193509219Y-88906304D02*
X193509219Y-88106304D01*
X193509219Y-88868209D02*
X193585409Y-88906304D01*
X193737790Y-88906304D01*
X193813980Y-88868209D01*
X193852076Y-88830114D01*
X193890171Y-88753923D01*
X193890171Y-88525352D01*
X193852076Y-88449161D01*
X193813980Y-88411066D01*
X193737790Y-88372971D01*
X193585409Y-88372971D01*
X193509219Y-88411066D01*
X192823504Y-88868209D02*
X192899695Y-88906304D01*
X193052076Y-88906304D01*
X193128266Y-88868209D01*
X193166361Y-88792019D01*
X193166361Y-88487257D01*
X193128266Y-88411066D01*
X193052076Y-88372971D01*
X192899695Y-88372971D01*
X192823504Y-88411066D01*
X192785409Y-88487257D01*
X192785409Y-88563447D01*
X193166361Y-88639638D01*
X192328266Y-88906304D02*
X192404457Y-88868209D01*
X192442552Y-88830114D01*
X192480647Y-88753923D01*
X192480647Y-88525352D01*
X192442552Y-88449161D01*
X192404457Y-88411066D01*
X192328266Y-88372971D01*
X192213980Y-88372971D01*
X192137790Y-88411066D01*
X192099695Y-88449161D01*
X192061600Y-88525352D01*
X192061600Y-88753923D01*
X192099695Y-88830114D01*
X192137790Y-88868209D01*
X192213980Y-88906304D01*
X192328266Y-88906304D01*
X190537790Y-88068209D02*
X191223504Y-89096780D01*
X189204457Y-88830114D02*
X189242552Y-88868209D01*
X189356838Y-88906304D01*
X189433028Y-88906304D01*
X189547314Y-88868209D01*
X189623504Y-88792019D01*
X189661600Y-88715828D01*
X189699695Y-88563447D01*
X189699695Y-88449161D01*
X189661600Y-88296780D01*
X189623504Y-88220590D01*
X189547314Y-88144400D01*
X189433028Y-88106304D01*
X189356838Y-88106304D01*
X189242552Y-88144400D01*
X189204457Y-88182495D01*
X188747314Y-88906304D02*
X188823504Y-88868209D01*
X188861600Y-88830114D01*
X188899695Y-88753923D01*
X188899695Y-88525352D01*
X188861600Y-88449161D01*
X188823504Y-88411066D01*
X188747314Y-88372971D01*
X188633028Y-88372971D01*
X188556838Y-88411066D01*
X188518742Y-88449161D01*
X188480647Y-88525352D01*
X188480647Y-88753923D01*
X188518742Y-88830114D01*
X188556838Y-88868209D01*
X188633028Y-88906304D01*
X188747314Y-88906304D01*
X188137790Y-88906304D02*
X188137790Y-88372971D01*
X188137790Y-88449161D02*
X188099695Y-88411066D01*
X188023504Y-88372971D01*
X187909219Y-88372971D01*
X187833028Y-88411066D01*
X187794933Y-88487257D01*
X187794933Y-88906304D01*
X187794933Y-88487257D02*
X187756838Y-88411066D01*
X187680647Y-88372971D01*
X187566361Y-88372971D01*
X187490171Y-88411066D01*
X187452076Y-88487257D01*
X187452076Y-88906304D01*
X187071123Y-88372971D02*
X187071123Y-89172971D01*
X187071123Y-88411066D02*
X186994933Y-88372971D01*
X186842552Y-88372971D01*
X186766361Y-88411066D01*
X186728266Y-88449161D01*
X186690171Y-88525352D01*
X186690171Y-88753923D01*
X186728266Y-88830114D01*
X186766361Y-88868209D01*
X186842552Y-88906304D01*
X186994933Y-88906304D01*
X187071123Y-88868209D01*
X186233028Y-88906304D02*
X186309219Y-88868209D01*
X186347314Y-88830114D01*
X186385409Y-88753923D01*
X186385409Y-88525352D01*
X186347314Y-88449161D01*
X186309219Y-88411066D01*
X186233028Y-88372971D01*
X186118742Y-88372971D01*
X186042552Y-88411066D01*
X186004457Y-88449161D01*
X185966361Y-88525352D01*
X185966361Y-88753923D01*
X186004457Y-88830114D01*
X186042552Y-88868209D01*
X186118742Y-88906304D01*
X186233028Y-88906304D01*
X185661600Y-88868209D02*
X185585409Y-88906304D01*
X185433028Y-88906304D01*
X185356838Y-88868209D01*
X185318742Y-88792019D01*
X185318742Y-88753923D01*
X185356838Y-88677733D01*
X185433028Y-88639638D01*
X185547314Y-88639638D01*
X185623504Y-88601542D01*
X185661600Y-88525352D01*
X185661600Y-88487257D01*
X185623504Y-88411066D01*
X185547314Y-88372971D01*
X185433028Y-88372971D01*
X185356838Y-88411066D01*
X184975885Y-88906304D02*
X184975885Y-88372971D01*
X184975885Y-88106304D02*
X185013980Y-88144400D01*
X184975885Y-88182495D01*
X184937790Y-88144400D01*
X184975885Y-88106304D01*
X184975885Y-88182495D01*
X184709219Y-88372971D02*
X184404457Y-88372971D01*
X184594933Y-88106304D02*
X184594933Y-88792019D01*
X184556838Y-88868209D01*
X184480647Y-88906304D01*
X184404457Y-88906304D01*
X183833028Y-88868209D02*
X183909219Y-88906304D01*
X184061600Y-88906304D01*
X184137790Y-88868209D01*
X184175885Y-88792019D01*
X184175885Y-88487257D01*
X184137790Y-88411066D01*
X184061600Y-88372971D01*
X183909219Y-88372971D01*
X183833028Y-88411066D01*
X183794933Y-88487257D01*
X183794933Y-88563447D01*
X184175885Y-88639638D01*
X182385409Y-88906304D02*
X182652076Y-88525352D01*
X182842552Y-88906304D02*
X182842552Y-88106304D01*
X182537790Y-88106304D01*
X182461600Y-88144400D01*
X182423504Y-88182495D01*
X182385409Y-88258685D01*
X182385409Y-88372971D01*
X182423504Y-88449161D01*
X182461600Y-88487257D01*
X182537790Y-88525352D01*
X182842552Y-88525352D01*
X181737790Y-88868209D02*
X181813980Y-88906304D01*
X181966361Y-88906304D01*
X182042552Y-88868209D01*
X182080647Y-88792019D01*
X182080647Y-88487257D01*
X182042552Y-88411066D01*
X181966361Y-88372971D01*
X181813980Y-88372971D01*
X181737790Y-88411066D01*
X181699695Y-88487257D01*
X181699695Y-88563447D01*
X182080647Y-88639638D01*
X181433028Y-88372971D02*
X181242552Y-88906304D01*
X181052076Y-88372971D01*
X180747314Y-88830114D02*
X180709219Y-88868209D01*
X180747314Y-88906304D01*
X180785409Y-88868209D01*
X180747314Y-88830114D01*
X180747314Y-88906304D01*
X179794933Y-88677733D02*
X179413980Y-88677733D01*
X179871123Y-88906304D02*
X179604457Y-88106304D01*
X179337790Y-88906304D01*
X195966361Y-90306304D02*
X195966361Y-89506304D01*
X195775885Y-89506304D01*
X195661600Y-89544400D01*
X195585409Y-89620590D01*
X195547314Y-89696780D01*
X195509219Y-89849161D01*
X195509219Y-89963447D01*
X195547314Y-90115828D01*
X195585409Y-90192019D01*
X195661600Y-90268209D01*
X195775885Y-90306304D01*
X195966361Y-90306304D01*
X194861600Y-90268209D02*
X194937790Y-90306304D01*
X195090171Y-90306304D01*
X195166361Y-90268209D01*
X195204457Y-90192019D01*
X195204457Y-89887257D01*
X195166361Y-89811066D01*
X195090171Y-89772971D01*
X194937790Y-89772971D01*
X194861600Y-89811066D01*
X194823504Y-89887257D01*
X194823504Y-89963447D01*
X195204457Y-90039638D01*
X194518742Y-90268209D02*
X194442552Y-90306304D01*
X194290171Y-90306304D01*
X194213980Y-90268209D01*
X194175885Y-90192019D01*
X194175885Y-90153923D01*
X194213980Y-90077733D01*
X194290171Y-90039638D01*
X194404457Y-90039638D01*
X194480647Y-90001542D01*
X194518742Y-89925352D01*
X194518742Y-89887257D01*
X194480647Y-89811066D01*
X194404457Y-89772971D01*
X194290171Y-89772971D01*
X194213980Y-89811066D01*
X193833028Y-90306304D02*
X193833028Y-89772971D01*
X193833028Y-89506304D02*
X193871123Y-89544400D01*
X193833028Y-89582495D01*
X193794933Y-89544400D01*
X193833028Y-89506304D01*
X193833028Y-89582495D01*
X193109219Y-89772971D02*
X193109219Y-90420590D01*
X193147314Y-90496780D01*
X193185409Y-90534876D01*
X193261600Y-90572971D01*
X193375885Y-90572971D01*
X193452076Y-90534876D01*
X193109219Y-90268209D02*
X193185409Y-90306304D01*
X193337790Y-90306304D01*
X193413980Y-90268209D01*
X193452076Y-90230114D01*
X193490171Y-90153923D01*
X193490171Y-89925352D01*
X193452076Y-89849161D01*
X193413980Y-89811066D01*
X193337790Y-89772971D01*
X193185409Y-89772971D01*
X193109219Y-89811066D01*
X192728266Y-89772971D02*
X192728266Y-90306304D01*
X192728266Y-89849161D02*
X192690171Y-89811066D01*
X192613980Y-89772971D01*
X192499695Y-89772971D01*
X192423504Y-89811066D01*
X192385409Y-89887257D01*
X192385409Y-90306304D01*
X191128266Y-89887257D02*
X191013980Y-89925352D01*
X190975885Y-89963447D01*
X190937790Y-90039638D01*
X190937790Y-90153923D01*
X190975885Y-90230114D01*
X191013980Y-90268209D01*
X191090171Y-90306304D01*
X191394933Y-90306304D01*
X191394933Y-89506304D01*
X191128266Y-89506304D01*
X191052076Y-89544400D01*
X191013980Y-89582495D01*
X190975885Y-89658685D01*
X190975885Y-89734876D01*
X191013980Y-89811066D01*
X191052076Y-89849161D01*
X191128266Y-89887257D01*
X191394933Y-89887257D01*
X190671123Y-89772971D02*
X190480647Y-90306304D01*
X190290171Y-89772971D02*
X190480647Y-90306304D01*
X190556838Y-90496780D01*
X190594933Y-90534876D01*
X190671123Y-90572971D01*
X188918742Y-90306304D02*
X189185409Y-89925352D01*
X189375885Y-90306304D02*
X189375885Y-89506304D01*
X189071123Y-89506304D01*
X188994933Y-89544400D01*
X188956838Y-89582495D01*
X188918742Y-89658685D01*
X188918742Y-89772971D01*
X188956838Y-89849161D01*
X188994933Y-89887257D01*
X189071123Y-89925352D01*
X189375885Y-89925352D01*
X188271123Y-90268209D02*
X188347314Y-90306304D01*
X188499695Y-90306304D01*
X188575885Y-90268209D01*
X188613980Y-90192019D01*
X188613980Y-89887257D01*
X188575885Y-89811066D01*
X188499695Y-89772971D01*
X188347314Y-89772971D01*
X188271123Y-89811066D01*
X188233028Y-89887257D01*
X188233028Y-89963447D01*
X188613980Y-90039638D01*
X188004457Y-89772971D02*
X187699695Y-89772971D01*
X187890171Y-89506304D02*
X187890171Y-90192019D01*
X187852076Y-90268209D01*
X187775885Y-90306304D01*
X187699695Y-90306304D01*
X187433028Y-90306304D02*
X187433028Y-89772971D01*
X187433028Y-89925352D02*
X187394933Y-89849161D01*
X187356838Y-89811066D01*
X187280647Y-89772971D01*
X187204457Y-89772971D01*
X186823504Y-90306304D02*
X186899695Y-90268209D01*
X186937790Y-90230114D01*
X186975885Y-90153923D01*
X186975885Y-89925352D01*
X186937790Y-89849161D01*
X186899695Y-89811066D01*
X186823504Y-89772971D01*
X186709219Y-89772971D01*
X186633028Y-89811066D01*
X186594933Y-89849161D01*
X186556838Y-89925352D01*
X186556838Y-90153923D01*
X186594933Y-90230114D01*
X186633028Y-90268209D01*
X186709219Y-90306304D01*
X186823504Y-90306304D01*
X186252076Y-90077733D02*
X185871123Y-90077733D01*
X186328266Y-90306304D02*
X186061600Y-89506304D01*
X185794933Y-90306304D01*
X185185409Y-90306304D02*
X185185409Y-89506304D01*
X185185409Y-90268209D02*
X185261600Y-90306304D01*
X185413980Y-90306304D01*
X185490171Y-90268209D01*
X185528266Y-90230114D01*
X185566361Y-90153923D01*
X185566361Y-89925352D01*
X185528266Y-89849161D01*
X185490171Y-89811066D01*
X185413980Y-89772971D01*
X185261600Y-89772971D01*
X185185409Y-89811066D01*
X184880647Y-89772971D02*
X184690171Y-90306304D01*
X184499695Y-89772971D01*
X183890171Y-90268209D02*
X183966361Y-90306304D01*
X184118742Y-90306304D01*
X184194933Y-90268209D01*
X184233028Y-90192019D01*
X184233028Y-89887257D01*
X184194933Y-89811066D01*
X184118742Y-89772971D01*
X183966361Y-89772971D01*
X183890171Y-89811066D01*
X183852076Y-89887257D01*
X183852076Y-89963447D01*
X184233028Y-90039638D01*
X183509219Y-89772971D02*
X183509219Y-90306304D01*
X183509219Y-89849161D02*
X183471123Y-89811066D01*
X183394933Y-89772971D01*
X183280647Y-89772971D01*
X183204457Y-89811066D01*
X183166361Y-89887257D01*
X183166361Y-90306304D01*
X182899695Y-89772971D02*
X182594933Y-89772971D01*
X182785409Y-89506304D02*
X182785409Y-90192019D01*
X182747314Y-90268209D01*
X182671123Y-90306304D01*
X182594933Y-90306304D01*
X181985409Y-89772971D02*
X181985409Y-90306304D01*
X182328266Y-89772971D02*
X182328266Y-90192019D01*
X182290171Y-90268209D01*
X182213980Y-90306304D01*
X182099695Y-90306304D01*
X182023504Y-90268209D01*
X181985409Y-90230114D01*
X181604457Y-90306304D02*
X181604457Y-89772971D01*
X181604457Y-89925352D02*
X181566361Y-89849161D01*
X181528266Y-89811066D01*
X181452076Y-89772971D01*
X181375885Y-89772971D01*
X180804457Y-90268209D02*
X180880647Y-90306304D01*
X181033028Y-90306304D01*
X181109219Y-90268209D01*
X181147314Y-90192019D01*
X181147314Y-89887257D01*
X181109219Y-89811066D01*
X181033028Y-89772971D01*
X180880647Y-89772971D01*
X180804457Y-89811066D01*
X180766361Y-89887257D01*
X180766361Y-89963447D01*
X181147314Y-90039638D01*
X180461600Y-90268209D02*
X180385409Y-90306304D01*
X180233028Y-90306304D01*
X180156838Y-90268209D01*
X180118742Y-90192019D01*
X180118742Y-90153923D01*
X180156838Y-90077733D01*
X180233028Y-90039638D01*
X180347314Y-90039638D01*
X180423504Y-90001542D01*
X180461600Y-89925352D01*
X180461600Y-89887257D01*
X180423504Y-89811066D01*
X180347314Y-89772971D01*
X180233028Y-89772971D01*
X180156838Y-89811066D01*
D11*
X199863000Y-60994400D02*
X198663000Y-60994400D01*
X198663000Y-62754400D02*
X199863000Y-62754400D01*
X199837600Y-58606800D02*
X198637600Y-58606800D01*
X198637600Y-60366800D02*
X199837600Y-60366800D01*
X199812200Y-63534400D02*
X198612200Y-63534400D01*
X198612200Y-65294400D02*
X199812200Y-65294400D01*
D12*
G36*
X174021495Y-83850714D02*
G01*
X173984273Y-83776061D01*
X173915739Y-83710169D01*
X173890352Y-83692023D01*
X173857134Y-83672255D01*
X173821055Y-83659428D01*
X173772902Y-83652090D01*
X173703464Y-83648787D01*
X173611794Y-83648062D01*
X173486170Y-83651337D01*
X173391846Y-83662723D01*
X173321477Y-83684559D01*
X173267714Y-83719181D01*
X173223212Y-83768930D01*
X173220577Y-83772586D01*
X173193623Y-83821615D01*
X173180288Y-83880655D01*
X173177000Y-83955741D01*
X173177000Y-84077805D01*
X173058503Y-84077856D01*
X172992508Y-84078992D01*
X172953798Y-84085914D01*
X172930581Y-84104002D01*
X172911067Y-84138638D01*
X172907080Y-84146955D01*
X172888397Y-84185880D01*
X172876597Y-84216017D01*
X172875578Y-84238426D01*
X172889239Y-84254167D01*
X172921478Y-84264298D01*
X172976196Y-84269877D01*
X173057289Y-84271965D01*
X173168656Y-84271619D01*
X173314198Y-84269900D01*
X173357731Y-84269363D01*
X173507795Y-84267428D01*
X173605958Y-84265696D01*
X173605958Y-84077908D01*
X173522636Y-84076852D01*
X173468120Y-84072162D01*
X173432163Y-84061549D01*
X173404518Y-84042728D01*
X173391035Y-84029950D01*
X173351583Y-83977710D01*
X173348372Y-83931458D01*
X173380951Y-83883733D01*
X173382154Y-83882523D01*
X173407332Y-83863106D01*
X173441553Y-83851293D01*
X173494252Y-83845335D01*
X173574869Y-83843480D01*
X173592729Y-83843446D01*
X173703825Y-83847930D01*
X173780839Y-83862526D01*
X173827853Y-83888950D01*
X173848950Y-83928917D01*
X173851077Y-83952016D01*
X173841100Y-84006838D01*
X173808248Y-84044442D01*
X173748143Y-84067077D01*
X173656402Y-84076994D01*
X173605958Y-84077908D01*
X173605958Y-84265696D01*
X173623940Y-84265378D01*
X173711321Y-84262727D01*
X173775095Y-84258994D01*
X173820418Y-84253693D01*
X173852445Y-84246342D01*
X173876332Y-84236457D01*
X173897236Y-84223554D01*
X173905102Y-84218021D01*
X173979405Y-84144631D01*
X174021533Y-84051840D01*
X174033278Y-83944504D01*
X174021495Y-83850714D01*
X174021495Y-83850714D01*
G37*
X174021495Y-83850714D02*
X173984273Y-83776061D01*
X173915739Y-83710169D01*
X173890352Y-83692023D01*
X173857134Y-83672255D01*
X173821055Y-83659428D01*
X173772902Y-83652090D01*
X173703464Y-83648787D01*
X173611794Y-83648062D01*
X173486170Y-83651337D01*
X173391846Y-83662723D01*
X173321477Y-83684559D01*
X173267714Y-83719181D01*
X173223212Y-83768930D01*
X173220577Y-83772586D01*
X173193623Y-83821615D01*
X173180288Y-83880655D01*
X173177000Y-83955741D01*
X173177000Y-84077805D01*
X173058503Y-84077856D01*
X172992508Y-84078992D01*
X172953798Y-84085914D01*
X172930581Y-84104002D01*
X172911067Y-84138638D01*
X172907080Y-84146955D01*
X172888397Y-84185880D01*
X172876597Y-84216017D01*
X172875578Y-84238426D01*
X172889239Y-84254167D01*
X172921478Y-84264298D01*
X172976196Y-84269877D01*
X173057289Y-84271965D01*
X173168656Y-84271619D01*
X173314198Y-84269900D01*
X173357731Y-84269363D01*
X173507795Y-84267428D01*
X173605958Y-84265696D01*
X173605958Y-84077908D01*
X173522636Y-84076852D01*
X173468120Y-84072162D01*
X173432163Y-84061549D01*
X173404518Y-84042728D01*
X173391035Y-84029950D01*
X173351583Y-83977710D01*
X173348372Y-83931458D01*
X173380951Y-83883733D01*
X173382154Y-83882523D01*
X173407332Y-83863106D01*
X173441553Y-83851293D01*
X173494252Y-83845335D01*
X173574869Y-83843480D01*
X173592729Y-83843446D01*
X173703825Y-83847930D01*
X173780839Y-83862526D01*
X173827853Y-83888950D01*
X173848950Y-83928917D01*
X173851077Y-83952016D01*
X173841100Y-84006838D01*
X173808248Y-84044442D01*
X173748143Y-84067077D01*
X173656402Y-84076994D01*
X173605958Y-84077908D01*
X173605958Y-84265696D01*
X173623940Y-84265378D01*
X173711321Y-84262727D01*
X173775095Y-84258994D01*
X173820418Y-84253693D01*
X173852445Y-84246342D01*
X173876332Y-84236457D01*
X173897236Y-84223554D01*
X173905102Y-84218021D01*
X173979405Y-84144631D01*
X174021533Y-84051840D01*
X174033278Y-83944504D01*
X174021495Y-83850714D01*
G36*
X174010911Y-82347936D02*
G01*
X173974642Y-82285233D01*
X173938642Y-82241639D01*
X173900925Y-82209755D01*
X173854801Y-82187790D01*
X173793579Y-82173951D01*
X173710569Y-82166447D01*
X173599081Y-82163483D01*
X173518938Y-82163139D01*
X173223935Y-82163139D01*
X173149485Y-82329215D01*
X173472598Y-82338985D01*
X173593271Y-82343021D01*
X173680859Y-82347256D01*
X173741350Y-82352503D01*
X173780732Y-82359575D01*
X173804993Y-82369289D01*
X173820120Y-82382456D01*
X173823394Y-82386681D01*
X173848966Y-82450691D01*
X173838847Y-82515392D01*
X173812000Y-82553908D01*
X173792976Y-82569575D01*
X173768012Y-82580420D01*
X173730166Y-82587312D01*
X173672498Y-82591121D01*
X173588065Y-82592717D01*
X173500072Y-82592985D01*
X173389677Y-82593037D01*
X173311537Y-82594928D01*
X173258835Y-82601255D01*
X173224758Y-82614617D01*
X173202489Y-82637615D01*
X173185213Y-82672846D01*
X173167262Y-82719903D01*
X173147722Y-82771297D01*
X173494515Y-82765179D01*
X173619532Y-82762716D01*
X173711918Y-82759833D01*
X173778119Y-82755702D01*
X173824580Y-82749493D01*
X173857744Y-82740374D01*
X173884056Y-82727517D01*
X173907271Y-82712016D01*
X173981431Y-82637229D01*
X174024316Y-82545972D01*
X174034588Y-82446717D01*
X174010911Y-82347936D01*
X174010911Y-82347936D01*
G37*
X174010911Y-82347936D02*
X173974642Y-82285233D01*
X173938642Y-82241639D01*
X173900925Y-82209755D01*
X173854801Y-82187790D01*
X173793579Y-82173951D01*
X173710569Y-82166447D01*
X173599081Y-82163483D01*
X173518938Y-82163139D01*
X173223935Y-82163139D01*
X173149485Y-82329215D01*
X173472598Y-82338985D01*
X173593271Y-82343021D01*
X173680859Y-82347256D01*
X173741350Y-82352503D01*
X173780732Y-82359575D01*
X173804993Y-82369289D01*
X173820120Y-82382456D01*
X173823394Y-82386681D01*
X173848966Y-82450691D01*
X173838847Y-82515392D01*
X173812000Y-82553908D01*
X173792976Y-82569575D01*
X173768012Y-82580420D01*
X173730166Y-82587312D01*
X173672498Y-82591121D01*
X173588065Y-82592717D01*
X173500072Y-82592985D01*
X173389677Y-82593037D01*
X173311537Y-82594928D01*
X173258835Y-82601255D01*
X173224758Y-82614617D01*
X173202489Y-82637615D01*
X173185213Y-82672846D01*
X173167262Y-82719903D01*
X173147722Y-82771297D01*
X173494515Y-82765179D01*
X173619532Y-82762716D01*
X173711918Y-82759833D01*
X173778119Y-82755702D01*
X173824580Y-82749493D01*
X173857744Y-82740374D01*
X173884056Y-82727517D01*
X173907271Y-82712016D01*
X173981431Y-82637229D01*
X174024316Y-82545972D01*
X174034588Y-82446717D01*
X174010911Y-82347936D01*
G36*
X174018744Y-84602714D02*
G01*
X173970591Y-84511136D01*
X173893095Y-84443551D01*
X173843273Y-84419543D01*
X173768467Y-84400862D01*
X173673948Y-84391299D01*
X173570790Y-84390392D01*
X173470065Y-84397679D01*
X173382847Y-84412697D01*
X173320209Y-84434985D01*
X173309421Y-84441835D01*
X173228895Y-84522968D01*
X173180664Y-84619334D01*
X173166550Y-84723899D01*
X173188371Y-84829632D01*
X173201453Y-84859057D01*
X173241769Y-84916359D01*
X173295225Y-84966650D01*
X173302005Y-84971403D01*
X173334679Y-84990722D01*
X173369606Y-85003492D01*
X173415586Y-85011036D01*
X173481416Y-85014676D01*
X173575895Y-85015735D01*
X173597077Y-85015754D01*
X173603818Y-85015706D01*
X173603818Y-84820369D01*
X173514651Y-84819232D01*
X173455480Y-84814759D01*
X173417259Y-84805354D01*
X173390947Y-84789424D01*
X173382154Y-84781292D01*
X173348739Y-84734542D01*
X173350263Y-84689153D01*
X173379248Y-84643260D01*
X173410191Y-84615888D01*
X173455357Y-84599677D01*
X173526580Y-84590574D01*
X173534886Y-84589949D01*
X173663963Y-84588396D01*
X173759828Y-84604635D01*
X173821893Y-84638448D01*
X173849568Y-84689616D01*
X173851077Y-84707880D01*
X173843487Y-84755840D01*
X173817192Y-84788647D01*
X173766905Y-84808705D01*
X173687336Y-84818422D01*
X173603818Y-84820369D01*
X173603818Y-85015706D01*
X173697751Y-85015026D01*
X173768094Y-85011971D01*
X173816837Y-85005278D01*
X173852712Y-84993640D01*
X173884452Y-84975747D01*
X173890352Y-84971792D01*
X173969896Y-84905333D01*
X174016071Y-84832915D01*
X174034401Y-84744751D01*
X174035297Y-84714813D01*
X174018744Y-84602714D01*
X174018744Y-84602714D01*
G37*
X174018744Y-84602714D02*
X173970591Y-84511136D01*
X173893095Y-84443551D01*
X173843273Y-84419543D01*
X173768467Y-84400862D01*
X173673948Y-84391299D01*
X173570790Y-84390392D01*
X173470065Y-84397679D01*
X173382847Y-84412697D01*
X173320209Y-84434985D01*
X173309421Y-84441835D01*
X173228895Y-84522968D01*
X173180664Y-84619334D01*
X173166550Y-84723899D01*
X173188371Y-84829632D01*
X173201453Y-84859057D01*
X173241769Y-84916359D01*
X173295225Y-84966650D01*
X173302005Y-84971403D01*
X173334679Y-84990722D01*
X173369606Y-85003492D01*
X173415586Y-85011036D01*
X173481416Y-85014676D01*
X173575895Y-85015735D01*
X173597077Y-85015754D01*
X173603818Y-85015706D01*
X173603818Y-84820369D01*
X173514651Y-84819232D01*
X173455480Y-84814759D01*
X173417259Y-84805354D01*
X173390947Y-84789424D01*
X173382154Y-84781292D01*
X173348739Y-84734542D01*
X173350263Y-84689153D01*
X173379248Y-84643260D01*
X173410191Y-84615888D01*
X173455357Y-84599677D01*
X173526580Y-84590574D01*
X173534886Y-84589949D01*
X173663963Y-84588396D01*
X173759828Y-84604635D01*
X173821893Y-84638448D01*
X173849568Y-84689616D01*
X173851077Y-84707880D01*
X173843487Y-84755840D01*
X173817192Y-84788647D01*
X173766905Y-84808705D01*
X173687336Y-84818422D01*
X173603818Y-84820369D01*
X173603818Y-85015706D01*
X173697751Y-85015026D01*
X173768094Y-85011971D01*
X173816837Y-85005278D01*
X173852712Y-84993640D01*
X173884452Y-84975747D01*
X173890352Y-84971792D01*
X173969896Y-84905333D01*
X174016071Y-84832915D01*
X174034401Y-84744751D01*
X174035297Y-84714813D01*
X174018744Y-84602714D01*
G36*
X174006255Y-83085346D02*
G01*
X173954433Y-83008314D01*
X173879588Y-82948784D01*
X173784346Y-82913222D01*
X173714244Y-82906029D01*
X173684991Y-82906846D01*
X173662593Y-82913686D01*
X173642526Y-82932488D01*
X173620267Y-82969192D01*
X173591291Y-83029738D01*
X173551073Y-83120066D01*
X173550871Y-83120523D01*
X173512790Y-83203667D01*
X173478975Y-83271847D01*
X173453067Y-83318095D01*
X173438705Y-83335442D01*
X173438589Y-83335446D01*
X173407315Y-83320157D01*
X173372843Y-83284404D01*
X173348010Y-83243358D01*
X173343077Y-83222563D01*
X173360138Y-83165830D01*
X173402867Y-83116973D01*
X173449845Y-83093135D01*
X173484478Y-83070203D01*
X173523919Y-83025282D01*
X173557991Y-82972477D01*
X173576520Y-82925890D01*
X173577538Y-82916148D01*
X173560785Y-82905182D01*
X173517961Y-82904521D01*
X173460219Y-82912580D01*
X173398711Y-82927773D01*
X173344591Y-82948514D01*
X173342490Y-82949562D01*
X173255340Y-83011979D01*
X173196061Y-83092874D01*
X173166966Y-83184744D01*
X173170366Y-83280087D01*
X173208572Y-83371402D01*
X173211259Y-83375462D01*
X173276358Y-83447294D01*
X173361295Y-83494527D01*
X173472979Y-83520666D01*
X173504357Y-83524174D01*
X173652464Y-83530387D01*
X173721532Y-83522939D01*
X173721532Y-83335446D01*
X173678448Y-83333010D01*
X173665874Y-83319686D01*
X173675281Y-83286468D01*
X173697517Y-83234106D01*
X173725390Y-83175576D01*
X173726128Y-83174121D01*
X173752223Y-83124511D01*
X173769637Y-83104600D01*
X173787893Y-83109510D01*
X173811880Y-83130184D01*
X173846594Y-83182781D01*
X173849144Y-83239423D01*
X173823881Y-83290231D01*
X173775153Y-83325324D01*
X173721532Y-83335446D01*
X173721532Y-83522939D01*
X173770964Y-83517608D01*
X173864945Y-83484822D01*
X173930785Y-83439179D01*
X173997319Y-83356798D01*
X174030324Y-83266054D01*
X174032427Y-83173415D01*
X174006255Y-83085346D01*
X174006255Y-83085346D01*
G37*
X174006255Y-83085346D02*
X173954433Y-83008314D01*
X173879588Y-82948784D01*
X173784346Y-82913222D01*
X173714244Y-82906029D01*
X173684991Y-82906846D01*
X173662593Y-82913686D01*
X173642526Y-82932488D01*
X173620267Y-82969192D01*
X173591291Y-83029738D01*
X173551073Y-83120066D01*
X173550871Y-83120523D01*
X173512790Y-83203667D01*
X173478975Y-83271847D01*
X173453067Y-83318095D01*
X173438705Y-83335442D01*
X173438589Y-83335446D01*
X173407315Y-83320157D01*
X173372843Y-83284404D01*
X173348010Y-83243358D01*
X173343077Y-83222563D01*
X173360138Y-83165830D01*
X173402867Y-83116973D01*
X173449845Y-83093135D01*
X173484478Y-83070203D01*
X173523919Y-83025282D01*
X173557991Y-82972477D01*
X173576520Y-82925890D01*
X173577538Y-82916148D01*
X173560785Y-82905182D01*
X173517961Y-82904521D01*
X173460219Y-82912580D01*
X173398711Y-82927773D01*
X173344591Y-82948514D01*
X173342490Y-82949562D01*
X173255340Y-83011979D01*
X173196061Y-83092874D01*
X173166966Y-83184744D01*
X173170366Y-83280087D01*
X173208572Y-83371402D01*
X173211259Y-83375462D01*
X173276358Y-83447294D01*
X173361295Y-83494527D01*
X173472979Y-83520666D01*
X173504357Y-83524174D01*
X173652464Y-83530387D01*
X173721532Y-83522939D01*
X173721532Y-83335446D01*
X173678448Y-83333010D01*
X173665874Y-83319686D01*
X173675281Y-83286468D01*
X173697517Y-83234106D01*
X173725390Y-83175576D01*
X173726128Y-83174121D01*
X173752223Y-83124511D01*
X173769637Y-83104600D01*
X173787893Y-83109510D01*
X173811880Y-83130184D01*
X173846594Y-83182781D01*
X173849144Y-83239423D01*
X173823881Y-83290231D01*
X173775153Y-83325324D01*
X173721532Y-83335446D01*
X173721532Y-83522939D01*
X173770964Y-83517608D01*
X173864945Y-83484822D01*
X173930785Y-83439179D01*
X173997319Y-83356798D01*
X174030324Y-83266054D01*
X174032427Y-83173415D01*
X174006255Y-83085346D01*
G36*
X174113880Y-81459754D02*
G01*
X174034020Y-81454028D01*
X173986961Y-81447451D01*
X173966434Y-81438338D01*
X173966171Y-81425002D01*
X173968622Y-81420677D01*
X173986364Y-81363156D01*
X173985328Y-81288332D01*
X173967090Y-81212261D01*
X173943495Y-81164682D01*
X173905802Y-81115898D01*
X173863145Y-81080236D01*
X173808943Y-81055755D01*
X173736616Y-81040513D01*
X173639581Y-81032570D01*
X173511258Y-81029984D01*
X173486642Y-81029938D01*
X173210130Y-81029908D01*
X173188680Y-81091439D01*
X173174088Y-81135141D01*
X173167294Y-81159118D01*
X173167231Y-81159823D01*
X173185655Y-81162185D01*
X173236474Y-81164194D01*
X173313007Y-81165699D01*
X173408570Y-81166547D01*
X173466671Y-81166677D01*
X173581229Y-81166949D01*
X173663333Y-81168348D01*
X173719607Y-81171751D01*
X173756674Y-81178033D01*
X173781156Y-81188071D01*
X173799675Y-81202739D01*
X173808594Y-81211898D01*
X173844534Y-81274811D01*
X173847225Y-81343464D01*
X173816830Y-81405752D01*
X173805856Y-81417271D01*
X173785221Y-81434167D01*
X173760744Y-81445886D01*
X173725353Y-81453367D01*
X173671974Y-81457546D01*
X173593534Y-81459363D01*
X173485383Y-81459754D01*
X173210130Y-81459754D01*
X173188680Y-81521285D01*
X173174088Y-81564987D01*
X173167294Y-81588964D01*
X173167231Y-81589670D01*
X173185931Y-81591474D01*
X173238678Y-81593100D01*
X173320443Y-81594483D01*
X173426195Y-81595558D01*
X173550906Y-81596260D01*
X173689545Y-81596523D01*
X174224194Y-81596523D01*
X174277764Y-81469523D01*
X174113880Y-81459754D01*
X174113880Y-81459754D01*
G37*
X174113880Y-81459754D02*
X174034020Y-81454028D01*
X173986961Y-81447451D01*
X173966434Y-81438338D01*
X173966171Y-81425002D01*
X173968622Y-81420677D01*
X173986364Y-81363156D01*
X173985328Y-81288332D01*
X173967090Y-81212261D01*
X173943495Y-81164682D01*
X173905802Y-81115898D01*
X173863145Y-81080236D01*
X173808943Y-81055755D01*
X173736616Y-81040513D01*
X173639581Y-81032570D01*
X173511258Y-81029984D01*
X173486642Y-81029938D01*
X173210130Y-81029908D01*
X173188680Y-81091439D01*
X173174088Y-81135141D01*
X173167294Y-81159118D01*
X173167231Y-81159823D01*
X173185655Y-81162185D01*
X173236474Y-81164194D01*
X173313007Y-81165699D01*
X173408570Y-81166547D01*
X173466671Y-81166677D01*
X173581229Y-81166949D01*
X173663333Y-81168348D01*
X173719607Y-81171751D01*
X173756674Y-81178033D01*
X173781156Y-81188071D01*
X173799675Y-81202739D01*
X173808594Y-81211898D01*
X173844534Y-81274811D01*
X173847225Y-81343464D01*
X173816830Y-81405752D01*
X173805856Y-81417271D01*
X173785221Y-81434167D01*
X173760744Y-81445886D01*
X173725353Y-81453367D01*
X173671974Y-81457546D01*
X173593534Y-81459363D01*
X173485383Y-81459754D01*
X173210130Y-81459754D01*
X173188680Y-81521285D01*
X173174088Y-81564987D01*
X173167294Y-81588964D01*
X173167231Y-81589670D01*
X173185931Y-81591474D01*
X173238678Y-81593100D01*
X173320443Y-81594483D01*
X173426195Y-81595558D01*
X173550906Y-81596260D01*
X173689545Y-81596523D01*
X174224194Y-81596523D01*
X174277764Y-81469523D01*
X174113880Y-81459754D01*
G36*
X173979697Y-80566099D02*
G01*
X173951267Y-80489540D01*
X173950721Y-80488664D01*
X173915873Y-80441315D01*
X173875148Y-80406359D01*
X173822075Y-80381775D01*
X173750186Y-80365538D01*
X173653008Y-80355625D01*
X173524072Y-80350014D01*
X173505702Y-80349523D01*
X173228713Y-80342459D01*
X173197972Y-80401905D01*
X173177198Y-80444919D01*
X173167354Y-80470890D01*
X173167231Y-80472091D01*
X173185394Y-80476586D01*
X173234388Y-80480156D01*
X173305969Y-80482352D01*
X173363932Y-80482831D01*
X173457830Y-80482842D01*
X173516797Y-80487134D01*
X173544921Y-80502097D01*
X173546294Y-80534118D01*
X173525002Y-80589586D01*
X173485864Y-80673331D01*
X173453357Y-80734911D01*
X173425155Y-80766583D01*
X173394418Y-80775894D01*
X173392896Y-80775908D01*
X173339946Y-80760543D01*
X173311340Y-80715053D01*
X173307197Y-80645434D01*
X173307916Y-80595287D01*
X173293473Y-80568846D01*
X173258782Y-80552357D01*
X173214584Y-80542867D01*
X173189507Y-80556543D01*
X173185918Y-80561693D01*
X173171504Y-80610175D01*
X173169463Y-80678069D01*
X173179017Y-80747988D01*
X173196478Y-80797532D01*
X173254636Y-80866030D01*
X173335592Y-80904966D01*
X173398840Y-80912677D01*
X173455889Y-80906793D01*
X173502458Y-80885499D01*
X173543819Y-80843335D01*
X173585245Y-80774841D01*
X173632007Y-80674556D01*
X173634650Y-80668446D01*
X173676383Y-80578110D01*
X173710609Y-80522365D01*
X173741365Y-80498471D01*
X173772689Y-80503687D01*
X173808617Y-80535272D01*
X173816884Y-80544717D01*
X173848942Y-80607983D01*
X173847593Y-80673536D01*
X173816162Y-80730628D01*
X173757976Y-80768507D01*
X173746554Y-80772026D01*
X173691163Y-80806300D01*
X173664482Y-80849791D01*
X173638040Y-80912677D01*
X173706452Y-80912677D01*
X173805890Y-80893548D01*
X173897098Y-80836769D01*
X173927611Y-80807222D01*
X173966772Y-80740058D01*
X173984500Y-80654644D01*
X173979697Y-80566099D01*
X173979697Y-80566099D01*
G37*
X173979697Y-80566099D02*
X173951267Y-80489540D01*
X173950721Y-80488664D01*
X173915873Y-80441315D01*
X173875148Y-80406359D01*
X173822075Y-80381775D01*
X173750186Y-80365538D01*
X173653008Y-80355625D01*
X173524072Y-80350014D01*
X173505702Y-80349523D01*
X173228713Y-80342459D01*
X173197972Y-80401905D01*
X173177198Y-80444919D01*
X173167354Y-80470890D01*
X173167231Y-80472091D01*
X173185394Y-80476586D01*
X173234388Y-80480156D01*
X173305969Y-80482352D01*
X173363932Y-80482831D01*
X173457830Y-80482842D01*
X173516797Y-80487134D01*
X173544921Y-80502097D01*
X173546294Y-80534118D01*
X173525002Y-80589586D01*
X173485864Y-80673331D01*
X173453357Y-80734911D01*
X173425155Y-80766583D01*
X173394418Y-80775894D01*
X173392896Y-80775908D01*
X173339946Y-80760543D01*
X173311340Y-80715053D01*
X173307197Y-80645434D01*
X173307916Y-80595287D01*
X173293473Y-80568846D01*
X173258782Y-80552357D01*
X173214584Y-80542867D01*
X173189507Y-80556543D01*
X173185918Y-80561693D01*
X173171504Y-80610175D01*
X173169463Y-80678069D01*
X173179017Y-80747988D01*
X173196478Y-80797532D01*
X173254636Y-80866030D01*
X173335592Y-80904966D01*
X173398840Y-80912677D01*
X173455889Y-80906793D01*
X173502458Y-80885499D01*
X173543819Y-80843335D01*
X173585245Y-80774841D01*
X173632007Y-80674556D01*
X173634650Y-80668446D01*
X173676383Y-80578110D01*
X173710609Y-80522365D01*
X173741365Y-80498471D01*
X173772689Y-80503687D01*
X173808617Y-80535272D01*
X173816884Y-80544717D01*
X173848942Y-80607983D01*
X173847593Y-80673536D01*
X173816162Y-80730628D01*
X173757976Y-80768507D01*
X173746554Y-80772026D01*
X173691163Y-80806300D01*
X173664482Y-80849791D01*
X173638040Y-80912677D01*
X173706452Y-80912677D01*
X173805890Y-80893548D01*
X173897098Y-80836769D01*
X173927611Y-80807222D01*
X173966772Y-80740058D01*
X173984500Y-80654644D01*
X173979697Y-80566099D01*
G36*
X173981330Y-79906238D02*
G01*
X173948579Y-79817483D01*
X173890650Y-79745578D01*
X173849872Y-79717456D01*
X173775046Y-79686798D01*
X173720942Y-79687435D01*
X173684554Y-79719613D01*
X173678367Y-79731519D01*
X173659075Y-79782925D01*
X173664018Y-79809178D01*
X173696413Y-79818070D01*
X173714308Y-79818523D01*
X173780141Y-79834803D01*
X173826193Y-79877235D01*
X173848436Y-79936212D01*
X173842839Y-80002125D01*
X173813771Y-80055705D01*
X173797190Y-80073802D01*
X173777075Y-80086629D01*
X173746668Y-80095294D01*
X173699212Y-80100904D01*
X173627950Y-80104565D01*
X173526125Y-80107385D01*
X173493885Y-80108116D01*
X173383590Y-80110780D01*
X173305964Y-80113808D01*
X173254604Y-80118350D01*
X173223110Y-80125554D01*
X173205080Y-80136567D01*
X173194112Y-80152540D01*
X173189267Y-80162766D01*
X173172699Y-80206194D01*
X173167231Y-80231758D01*
X173185493Y-80240205D01*
X173240704Y-80245361D01*
X173333501Y-80247254D01*
X173464522Y-80245911D01*
X173484731Y-80245493D01*
X173604267Y-80242542D01*
X173691551Y-80239052D01*
X173753409Y-80234086D01*
X173796664Y-80226707D01*
X173828140Y-80215976D01*
X173854661Y-80200955D01*
X173866025Y-80193098D01*
X173916308Y-80148047D01*
X173955419Y-80097660D01*
X173958833Y-80091492D01*
X173985788Y-80001142D01*
X173981330Y-79906238D01*
X173981330Y-79906238D01*
G37*
X173981330Y-79906238D02*
X173948579Y-79817483D01*
X173890650Y-79745578D01*
X173849872Y-79717456D01*
X173775046Y-79686798D01*
X173720942Y-79687435D01*
X173684554Y-79719613D01*
X173678367Y-79731519D01*
X173659075Y-79782925D01*
X173664018Y-79809178D01*
X173696413Y-79818070D01*
X173714308Y-79818523D01*
X173780141Y-79834803D01*
X173826193Y-79877235D01*
X173848436Y-79936212D01*
X173842839Y-80002125D01*
X173813771Y-80055705D01*
X173797190Y-80073802D01*
X173777075Y-80086629D01*
X173746668Y-80095294D01*
X173699212Y-80100904D01*
X173627950Y-80104565D01*
X173526125Y-80107385D01*
X173493885Y-80108116D01*
X173383590Y-80110780D01*
X173305964Y-80113808D01*
X173254604Y-80118350D01*
X173223110Y-80125554D01*
X173205080Y-80136567D01*
X173194112Y-80152540D01*
X173189267Y-80162766D01*
X173172699Y-80206194D01*
X173167231Y-80231758D01*
X173185493Y-80240205D01*
X173240704Y-80245361D01*
X173333501Y-80247254D01*
X173464522Y-80245911D01*
X173484731Y-80245493D01*
X173604267Y-80242542D01*
X173691551Y-80239052D01*
X173753409Y-80234086D01*
X173796664Y-80226707D01*
X173828140Y-80215976D01*
X173854661Y-80200955D01*
X173866025Y-80193098D01*
X173916308Y-80148047D01*
X173955419Y-80097660D01*
X173958833Y-80091492D01*
X173985788Y-80001142D01*
X173981330Y-79906238D01*
G36*
X173825711Y-79017519D02*
G01*
X173679680Y-79017767D01*
X173567345Y-79018728D01*
X173483322Y-79020806D01*
X173422231Y-79024407D01*
X173378691Y-79029935D01*
X173347321Y-79037796D01*
X173322738Y-79048393D01*
X173308706Y-79056418D01*
X173232612Y-79122872D01*
X173184916Y-79207130D01*
X173167801Y-79300351D01*
X173183454Y-79393700D01*
X173211582Y-79449288D01*
X173260240Y-79507643D01*
X173319667Y-79547414D01*
X173397493Y-79571410D01*
X173501348Y-79582439D01*
X173577538Y-79584001D01*
X173583014Y-79583791D01*
X173583014Y-79447292D01*
X173495645Y-79446459D01*
X173437808Y-79442639D01*
X173399971Y-79433854D01*
X173372602Y-79418126D01*
X173351958Y-79399334D01*
X173312110Y-79336225D01*
X173308705Y-79268463D01*
X173341975Y-79204421D01*
X173346483Y-79199436D01*
X173369933Y-79178161D01*
X173397834Y-79164821D01*
X173439359Y-79157599D01*
X173503684Y-79154677D01*
X173574800Y-79154215D01*
X173664142Y-79155217D01*
X173723742Y-79159362D01*
X173762911Y-79168364D01*
X173790960Y-79183933D01*
X173805856Y-79196698D01*
X173843425Y-79256000D01*
X173847943Y-79324299D01*
X173819247Y-79389490D01*
X173808594Y-79402072D01*
X173784937Y-79423489D01*
X173756749Y-79436856D01*
X173714755Y-79444034D01*
X173649681Y-79446881D01*
X173583014Y-79447292D01*
X173583014Y-79583791D01*
X173700235Y-79579278D01*
X173792423Y-79563238D01*
X173861731Y-79533072D01*
X173915789Y-79485971D01*
X173943495Y-79449288D01*
X173973428Y-79382610D01*
X173987322Y-79305328D01*
X173983603Y-79233490D01*
X173968600Y-79193292D01*
X173964330Y-79177518D01*
X173980250Y-79167050D01*
X174022911Y-79159744D01*
X174087894Y-79154215D01*
X174160268Y-79148163D01*
X174203813Y-79139756D01*
X174228713Y-79124459D01*
X174245155Y-79097736D01*
X174252436Y-79080946D01*
X174279037Y-79017446D01*
X173825711Y-79017519D01*
X173825711Y-79017519D01*
G37*
X173825711Y-79017519D02*
X173679680Y-79017767D01*
X173567345Y-79018728D01*
X173483322Y-79020806D01*
X173422231Y-79024407D01*
X173378691Y-79029935D01*
X173347321Y-79037796D01*
X173322738Y-79048393D01*
X173308706Y-79056418D01*
X173232612Y-79122872D01*
X173184916Y-79207130D01*
X173167801Y-79300351D01*
X173183454Y-79393700D01*
X173211582Y-79449288D01*
X173260240Y-79507643D01*
X173319667Y-79547414D01*
X173397493Y-79571410D01*
X173501348Y-79582439D01*
X173577538Y-79584001D01*
X173583014Y-79583791D01*
X173583014Y-79447292D01*
X173495645Y-79446459D01*
X173437808Y-79442639D01*
X173399971Y-79433854D01*
X173372602Y-79418126D01*
X173351958Y-79399334D01*
X173312110Y-79336225D01*
X173308705Y-79268463D01*
X173341975Y-79204421D01*
X173346483Y-79199436D01*
X173369933Y-79178161D01*
X173397834Y-79164821D01*
X173439359Y-79157599D01*
X173503684Y-79154677D01*
X173574800Y-79154215D01*
X173664142Y-79155217D01*
X173723742Y-79159362D01*
X173762911Y-79168364D01*
X173790960Y-79183933D01*
X173805856Y-79196698D01*
X173843425Y-79256000D01*
X173847943Y-79324299D01*
X173819247Y-79389490D01*
X173808594Y-79402072D01*
X173784937Y-79423489D01*
X173756749Y-79436856D01*
X173714755Y-79444034D01*
X173649681Y-79446881D01*
X173583014Y-79447292D01*
X173583014Y-79583791D01*
X173700235Y-79579278D01*
X173792423Y-79563238D01*
X173861731Y-79533072D01*
X173915789Y-79485971D01*
X173943495Y-79449288D01*
X173973428Y-79382610D01*
X173987322Y-79305328D01*
X173983603Y-79233490D01*
X173968600Y-79193292D01*
X173964330Y-79177518D01*
X173980250Y-79167050D01*
X174022911Y-79159744D01*
X174087894Y-79154215D01*
X174160268Y-79148163D01*
X174203813Y-79139756D01*
X174228713Y-79124459D01*
X174245155Y-79097736D01*
X174252436Y-79080946D01*
X174279037Y-79017446D01*
X173825711Y-79017519D01*
G36*
X173969338Y-78223671D02*
G01*
X173917932Y-78220689D01*
X173839808Y-78218353D01*
X173741143Y-78216851D01*
X173637657Y-78216369D01*
X173287467Y-78216369D01*
X173225637Y-78278199D01*
X173187538Y-78320807D01*
X173172105Y-78358210D01*
X173173082Y-78409330D01*
X173175567Y-78429622D01*
X173182800Y-78493046D01*
X173186945Y-78545505D01*
X173187328Y-78558292D01*
X173184824Y-78601401D01*
X173178538Y-78663056D01*
X173175567Y-78686962D01*
X173170972Y-78745678D01*
X173180954Y-78785136D01*
X173211772Y-78824262D01*
X173225637Y-78838385D01*
X173287467Y-78900215D01*
X173942497Y-78900215D01*
X173965171Y-78850450D01*
X173981966Y-78807598D01*
X173987846Y-78782527D01*
X173969264Y-78776099D01*
X173917345Y-78770091D01*
X173837828Y-78764903D01*
X173736454Y-78760936D01*
X173650808Y-78759023D01*
X173313769Y-78753677D01*
X173307175Y-78707040D01*
X173311786Y-78664624D01*
X173326713Y-78643840D01*
X173354623Y-78638030D01*
X173414075Y-78633070D01*
X173497534Y-78629354D01*
X173597468Y-78627276D01*
X173648896Y-78626976D01*
X173944946Y-78626677D01*
X173966396Y-78565146D01*
X173980980Y-78521596D01*
X173987781Y-78497906D01*
X173987846Y-78497223D01*
X173969358Y-78494846D01*
X173918094Y-78492234D01*
X173840351Y-78489605D01*
X173742426Y-78487179D01*
X173650808Y-78485485D01*
X173313769Y-78480139D01*
X173313769Y-78362908D01*
X173621254Y-78357528D01*
X173928739Y-78352149D01*
X173958293Y-78294999D01*
X173978587Y-78252803D01*
X173987796Y-78227830D01*
X173987846Y-78227109D01*
X173969338Y-78223671D01*
X173969338Y-78223671D01*
G37*
X173969338Y-78223671D02*
X173917932Y-78220689D01*
X173839808Y-78218353D01*
X173741143Y-78216851D01*
X173637657Y-78216369D01*
X173287467Y-78216369D01*
X173225637Y-78278199D01*
X173187538Y-78320807D01*
X173172105Y-78358210D01*
X173173082Y-78409330D01*
X173175567Y-78429622D01*
X173182800Y-78493046D01*
X173186945Y-78545505D01*
X173187328Y-78558292D01*
X173184824Y-78601401D01*
X173178538Y-78663056D01*
X173175567Y-78686962D01*
X173170972Y-78745678D01*
X173180954Y-78785136D01*
X173211772Y-78824262D01*
X173225637Y-78838385D01*
X173287467Y-78900215D01*
X173942497Y-78900215D01*
X173965171Y-78850450D01*
X173981966Y-78807598D01*
X173987846Y-78782527D01*
X173969264Y-78776099D01*
X173917345Y-78770091D01*
X173837828Y-78764903D01*
X173736454Y-78760936D01*
X173650808Y-78759023D01*
X173313769Y-78753677D01*
X173307175Y-78707040D01*
X173311786Y-78664624D01*
X173326713Y-78643840D01*
X173354623Y-78638030D01*
X173414075Y-78633070D01*
X173497534Y-78629354D01*
X173597468Y-78627276D01*
X173648896Y-78626976D01*
X173944946Y-78626677D01*
X173966396Y-78565146D01*
X173980980Y-78521596D01*
X173987781Y-78497906D01*
X173987846Y-78497223D01*
X173969358Y-78494846D01*
X173918094Y-78492234D01*
X173840351Y-78489605D01*
X173742426Y-78487179D01*
X173650808Y-78485485D01*
X173313769Y-78480139D01*
X173313769Y-78362908D01*
X173621254Y-78357528D01*
X173928739Y-78352149D01*
X173958293Y-78294999D01*
X173978587Y-78252803D01*
X173987796Y-78227830D01*
X173987846Y-78227109D01*
X173969338Y-78223671D01*
G36*
X173972472Y-77732267D02*
G01*
X173946883Y-77676010D01*
X173915876Y-77631853D01*
X173881205Y-77599499D01*
X173836480Y-77577162D01*
X173775308Y-77563054D01*
X173691299Y-77555389D01*
X173578060Y-77552380D01*
X173503491Y-77552062D01*
X173212580Y-77552062D01*
X173189905Y-77601827D01*
X173173333Y-77641024D01*
X173167231Y-77660443D01*
X173185390Y-77664158D01*
X173234352Y-77667105D01*
X173305847Y-77668909D01*
X173362615Y-77669292D01*
X173444629Y-77670939D01*
X173509691Y-77675378D01*
X173549533Y-77681860D01*
X173558000Y-77687010D01*
X173549354Y-77721623D01*
X173527177Y-77775960D01*
X173497114Y-77838878D01*
X173464808Y-77899232D01*
X173435902Y-77945879D01*
X173416039Y-77967674D01*
X173415825Y-77967761D01*
X173379065Y-77965886D01*
X173343974Y-77949075D01*
X173315472Y-77919561D01*
X173305939Y-77876484D01*
X173307050Y-77839668D01*
X173307867Y-77787526D01*
X173295651Y-77760156D01*
X173263376Y-77743718D01*
X173257290Y-77741645D01*
X173211261Y-77734519D01*
X173183313Y-77753576D01*
X173169993Y-77803247D01*
X173167530Y-77856903D01*
X173185790Y-77953458D01*
X173211869Y-78003441D01*
X173273132Y-78065171D01*
X173348330Y-78097910D01*
X173427789Y-78100847D01*
X173501833Y-78073176D01*
X173548231Y-78031553D01*
X173574207Y-77989996D01*
X173607093Y-77924678D01*
X173640443Y-77848562D01*
X173645539Y-77835874D01*
X173682435Y-77752267D01*
X173714954Y-77704070D01*
X173747282Y-77688570D01*
X173783606Y-77703050D01*
X173812000Y-77727908D01*
X173846961Y-77786661D01*
X173849583Y-77851307D01*
X173822642Y-77910592D01*
X173768912Y-77953261D01*
X173755050Y-77958861D01*
X173704064Y-77991467D01*
X173666213Y-78039070D01*
X173635150Y-78099139D01*
X173723232Y-78099139D01*
X173777049Y-78095603D01*
X173819466Y-78080444D01*
X173864721Y-78046832D01*
X173899580Y-78014565D01*
X173948938Y-77964391D01*
X173975453Y-77925407D01*
X173986089Y-77883536D01*
X173987846Y-77836140D01*
X173972472Y-77732267D01*
X173972472Y-77732267D01*
G37*
X173972472Y-77732267D02*
X173946883Y-77676010D01*
X173915876Y-77631853D01*
X173881205Y-77599499D01*
X173836480Y-77577162D01*
X173775308Y-77563054D01*
X173691299Y-77555389D01*
X173578060Y-77552380D01*
X173503491Y-77552062D01*
X173212580Y-77552062D01*
X173189905Y-77601827D01*
X173173333Y-77641024D01*
X173167231Y-77660443D01*
X173185390Y-77664158D01*
X173234352Y-77667105D01*
X173305847Y-77668909D01*
X173362615Y-77669292D01*
X173444629Y-77670939D01*
X173509691Y-77675378D01*
X173549533Y-77681860D01*
X173558000Y-77687010D01*
X173549354Y-77721623D01*
X173527177Y-77775960D01*
X173497114Y-77838878D01*
X173464808Y-77899232D01*
X173435902Y-77945879D01*
X173416039Y-77967674D01*
X173415825Y-77967761D01*
X173379065Y-77965886D01*
X173343974Y-77949075D01*
X173315472Y-77919561D01*
X173305939Y-77876484D01*
X173307050Y-77839668D01*
X173307867Y-77787526D01*
X173295651Y-77760156D01*
X173263376Y-77743718D01*
X173257290Y-77741645D01*
X173211261Y-77734519D01*
X173183313Y-77753576D01*
X173169993Y-77803247D01*
X173167530Y-77856903D01*
X173185790Y-77953458D01*
X173211869Y-78003441D01*
X173273132Y-78065171D01*
X173348330Y-78097910D01*
X173427789Y-78100847D01*
X173501833Y-78073176D01*
X173548231Y-78031553D01*
X173574207Y-77989996D01*
X173607093Y-77924678D01*
X173640443Y-77848562D01*
X173645539Y-77835874D01*
X173682435Y-77752267D01*
X173714954Y-77704070D01*
X173747282Y-77688570D01*
X173783606Y-77703050D01*
X173812000Y-77727908D01*
X173846961Y-77786661D01*
X173849583Y-77851307D01*
X173822642Y-77910592D01*
X173768912Y-77953261D01*
X173755050Y-77958861D01*
X173704064Y-77991467D01*
X173666213Y-78039070D01*
X173635150Y-78099139D01*
X173723232Y-78099139D01*
X173777049Y-78095603D01*
X173819466Y-78080444D01*
X173864721Y-78046832D01*
X173899580Y-78014565D01*
X173948938Y-77964391D01*
X173975453Y-77925407D01*
X173986089Y-77883536D01*
X173987846Y-77836140D01*
X173972472Y-77732267D01*
G36*
X173969218Y-77048793D02*
G01*
X173959012Y-77025439D01*
X173914866Y-76969698D01*
X173851033Y-76922031D01*
X173782913Y-76892552D01*
X173749330Y-76887754D01*
X173702444Y-76903840D01*
X173677635Y-76939125D01*
X173662613Y-76976956D01*
X173659845Y-76994279D01*
X173679934Y-77002714D01*
X173723649Y-77019370D01*
X173743402Y-77026677D01*
X173811729Y-77067652D01*
X173845809Y-77126978D01*
X173844761Y-77203048D01*
X173843419Y-77208682D01*
X173824164Y-77249295D01*
X173786625Y-77279152D01*
X173726191Y-77299545D01*
X173638249Y-77311764D01*
X173518187Y-77317100D01*
X173454302Y-77317600D01*
X173353597Y-77317848D01*
X173284946Y-77319474D01*
X173241327Y-77323799D01*
X173215718Y-77332146D01*
X173201097Y-77345835D01*
X173190442Y-77366189D01*
X173189905Y-77367366D01*
X173173333Y-77406562D01*
X173167231Y-77425981D01*
X173185681Y-77428965D01*
X173236677Y-77431519D01*
X173313692Y-77433460D01*
X173410195Y-77434603D01*
X173480816Y-77434831D01*
X173617475Y-77433668D01*
X173721149Y-77429121D01*
X173797892Y-77419601D01*
X173853754Y-77403519D01*
X173894788Y-77379287D01*
X173927046Y-77345314D01*
X173949560Y-77311767D01*
X173979524Y-77231101D01*
X173986282Y-77137219D01*
X173969218Y-77048793D01*
X173969218Y-77048793D01*
G37*
X173969218Y-77048793D02*
X173959012Y-77025439D01*
X173914866Y-76969698D01*
X173851033Y-76922031D01*
X173782913Y-76892552D01*
X173749330Y-76887754D01*
X173702444Y-76903840D01*
X173677635Y-76939125D01*
X173662613Y-76976956D01*
X173659845Y-76994279D01*
X173679934Y-77002714D01*
X173723649Y-77019370D01*
X173743402Y-77026677D01*
X173811729Y-77067652D01*
X173845809Y-77126978D01*
X173844761Y-77203048D01*
X173843419Y-77208682D01*
X173824164Y-77249295D01*
X173786625Y-77279152D01*
X173726191Y-77299545D01*
X173638249Y-77311764D01*
X173518187Y-77317100D01*
X173454302Y-77317600D01*
X173353597Y-77317848D01*
X173284946Y-77319474D01*
X173241327Y-77323799D01*
X173215718Y-77332146D01*
X173201097Y-77345835D01*
X173190442Y-77366189D01*
X173189905Y-77367366D01*
X173173333Y-77406562D01*
X173167231Y-77425981D01*
X173185681Y-77428965D01*
X173236677Y-77431519D01*
X173313692Y-77433460D01*
X173410195Y-77434603D01*
X173480816Y-77434831D01*
X173617475Y-77433668D01*
X173721149Y-77429121D01*
X173797892Y-77419601D01*
X173853754Y-77403519D01*
X173894788Y-77379287D01*
X173927046Y-77345314D01*
X173949560Y-77311767D01*
X173979524Y-77231101D01*
X173986282Y-77137219D01*
X173969218Y-77048793D01*
G36*
X173958162Y-76374376D02*
G01*
X173907639Y-76297072D01*
X173862410Y-76259786D01*
X173780337Y-76230247D01*
X173715393Y-76227901D01*
X173628555Y-76233215D01*
X173540897Y-76433485D01*
X173496113Y-76530861D01*
X173460087Y-76594487D01*
X173428883Y-76627571D01*
X173398564Y-76633320D01*
X173365195Y-76614942D01*
X173343077Y-76594677D01*
X173307607Y-76535711D01*
X173305121Y-76471576D01*
X173332765Y-76412674D01*
X173387680Y-76369403D01*
X173407072Y-76361664D01*
X173467636Y-76324594D01*
X173493448Y-76281946D01*
X173515529Y-76223446D01*
X173431816Y-76223446D01*
X173374850Y-76228618D01*
X173326811Y-76248877D01*
X173271654Y-76291338D01*
X173264486Y-76297649D01*
X173215415Y-76344880D01*
X173189080Y-76385479D01*
X173176965Y-76436272D01*
X173172997Y-76478380D01*
X173172009Y-76553698D01*
X173184534Y-76607314D01*
X173203131Y-76640762D01*
X173244025Y-76693332D01*
X173288252Y-76729721D01*
X173343874Y-76752750D01*
X173418953Y-76765241D01*
X173521551Y-76770013D01*
X173573624Y-76770394D01*
X173636052Y-76769099D01*
X173636052Y-76651129D01*
X173602562Y-76649761D01*
X173597077Y-76646351D01*
X173604528Y-76623847D01*
X173624247Y-76575418D01*
X173652282Y-76510692D01*
X173658308Y-76497157D01*
X173699904Y-76415356D01*
X173736462Y-76370288D01*
X173770704Y-76360383D01*
X173805352Y-76384074D01*
X173820661Y-76403640D01*
X173851279Y-76474240D01*
X173846220Y-76540320D01*
X173808849Y-76595641D01*
X173742527Y-76633964D01*
X173689884Y-76646251D01*
X173636052Y-76651129D01*
X173636052Y-76769099D01*
X173695280Y-76767870D01*
X173785290Y-76758568D01*
X173850833Y-76740140D01*
X173899088Y-76710240D01*
X173937233Y-76666520D01*
X173949560Y-76647459D01*
X173981664Y-76560874D01*
X173983684Y-76466078D01*
X173958162Y-76374376D01*
X173958162Y-76374376D01*
G37*
X173958162Y-76374376D02*
X173907639Y-76297072D01*
X173862410Y-76259786D01*
X173780337Y-76230247D01*
X173715393Y-76227901D01*
X173628555Y-76233215D01*
X173540897Y-76433485D01*
X173496113Y-76530861D01*
X173460087Y-76594487D01*
X173428883Y-76627571D01*
X173398564Y-76633320D01*
X173365195Y-76614942D01*
X173343077Y-76594677D01*
X173307607Y-76535711D01*
X173305121Y-76471576D01*
X173332765Y-76412674D01*
X173387680Y-76369403D01*
X173407072Y-76361664D01*
X173467636Y-76324594D01*
X173493448Y-76281946D01*
X173515529Y-76223446D01*
X173431816Y-76223446D01*
X173374850Y-76228618D01*
X173326811Y-76248877D01*
X173271654Y-76291338D01*
X173264486Y-76297649D01*
X173215415Y-76344880D01*
X173189080Y-76385479D01*
X173176965Y-76436272D01*
X173172997Y-76478380D01*
X173172009Y-76553698D01*
X173184534Y-76607314D01*
X173203131Y-76640762D01*
X173244025Y-76693332D01*
X173288252Y-76729721D01*
X173343874Y-76752750D01*
X173418953Y-76765241D01*
X173521551Y-76770013D01*
X173573624Y-76770394D01*
X173636052Y-76769099D01*
X173636052Y-76651129D01*
X173602562Y-76649761D01*
X173597077Y-76646351D01*
X173604528Y-76623847D01*
X173624247Y-76575418D01*
X173652282Y-76510692D01*
X173658308Y-76497157D01*
X173699904Y-76415356D01*
X173736462Y-76370288D01*
X173770704Y-76360383D01*
X173805352Y-76384074D01*
X173820661Y-76403640D01*
X173851279Y-76474240D01*
X173846220Y-76540320D01*
X173808849Y-76595641D01*
X173742527Y-76633964D01*
X173689884Y-76646251D01*
X173636052Y-76651129D01*
X173636052Y-76769099D01*
X173695280Y-76767870D01*
X173785290Y-76758568D01*
X173850833Y-76740140D01*
X173899088Y-76710240D01*
X173937233Y-76666520D01*
X173949560Y-76647459D01*
X173981664Y-76560874D01*
X173983684Y-76466078D01*
X173958162Y-76374376D01*
G36*
X180318224Y-80479722D02*
G01*
X180317645Y-80373988D01*
X180316078Y-80297468D01*
X180313028Y-80245228D01*
X180308004Y-80212337D01*
X180300511Y-80193863D01*
X180290056Y-80184873D01*
X180276147Y-80180437D01*
X180274346Y-80180006D01*
X180241855Y-80173267D01*
X180177748Y-80160792D01*
X180088849Y-80143881D01*
X179981981Y-80123829D01*
X179863967Y-80101936D01*
X179859822Y-80101171D01*
X179744169Y-80079241D01*
X179641986Y-80058723D01*
X179559402Y-80040941D01*
X179502544Y-80027219D01*
X179477542Y-80018882D01*
X179477099Y-80018484D01*
X179464890Y-79993923D01*
X179444544Y-79943285D01*
X179420455Y-79877505D01*
X179420326Y-79877139D01*
X179389182Y-79794283D01*
X179349509Y-79696600D01*
X179309619Y-79604523D01*
X179307647Y-79600166D01*
X179239580Y-79450193D01*
X179466361Y-79118102D01*
X179535496Y-79016226D01*
X179597303Y-78923943D01*
X179648267Y-78846597D01*
X179684873Y-78789536D01*
X179703606Y-78758105D01*
X179704996Y-78755121D01*
X179698810Y-78732279D01*
X179668965Y-78689618D01*
X179614053Y-78625472D01*
X179532666Y-78538179D01*
X179446078Y-78449065D01*
X179360753Y-78363159D01*
X179282892Y-78286273D01*
X179217303Y-78223036D01*
X179168795Y-78178077D01*
X179142175Y-78156024D01*
X179140805Y-78155204D01*
X179122537Y-78152766D01*
X179092705Y-78161950D01*
X179047279Y-78185026D01*
X178982230Y-78224263D01*
X178893530Y-78281930D01*
X178779343Y-78358805D01*
X178678838Y-78427030D01*
X178588697Y-78488018D01*
X178514151Y-78538244D01*
X178460435Y-78574184D01*
X178432782Y-78592313D01*
X178430905Y-78593454D01*
X178404410Y-78591241D01*
X178352914Y-78574462D01*
X178286149Y-78546458D01*
X178264828Y-78536478D01*
X178169841Y-78492928D01*
X178062063Y-78446466D01*
X177968808Y-78408723D01*
X177899594Y-78381527D01*
X177846994Y-78359925D01*
X177819503Y-78347442D01*
X177817384Y-78345891D01*
X177813876Y-78322932D01*
X177804262Y-78268814D01*
X177789911Y-78190732D01*
X177772193Y-78095881D01*
X177752475Y-77991457D01*
X177732126Y-77884656D01*
X177712514Y-77782674D01*
X177695009Y-77692706D01*
X177680978Y-77621947D01*
X177671791Y-77577594D01*
X177669193Y-77566715D01*
X177662782Y-77555478D01*
X177648303Y-77546995D01*
X177620867Y-77540886D01*
X177575589Y-77536768D01*
X177507580Y-77534259D01*
X177411953Y-77532979D01*
X177283820Y-77532546D01*
X177231299Y-77532523D01*
X176804155Y-77532523D01*
X176783909Y-77635100D01*
X176772930Y-77692169D01*
X176756905Y-77777331D01*
X176737767Y-77880228D01*
X176717449Y-77990504D01*
X176711868Y-78020985D01*
X176692083Y-78122745D01*
X176672627Y-78211395D01*
X176655303Y-78279492D01*
X176641912Y-78319596D01*
X176637921Y-78326277D01*
X176609658Y-78342681D01*
X176554891Y-78366201D01*
X176484412Y-78392284D01*
X176469231Y-78397458D01*
X176375104Y-78431644D01*
X176268899Y-78474077D01*
X176173527Y-78515603D01*
X176173084Y-78515808D01*
X176023475Y-78584960D01*
X175354383Y-78130088D01*
X175061884Y-78422100D01*
X174974830Y-78510420D01*
X174898091Y-78590975D01*
X174835763Y-78659240D01*
X174791944Y-78710692D01*
X174770730Y-78740806D01*
X174769384Y-78745126D01*
X174779984Y-78770489D01*
X174809453Y-78822242D01*
X174854295Y-78894732D01*
X174911016Y-78982306D01*
X174974538Y-79076988D01*
X175039332Y-79173084D01*
X175095713Y-79258763D01*
X175140212Y-79328584D01*
X175169361Y-79377106D01*
X175179692Y-79398818D01*
X175170950Y-79425307D01*
X175147913Y-79475538D01*
X175115369Y-79539149D01*
X175111751Y-79545892D01*
X175068790Y-79631554D01*
X175047721Y-79690294D01*
X175047497Y-79726828D01*
X175067072Y-79745869D01*
X175067346Y-79745980D01*
X175090528Y-79755498D01*
X175145559Y-79778197D01*
X175228178Y-79812318D01*
X175334128Y-79856100D01*
X175459148Y-79907784D01*
X175598980Y-79965608D01*
X175734363Y-80021609D01*
X175883766Y-80083153D01*
X176022168Y-80139661D01*
X176145327Y-80189439D01*
X176248998Y-80230794D01*
X176328941Y-80262032D01*
X176380912Y-80281459D01*
X176400308Y-80287446D01*
X176422557Y-80272432D01*
X176458018Y-80233161D01*
X176497113Y-80180793D01*
X176620755Y-80031659D01*
X176762478Y-79915089D01*
X176919296Y-79832482D01*
X177088225Y-79785234D01*
X177266278Y-79774743D01*
X177348461Y-79782369D01*
X177518969Y-79823918D01*
X177669541Y-79895477D01*
X177798691Y-79992605D01*
X177904936Y-80110866D01*
X177986790Y-80245820D01*
X178042768Y-80393029D01*
X178071385Y-80548056D01*
X178071156Y-80706461D01*
X178040595Y-80863806D01*
X177978218Y-81015654D01*
X177882540Y-81157565D01*
X177828428Y-81216797D01*
X177689480Y-81330397D01*
X177537639Y-81409494D01*
X177377333Y-81454614D01*
X177212988Y-81466284D01*
X177049029Y-81445031D01*
X176889882Y-81391380D01*
X176739975Y-81305860D01*
X176603733Y-81188995D01*
X176497113Y-81058407D01*
X176456358Y-81004012D01*
X176421282Y-80965586D01*
X176400274Y-80951754D01*
X176377365Y-80958997D01*
X176322635Y-80979595D01*
X176240328Y-81011854D01*
X176134685Y-81054079D01*
X176009950Y-81104577D01*
X175870364Y-81161652D01*
X175734330Y-81217746D01*
X175584799Y-81279633D01*
X175446233Y-81336956D01*
X175322893Y-81387956D01*
X175219036Y-81430873D01*
X175138920Y-81463947D01*
X175086805Y-81485419D01*
X175067346Y-81493375D01*
X175047577Y-81512171D01*
X175047635Y-81548526D01*
X175068559Y-81607121D01*
X175111387Y-81692632D01*
X175111751Y-81693308D01*
X175144988Y-81757693D01*
X175169198Y-81809739D01*
X175179596Y-81839088D01*
X175179692Y-81840383D01*
X175169145Y-81862476D01*
X175139816Y-81911252D01*
X175095173Y-81981269D01*
X175038686Y-82067086D01*
X174974538Y-82162212D01*
X174909589Y-82259060D01*
X174853104Y-82346347D01*
X174808579Y-82418419D01*
X174779510Y-82469623D01*
X174769384Y-82494074D01*
X174782693Y-82516590D01*
X174819888Y-82561858D01*
X174876872Y-82625356D01*
X174949551Y-82702561D01*
X175033829Y-82788949D01*
X175061984Y-82817201D01*
X175354584Y-83109313D01*
X175680896Y-82886969D01*
X175781103Y-82819398D01*
X175871037Y-82760093D01*
X175945490Y-82712383D01*
X175999249Y-82679593D01*
X176027106Y-82665052D01*
X176029088Y-82664626D01*
X176055345Y-82672292D01*
X176108163Y-82692911D01*
X176178690Y-82722915D01*
X176225907Y-82743975D01*
X176316306Y-82783352D01*
X176407634Y-82820435D01*
X176484800Y-82849185D01*
X176508308Y-82856995D01*
X176571084Y-82879183D01*
X176619589Y-82900873D01*
X176637921Y-82912787D01*
X176649141Y-82939077D01*
X176665046Y-82996458D01*
X176683833Y-83077482D01*
X176703701Y-83174705D01*
X176711868Y-83218215D01*
X176732171Y-83328704D01*
X176751830Y-83434684D01*
X176768912Y-83525799D01*
X176781482Y-83591692D01*
X176783909Y-83604100D01*
X176804155Y-83706677D01*
X177231299Y-83706677D01*
X177371754Y-83706447D01*
X177478021Y-83705501D01*
X177554987Y-83703459D01*
X177607540Y-83699938D01*
X177640567Y-83694557D01*
X177658955Y-83686934D01*
X177667592Y-83676688D01*
X177669193Y-83672485D01*
X177674873Y-83647130D01*
X177686205Y-83591116D01*
X177701821Y-83511636D01*
X177720353Y-83415888D01*
X177740431Y-83311067D01*
X177760688Y-83204368D01*
X177779754Y-83102987D01*
X177796261Y-83014121D01*
X177808841Y-82944963D01*
X177816125Y-82902711D01*
X177817384Y-82893310D01*
X177834237Y-82884793D01*
X177879130Y-82865940D01*
X177943570Y-82840276D01*
X177968808Y-82830477D01*
X178066314Y-82790952D01*
X178174041Y-82744408D01*
X178264828Y-82702723D01*
X178334247Y-82672050D01*
X178391290Y-82651644D01*
X178426223Y-82644832D01*
X178430905Y-82645918D01*
X178453009Y-82660315D01*
X178502169Y-82693188D01*
X178573152Y-82741010D01*
X178660722Y-82800252D01*
X178759643Y-82867385D01*
X178779170Y-82880659D01*
X178894860Y-82958554D01*
X178982956Y-83015813D01*
X179047514Y-83054719D01*
X179092589Y-83077556D01*
X179122237Y-83086606D01*
X179140515Y-83084152D01*
X179140631Y-83084089D01*
X179164639Y-83064773D01*
X179211053Y-83022049D01*
X179275063Y-82960549D01*
X179351855Y-82884902D01*
X179436618Y-82799739D01*
X179446078Y-82790135D01*
X179550011Y-82682810D01*
X179626325Y-82599985D01*
X179676429Y-82539995D01*
X179701730Y-82501177D01*
X179704996Y-82484080D01*
X179690750Y-82459127D01*
X179657844Y-82407345D01*
X179609792Y-82334080D01*
X179550110Y-82244680D01*
X179482312Y-82144489D01*
X179466361Y-82121099D01*
X179239580Y-81789007D01*
X179307647Y-81639035D01*
X179347315Y-81547830D01*
X179387209Y-81449931D01*
X179419017Y-81365769D01*
X179420326Y-81362062D01*
X179444424Y-81296231D01*
X179464800Y-81245484D01*
X179477064Y-81220758D01*
X179477099Y-81220716D01*
X179499266Y-81212871D01*
X179553783Y-81199534D01*
X179634520Y-81182030D01*
X179735350Y-81161683D01*
X179850144Y-81139818D01*
X179859822Y-81138029D01*
X179978096Y-81116096D01*
X180085458Y-81095960D01*
X180175083Y-81078920D01*
X180240149Y-81066272D01*
X180273832Y-81059316D01*
X180274346Y-81059194D01*
X180288675Y-81054961D01*
X180299493Y-81046729D01*
X180307294Y-81029567D01*
X180312571Y-80998542D01*
X180315818Y-80948722D01*
X180317528Y-80875176D01*
X180318193Y-80772971D01*
X180318307Y-80637175D01*
X180318308Y-80619600D01*
X180318224Y-80479722D01*
X180318224Y-80479722D01*
G37*
X180318224Y-80479722D02*
X180317645Y-80373988D01*
X180316078Y-80297468D01*
X180313028Y-80245228D01*
X180308004Y-80212337D01*
X180300511Y-80193863D01*
X180290056Y-80184873D01*
X180276147Y-80180437D01*
X180274346Y-80180006D01*
X180241855Y-80173267D01*
X180177748Y-80160792D01*
X180088849Y-80143881D01*
X179981981Y-80123829D01*
X179863967Y-80101936D01*
X179859822Y-80101171D01*
X179744169Y-80079241D01*
X179641986Y-80058723D01*
X179559402Y-80040941D01*
X179502544Y-80027219D01*
X179477542Y-80018882D01*
X179477099Y-80018484D01*
X179464890Y-79993923D01*
X179444544Y-79943285D01*
X179420455Y-79877505D01*
X179420326Y-79877139D01*
X179389182Y-79794283D01*
X179349509Y-79696600D01*
X179309619Y-79604523D01*
X179307647Y-79600166D01*
X179239580Y-79450193D01*
X179466361Y-79118102D01*
X179535496Y-79016226D01*
X179597303Y-78923943D01*
X179648267Y-78846597D01*
X179684873Y-78789536D01*
X179703606Y-78758105D01*
X179704996Y-78755121D01*
X179698810Y-78732279D01*
X179668965Y-78689618D01*
X179614053Y-78625472D01*
X179532666Y-78538179D01*
X179446078Y-78449065D01*
X179360753Y-78363159D01*
X179282892Y-78286273D01*
X179217303Y-78223036D01*
X179168795Y-78178077D01*
X179142175Y-78156024D01*
X179140805Y-78155204D01*
X179122537Y-78152766D01*
X179092705Y-78161950D01*
X179047279Y-78185026D01*
X178982230Y-78224263D01*
X178893530Y-78281930D01*
X178779343Y-78358805D01*
X178678838Y-78427030D01*
X178588697Y-78488018D01*
X178514151Y-78538244D01*
X178460435Y-78574184D01*
X178432782Y-78592313D01*
X178430905Y-78593454D01*
X178404410Y-78591241D01*
X178352914Y-78574462D01*
X178286149Y-78546458D01*
X178264828Y-78536478D01*
X178169841Y-78492928D01*
X178062063Y-78446466D01*
X177968808Y-78408723D01*
X177899594Y-78381527D01*
X177846994Y-78359925D01*
X177819503Y-78347442D01*
X177817384Y-78345891D01*
X177813876Y-78322932D01*
X177804262Y-78268814D01*
X177789911Y-78190732D01*
X177772193Y-78095881D01*
X177752475Y-77991457D01*
X177732126Y-77884656D01*
X177712514Y-77782674D01*
X177695009Y-77692706D01*
X177680978Y-77621947D01*
X177671791Y-77577594D01*
X177669193Y-77566715D01*
X177662782Y-77555478D01*
X177648303Y-77546995D01*
X177620867Y-77540886D01*
X177575589Y-77536768D01*
X177507580Y-77534259D01*
X177411953Y-77532979D01*
X177283820Y-77532546D01*
X177231299Y-77532523D01*
X176804155Y-77532523D01*
X176783909Y-77635100D01*
X176772930Y-77692169D01*
X176756905Y-77777331D01*
X176737767Y-77880228D01*
X176717449Y-77990504D01*
X176711868Y-78020985D01*
X176692083Y-78122745D01*
X176672627Y-78211395D01*
X176655303Y-78279492D01*
X176641912Y-78319596D01*
X176637921Y-78326277D01*
X176609658Y-78342681D01*
X176554891Y-78366201D01*
X176484412Y-78392284D01*
X176469231Y-78397458D01*
X176375104Y-78431644D01*
X176268899Y-78474077D01*
X176173527Y-78515603D01*
X176173084Y-78515808D01*
X176023475Y-78584960D01*
X175354383Y-78130088D01*
X175061884Y-78422100D01*
X174974830Y-78510420D01*
X174898091Y-78590975D01*
X174835763Y-78659240D01*
X174791944Y-78710692D01*
X174770730Y-78740806D01*
X174769384Y-78745126D01*
X174779984Y-78770489D01*
X174809453Y-78822242D01*
X174854295Y-78894732D01*
X174911016Y-78982306D01*
X174974538Y-79076988D01*
X175039332Y-79173084D01*
X175095713Y-79258763D01*
X175140212Y-79328584D01*
X175169361Y-79377106D01*
X175179692Y-79398818D01*
X175170950Y-79425307D01*
X175147913Y-79475538D01*
X175115369Y-79539149D01*
X175111751Y-79545892D01*
X175068790Y-79631554D01*
X175047721Y-79690294D01*
X175047497Y-79726828D01*
X175067072Y-79745869D01*
X175067346Y-79745980D01*
X175090528Y-79755498D01*
X175145559Y-79778197D01*
X175228178Y-79812318D01*
X175334128Y-79856100D01*
X175459148Y-79907784D01*
X175598980Y-79965608D01*
X175734363Y-80021609D01*
X175883766Y-80083153D01*
X176022168Y-80139661D01*
X176145327Y-80189439D01*
X176248998Y-80230794D01*
X176328941Y-80262032D01*
X176380912Y-80281459D01*
X176400308Y-80287446D01*
X176422557Y-80272432D01*
X176458018Y-80233161D01*
X176497113Y-80180793D01*
X176620755Y-80031659D01*
X176762478Y-79915089D01*
X176919296Y-79832482D01*
X177088225Y-79785234D01*
X177266278Y-79774743D01*
X177348461Y-79782369D01*
X177518969Y-79823918D01*
X177669541Y-79895477D01*
X177798691Y-79992605D01*
X177904936Y-80110866D01*
X177986790Y-80245820D01*
X178042768Y-80393029D01*
X178071385Y-80548056D01*
X178071156Y-80706461D01*
X178040595Y-80863806D01*
X177978218Y-81015654D01*
X177882540Y-81157565D01*
X177828428Y-81216797D01*
X177689480Y-81330397D01*
X177537639Y-81409494D01*
X177377333Y-81454614D01*
X177212988Y-81466284D01*
X177049029Y-81445031D01*
X176889882Y-81391380D01*
X176739975Y-81305860D01*
X176603733Y-81188995D01*
X176497113Y-81058407D01*
X176456358Y-81004012D01*
X176421282Y-80965586D01*
X176400274Y-80951754D01*
X176377365Y-80958997D01*
X176322635Y-80979595D01*
X176240328Y-81011854D01*
X176134685Y-81054079D01*
X176009950Y-81104577D01*
X175870364Y-81161652D01*
X175734330Y-81217746D01*
X175584799Y-81279633D01*
X175446233Y-81336956D01*
X175322893Y-81387956D01*
X175219036Y-81430873D01*
X175138920Y-81463947D01*
X175086805Y-81485419D01*
X175067346Y-81493375D01*
X175047577Y-81512171D01*
X175047635Y-81548526D01*
X175068559Y-81607121D01*
X175111387Y-81692632D01*
X175111751Y-81693308D01*
X175144988Y-81757693D01*
X175169198Y-81809739D01*
X175179596Y-81839088D01*
X175179692Y-81840383D01*
X175169145Y-81862476D01*
X175139816Y-81911252D01*
X175095173Y-81981269D01*
X175038686Y-82067086D01*
X174974538Y-82162212D01*
X174909589Y-82259060D01*
X174853104Y-82346347D01*
X174808579Y-82418419D01*
X174779510Y-82469623D01*
X174769384Y-82494074D01*
X174782693Y-82516590D01*
X174819888Y-82561858D01*
X174876872Y-82625356D01*
X174949551Y-82702561D01*
X175033829Y-82788949D01*
X175061984Y-82817201D01*
X175354584Y-83109313D01*
X175680896Y-82886969D01*
X175781103Y-82819398D01*
X175871037Y-82760093D01*
X175945490Y-82712383D01*
X175999249Y-82679593D01*
X176027106Y-82665052D01*
X176029088Y-82664626D01*
X176055345Y-82672292D01*
X176108163Y-82692911D01*
X176178690Y-82722915D01*
X176225907Y-82743975D01*
X176316306Y-82783352D01*
X176407634Y-82820435D01*
X176484800Y-82849185D01*
X176508308Y-82856995D01*
X176571084Y-82879183D01*
X176619589Y-82900873D01*
X176637921Y-82912787D01*
X176649141Y-82939077D01*
X176665046Y-82996458D01*
X176683833Y-83077482D01*
X176703701Y-83174705D01*
X176711868Y-83218215D01*
X176732171Y-83328704D01*
X176751830Y-83434684D01*
X176768912Y-83525799D01*
X176781482Y-83591692D01*
X176783909Y-83604100D01*
X176804155Y-83706677D01*
X177231299Y-83706677D01*
X177371754Y-83706447D01*
X177478021Y-83705501D01*
X177554987Y-83703459D01*
X177607540Y-83699938D01*
X177640567Y-83694557D01*
X177658955Y-83686934D01*
X177667592Y-83676688D01*
X177669193Y-83672485D01*
X177674873Y-83647130D01*
X177686205Y-83591116D01*
X177701821Y-83511636D01*
X177720353Y-83415888D01*
X177740431Y-83311067D01*
X177760688Y-83204368D01*
X177779754Y-83102987D01*
X177796261Y-83014121D01*
X177808841Y-82944963D01*
X177816125Y-82902711D01*
X177817384Y-82893310D01*
X177834237Y-82884793D01*
X177879130Y-82865940D01*
X177943570Y-82840276D01*
X177968808Y-82830477D01*
X178066314Y-82790952D01*
X178174041Y-82744408D01*
X178264828Y-82702723D01*
X178334247Y-82672050D01*
X178391290Y-82651644D01*
X178426223Y-82644832D01*
X178430905Y-82645918D01*
X178453009Y-82660315D01*
X178502169Y-82693188D01*
X178573152Y-82741010D01*
X178660722Y-82800252D01*
X178759643Y-82867385D01*
X178779170Y-82880659D01*
X178894860Y-82958554D01*
X178982956Y-83015813D01*
X179047514Y-83054719D01*
X179092589Y-83077556D01*
X179122237Y-83086606D01*
X179140515Y-83084152D01*
X179140631Y-83084089D01*
X179164639Y-83064773D01*
X179211053Y-83022049D01*
X179275063Y-82960549D01*
X179351855Y-82884902D01*
X179436618Y-82799739D01*
X179446078Y-82790135D01*
X179550011Y-82682810D01*
X179626325Y-82599985D01*
X179676429Y-82539995D01*
X179701730Y-82501177D01*
X179704996Y-82484080D01*
X179690750Y-82459127D01*
X179657844Y-82407345D01*
X179609792Y-82334080D01*
X179550110Y-82244680D01*
X179482312Y-82144489D01*
X179466361Y-82121099D01*
X179239580Y-81789007D01*
X179307647Y-81639035D01*
X179347315Y-81547830D01*
X179387209Y-81449931D01*
X179419017Y-81365769D01*
X179420326Y-81362062D01*
X179444424Y-81296231D01*
X179464800Y-81245484D01*
X179477064Y-81220758D01*
X179477099Y-81220716D01*
X179499266Y-81212871D01*
X179553783Y-81199534D01*
X179634520Y-81182030D01*
X179735350Y-81161683D01*
X179850144Y-81139818D01*
X179859822Y-81138029D01*
X179978096Y-81116096D01*
X180085458Y-81095960D01*
X180175083Y-81078920D01*
X180240149Y-81066272D01*
X180273832Y-81059316D01*
X180274346Y-81059194D01*
X180288675Y-81054961D01*
X180299493Y-81046729D01*
X180307294Y-81029567D01*
X180312571Y-80998542D01*
X180315818Y-80948722D01*
X180317528Y-80875176D01*
X180318193Y-80772971D01*
X180318307Y-80637175D01*
X180318308Y-80619600D01*
X180318224Y-80479722D01*
G36*
X201840311Y-82943143D02*
G01*
X201840275Y-82678620D01*
X201840270Y-82555488D01*
X201840270Y-80584589D01*
X201724090Y-80584589D01*
X201582709Y-80572189D01*
X201452316Y-80534764D01*
X201332138Y-80471977D01*
X201221398Y-80383494D01*
X201191489Y-80353557D01*
X201106652Y-80245866D01*
X201044779Y-80127125D01*
X201005841Y-80000860D01*
X200989810Y-79870597D01*
X200996658Y-79739865D01*
X201026357Y-79612188D01*
X201078880Y-79491095D01*
X201154197Y-79380112D01*
X201199637Y-79330268D01*
X201311048Y-79237383D01*
X201433565Y-79169273D01*
X201565785Y-79126529D01*
X201706308Y-79109747D01*
X201720133Y-79109524D01*
X201840266Y-79108644D01*
X201840268Y-79055843D01*
X201833911Y-79009004D01*
X201818444Y-78966217D01*
X201816846Y-78963389D01*
X201811832Y-78953725D01*
X201807927Y-78944851D01*
X201803993Y-78936735D01*
X201798894Y-78929343D01*
X201791492Y-78922645D01*
X201780649Y-78916608D01*
X201765228Y-78911201D01*
X201744091Y-78906390D01*
X201716101Y-78902145D01*
X201680121Y-78898432D01*
X201635013Y-78895221D01*
X201579640Y-78892478D01*
X201512863Y-78890172D01*
X201433547Y-78888271D01*
X201340553Y-78886742D01*
X201232743Y-78885554D01*
X201108981Y-78884674D01*
X200968129Y-78884070D01*
X200809050Y-78883711D01*
X200630605Y-78883565D01*
X200431658Y-78883598D01*
X200211071Y-78883780D01*
X199967707Y-78884077D01*
X199700428Y-78884459D01*
X199408097Y-78884892D01*
X199089576Y-78885345D01*
X199050770Y-78885398D01*
X198730218Y-78885804D01*
X198435988Y-78886149D01*
X198166944Y-78886469D01*
X197921948Y-78886800D01*
X197699863Y-78887179D01*
X197499553Y-78887643D01*
X197319881Y-78888228D01*
X197159710Y-78888970D01*
X197017902Y-78889906D01*
X196893321Y-78891073D01*
X196784830Y-78892507D01*
X196691293Y-78894244D01*
X196611571Y-78896322D01*
X196544528Y-78898776D01*
X196489027Y-78901644D01*
X196443932Y-78904961D01*
X196408105Y-78908764D01*
X196380409Y-78913090D01*
X196359707Y-78917975D01*
X196344863Y-78923455D01*
X196334740Y-78929568D01*
X196328200Y-78936350D01*
X196324107Y-78943837D01*
X196321324Y-78952066D01*
X196318713Y-78961073D01*
X196315138Y-78970895D01*
X196314050Y-78973294D01*
X196311604Y-78980835D01*
X196309358Y-78993456D01*
X196307302Y-79012259D01*
X196305428Y-79038347D01*
X196303729Y-79072822D01*
X196302197Y-79116785D01*
X196300823Y-79171339D01*
X196299600Y-79237585D01*
X196298519Y-79316626D01*
X196297573Y-79409563D01*
X196296753Y-79517499D01*
X196296053Y-79641536D01*
X196295462Y-79782776D01*
X196294975Y-79942321D01*
X196294581Y-80121272D01*
X196294275Y-80320732D01*
X196294047Y-80541804D01*
X196293890Y-80785588D01*
X196293795Y-81053187D01*
X196293755Y-81345703D01*
X196293762Y-81664239D01*
X196293772Y-81767421D01*
X196293824Y-82093023D01*
X196293909Y-82392281D01*
X196294037Y-82666309D01*
X196294215Y-82916224D01*
X196294452Y-83143140D01*
X196294758Y-83348173D01*
X196295140Y-83532438D01*
X196295608Y-83697050D01*
X196296170Y-83843125D01*
X196296835Y-83971776D01*
X196297612Y-84084121D01*
X196298509Y-84181274D01*
X196299535Y-84264350D01*
X196300699Y-84334464D01*
X196302009Y-84392732D01*
X196303475Y-84440269D01*
X196305104Y-84478190D01*
X196306907Y-84507610D01*
X196308890Y-84529645D01*
X196311064Y-84545410D01*
X196313437Y-84556020D01*
X196315609Y-84561804D01*
X196319944Y-84572084D01*
X196323141Y-84581522D01*
X196326335Y-84590155D01*
X196330662Y-84598019D01*
X196337256Y-84605148D01*
X196347253Y-84611579D01*
X196361788Y-84617347D01*
X196381997Y-84622489D01*
X196409015Y-84627040D01*
X196443977Y-84631035D01*
X196488019Y-84634511D01*
X196542276Y-84637502D01*
X196607883Y-84640046D01*
X196685976Y-84642177D01*
X196777690Y-84643932D01*
X196884160Y-84645345D01*
X196925027Y-84645715D01*
X196925027Y-84279284D01*
X196925027Y-82984134D01*
X196962783Y-83009055D01*
X197001583Y-83033847D01*
X197038531Y-83054840D01*
X197076212Y-83072335D01*
X197117212Y-83086630D01*
X197164117Y-83098023D01*
X197219513Y-83106813D01*
X197285984Y-83113298D01*
X197366117Y-83117777D01*
X197462498Y-83120550D01*
X197577711Y-83121913D01*
X197714343Y-83122167D01*
X197874980Y-83121609D01*
X197934618Y-83121293D01*
X198573959Y-83117725D01*
X198022551Y-82712698D01*
X197866124Y-82597954D01*
X197729912Y-82498543D01*
X197612110Y-82413390D01*
X197510916Y-82341422D01*
X197424523Y-82281566D01*
X197351126Y-82232748D01*
X197288923Y-82193895D01*
X197236107Y-82163934D01*
X197190875Y-82141791D01*
X197151422Y-82126393D01*
X197115942Y-82116666D01*
X197082632Y-82111537D01*
X197049687Y-82109932D01*
X197015303Y-82110779D01*
X197010981Y-82110995D01*
X196924969Y-82115454D01*
X196925027Y-80696092D01*
X197031478Y-80801665D01*
X197060594Y-80830313D01*
X197088924Y-80857490D01*
X197118032Y-80884389D01*
X197149480Y-80912203D01*
X197184831Y-80942125D01*
X197225646Y-80975346D01*
X197273489Y-81013061D01*
X197329921Y-81056460D01*
X197396506Y-81106738D01*
X197474805Y-81165088D01*
X197566381Y-81232700D01*
X197672796Y-81310769D01*
X197795613Y-81400488D01*
X197936395Y-81503048D01*
X198096703Y-81619642D01*
X198228202Y-81715209D01*
X198393404Y-81835149D01*
X198537848Y-81939780D01*
X198662906Y-82030048D01*
X198769948Y-82106903D01*
X198860346Y-82171291D01*
X198935471Y-82224161D01*
X198996696Y-82266460D01*
X199045390Y-82299136D01*
X199082926Y-82323138D01*
X199110675Y-82339413D01*
X199130008Y-82348908D01*
X199142297Y-82352573D01*
X199148758Y-82351471D01*
X199165952Y-82338124D01*
X199202345Y-82309266D01*
X199255776Y-82266640D01*
X199324081Y-82211985D01*
X199405097Y-82147044D01*
X199496660Y-82073558D01*
X199596608Y-81993268D01*
X199702776Y-81907915D01*
X199813003Y-81819240D01*
X199925124Y-81728986D01*
X199986756Y-81679344D01*
X199986756Y-80446773D01*
X199894081Y-80395546D01*
X199801405Y-80344319D01*
X197110378Y-80344319D01*
X197017702Y-80395546D01*
X196925027Y-80446773D01*
X196925027Y-79840796D01*
X196925069Y-79696134D01*
X196925259Y-79576644D01*
X196925692Y-79480042D01*
X196926464Y-79404042D01*
X196927670Y-79346357D01*
X196929406Y-79304701D01*
X196931768Y-79276789D01*
X196934850Y-79260335D01*
X196938749Y-79253052D01*
X196943560Y-79252655D01*
X196949378Y-79256858D01*
X196949426Y-79256901D01*
X196974468Y-79274213D01*
X197015185Y-79297136D01*
X197055832Y-79317381D01*
X197137838Y-79355779D01*
X199986756Y-79363611D01*
X199986756Y-80446773D01*
X199986756Y-81679344D01*
X200036976Y-81638893D01*
X200146396Y-81550702D01*
X200251222Y-81466154D01*
X200349289Y-81386992D01*
X200438434Y-81314956D01*
X200516495Y-81251787D01*
X200581308Y-81199227D01*
X200630710Y-81159017D01*
X200659513Y-81135400D01*
X200767222Y-81043690D01*
X200864420Y-80955460D01*
X200947924Y-80873803D01*
X201014552Y-80801810D01*
X201055401Y-80750719D01*
X201098865Y-80690307D01*
X201098865Y-82079698D01*
X201017334Y-82079308D01*
X200957394Y-82083191D01*
X200901823Y-82097790D01*
X200849145Y-82120388D01*
X200819385Y-82135078D01*
X200789897Y-82150872D01*
X200758724Y-82169214D01*
X200723907Y-82191545D01*
X200683490Y-82219309D01*
X200635514Y-82253949D01*
X200578022Y-82296907D01*
X200509057Y-82349627D01*
X200426661Y-82413551D01*
X200328876Y-82490121D01*
X200213745Y-82580781D01*
X200079310Y-82686974D01*
X200064141Y-82698968D01*
X199534588Y-83117725D01*
X200121078Y-83121778D01*
X200296749Y-83122595D01*
X200445468Y-83122421D01*
X200567725Y-83121249D01*
X200664011Y-83119069D01*
X200734817Y-83115874D01*
X200780631Y-83111656D01*
X200789321Y-83110238D01*
X200880865Y-83087991D01*
X200963392Y-83058843D01*
X201029747Y-83025582D01*
X201057890Y-83005600D01*
X201098865Y-82971122D01*
X201098865Y-83625314D01*
X201098731Y-83781369D01*
X201098297Y-83911867D01*
X201097511Y-84018710D01*
X201096324Y-84103798D01*
X201094683Y-84169035D01*
X201092539Y-84216321D01*
X201089841Y-84247557D01*
X201086538Y-84264646D01*
X201082579Y-84269488D01*
X201081702Y-84269153D01*
X201060769Y-84255285D01*
X201027588Y-84232132D01*
X201010807Y-84220154D01*
X200994060Y-84207769D01*
X200979085Y-84196637D01*
X200964406Y-84186688D01*
X200948551Y-84177851D01*
X200930045Y-84170057D01*
X200907415Y-84163235D01*
X200879187Y-84157316D01*
X200843887Y-84152229D01*
X200800042Y-84147904D01*
X200746178Y-84144271D01*
X200680820Y-84141260D01*
X200602496Y-84138801D01*
X200509732Y-84136823D01*
X200401053Y-84135258D01*
X200274987Y-84134034D01*
X200130058Y-84133081D01*
X199964794Y-84132330D01*
X199777721Y-84131711D01*
X199567365Y-84131152D01*
X199332252Y-84130585D01*
X199116259Y-84130055D01*
X198875465Y-84129555D01*
X198645726Y-84129295D01*
X198428507Y-84129268D01*
X198225278Y-84129467D01*
X198037504Y-84129886D01*
X197866655Y-84130518D01*
X197714197Y-84131356D01*
X197581597Y-84132392D01*
X197470324Y-84133620D01*
X197381844Y-84135033D01*
X197317625Y-84136625D01*
X197279135Y-84138387D01*
X197275067Y-84138721D01*
X197181752Y-84150866D01*
X197106810Y-84169827D01*
X197041406Y-84198702D01*
X196976707Y-84240590D01*
X196969648Y-84245829D01*
X196925027Y-84279284D01*
X196925027Y-84645715D01*
X197006521Y-84646454D01*
X197145910Y-84647293D01*
X197303461Y-84647898D01*
X197480309Y-84648305D01*
X197677590Y-84648550D01*
X197896440Y-84648667D01*
X198137993Y-84648695D01*
X198403385Y-84648667D01*
X198693751Y-84648620D01*
X199010227Y-84648590D01*
X199073054Y-84648589D01*
X199392863Y-84648572D01*
X199686339Y-84648512D01*
X199954610Y-84648402D01*
X200198802Y-84648233D01*
X200420043Y-84647997D01*
X200619460Y-84647684D01*
X200798180Y-84647285D01*
X200957329Y-84646793D01*
X201098034Y-84646197D01*
X201221424Y-84645490D01*
X201328624Y-84644663D01*
X201420762Y-84643707D01*
X201498965Y-84642613D01*
X201564359Y-84641373D01*
X201618072Y-84639978D01*
X201661231Y-84638418D01*
X201694963Y-84636686D01*
X201720395Y-84634772D01*
X201738653Y-84632668D01*
X201750866Y-84630366D01*
X201758159Y-84627855D01*
X201758341Y-84627763D01*
X201769482Y-84622592D01*
X201779569Y-84618285D01*
X201788654Y-84613521D01*
X201796788Y-84606978D01*
X201804024Y-84597335D01*
X201810414Y-84583271D01*
X201816011Y-84563463D01*
X201820867Y-84536591D01*
X201825034Y-84501333D01*
X201828564Y-84456368D01*
X201831509Y-84400374D01*
X201833923Y-84332029D01*
X201835856Y-84250014D01*
X201837362Y-84153005D01*
X201838492Y-84039682D01*
X201839298Y-83908723D01*
X201839834Y-83758807D01*
X201840151Y-83588613D01*
X201840301Y-83396818D01*
X201840337Y-83182102D01*
X201840311Y-82943143D01*
X201840311Y-82943143D01*
G37*
X201840311Y-82943143D02*
X201840275Y-82678620D01*
X201840270Y-82555488D01*
X201840270Y-80584589D01*
X201724090Y-80584589D01*
X201582709Y-80572189D01*
X201452316Y-80534764D01*
X201332138Y-80471977D01*
X201221398Y-80383494D01*
X201191489Y-80353557D01*
X201106652Y-80245866D01*
X201044779Y-80127125D01*
X201005841Y-80000860D01*
X200989810Y-79870597D01*
X200996658Y-79739865D01*
X201026357Y-79612188D01*
X201078880Y-79491095D01*
X201154197Y-79380112D01*
X201199637Y-79330268D01*
X201311048Y-79237383D01*
X201433565Y-79169273D01*
X201565785Y-79126529D01*
X201706308Y-79109747D01*
X201720133Y-79109524D01*
X201840266Y-79108644D01*
X201840268Y-79055843D01*
X201833911Y-79009004D01*
X201818444Y-78966217D01*
X201816846Y-78963389D01*
X201811832Y-78953725D01*
X201807927Y-78944851D01*
X201803993Y-78936735D01*
X201798894Y-78929343D01*
X201791492Y-78922645D01*
X201780649Y-78916608D01*
X201765228Y-78911201D01*
X201744091Y-78906390D01*
X201716101Y-78902145D01*
X201680121Y-78898432D01*
X201635013Y-78895221D01*
X201579640Y-78892478D01*
X201512863Y-78890172D01*
X201433547Y-78888271D01*
X201340553Y-78886742D01*
X201232743Y-78885554D01*
X201108981Y-78884674D01*
X200968129Y-78884070D01*
X200809050Y-78883711D01*
X200630605Y-78883565D01*
X200431658Y-78883598D01*
X200211071Y-78883780D01*
X199967707Y-78884077D01*
X199700428Y-78884459D01*
X199408097Y-78884892D01*
X199089576Y-78885345D01*
X199050770Y-78885398D01*
X198730218Y-78885804D01*
X198435988Y-78886149D01*
X198166944Y-78886469D01*
X197921948Y-78886800D01*
X197699863Y-78887179D01*
X197499553Y-78887643D01*
X197319881Y-78888228D01*
X197159710Y-78888970D01*
X197017902Y-78889906D01*
X196893321Y-78891073D01*
X196784830Y-78892507D01*
X196691293Y-78894244D01*
X196611571Y-78896322D01*
X196544528Y-78898776D01*
X196489027Y-78901644D01*
X196443932Y-78904961D01*
X196408105Y-78908764D01*
X196380409Y-78913090D01*
X196359707Y-78917975D01*
X196344863Y-78923455D01*
X196334740Y-78929568D01*
X196328200Y-78936350D01*
X196324107Y-78943837D01*
X196321324Y-78952066D01*
X196318713Y-78961073D01*
X196315138Y-78970895D01*
X196314050Y-78973294D01*
X196311604Y-78980835D01*
X196309358Y-78993456D01*
X196307302Y-79012259D01*
X196305428Y-79038347D01*
X196303729Y-79072822D01*
X196302197Y-79116785D01*
X196300823Y-79171339D01*
X196299600Y-79237585D01*
X196298519Y-79316626D01*
X196297573Y-79409563D01*
X196296753Y-79517499D01*
X196296053Y-79641536D01*
X196295462Y-79782776D01*
X196294975Y-79942321D01*
X196294581Y-80121272D01*
X196294275Y-80320732D01*
X196294047Y-80541804D01*
X196293890Y-80785588D01*
X196293795Y-81053187D01*
X196293755Y-81345703D01*
X196293762Y-81664239D01*
X196293772Y-81767421D01*
X196293824Y-82093023D01*
X196293909Y-82392281D01*
X196294037Y-82666309D01*
X196294215Y-82916224D01*
X196294452Y-83143140D01*
X196294758Y-83348173D01*
X196295140Y-83532438D01*
X196295608Y-83697050D01*
X196296170Y-83843125D01*
X196296835Y-83971776D01*
X196297612Y-84084121D01*
X196298509Y-84181274D01*
X196299535Y-84264350D01*
X196300699Y-84334464D01*
X196302009Y-84392732D01*
X196303475Y-84440269D01*
X196305104Y-84478190D01*
X196306907Y-84507610D01*
X196308890Y-84529645D01*
X196311064Y-84545410D01*
X196313437Y-84556020D01*
X196315609Y-84561804D01*
X196319944Y-84572084D01*
X196323141Y-84581522D01*
X196326335Y-84590155D01*
X196330662Y-84598019D01*
X196337256Y-84605148D01*
X196347253Y-84611579D01*
X196361788Y-84617347D01*
X196381997Y-84622489D01*
X196409015Y-84627040D01*
X196443977Y-84631035D01*
X196488019Y-84634511D01*
X196542276Y-84637502D01*
X196607883Y-84640046D01*
X196685976Y-84642177D01*
X196777690Y-84643932D01*
X196884160Y-84645345D01*
X196925027Y-84645715D01*
X196925027Y-84279284D01*
X196925027Y-82984134D01*
X196962783Y-83009055D01*
X197001583Y-83033847D01*
X197038531Y-83054840D01*
X197076212Y-83072335D01*
X197117212Y-83086630D01*
X197164117Y-83098023D01*
X197219513Y-83106813D01*
X197285984Y-83113298D01*
X197366117Y-83117777D01*
X197462498Y-83120550D01*
X197577711Y-83121913D01*
X197714343Y-83122167D01*
X197874980Y-83121609D01*
X197934618Y-83121293D01*
X198573959Y-83117725D01*
X198022551Y-82712698D01*
X197866124Y-82597954D01*
X197729912Y-82498543D01*
X197612110Y-82413390D01*
X197510916Y-82341422D01*
X197424523Y-82281566D01*
X197351126Y-82232748D01*
X197288923Y-82193895D01*
X197236107Y-82163934D01*
X197190875Y-82141791D01*
X197151422Y-82126393D01*
X197115942Y-82116666D01*
X197082632Y-82111537D01*
X197049687Y-82109932D01*
X197015303Y-82110779D01*
X197010981Y-82110995D01*
X196924969Y-82115454D01*
X196925027Y-80696092D01*
X197031478Y-80801665D01*
X197060594Y-80830313D01*
X197088924Y-80857490D01*
X197118032Y-80884389D01*
X197149480Y-80912203D01*
X197184831Y-80942125D01*
X197225646Y-80975346D01*
X197273489Y-81013061D01*
X197329921Y-81056460D01*
X197396506Y-81106738D01*
X197474805Y-81165088D01*
X197566381Y-81232700D01*
X197672796Y-81310769D01*
X197795613Y-81400488D01*
X197936395Y-81503048D01*
X198096703Y-81619642D01*
X198228202Y-81715209D01*
X198393404Y-81835149D01*
X198537848Y-81939780D01*
X198662906Y-82030048D01*
X198769948Y-82106903D01*
X198860346Y-82171291D01*
X198935471Y-82224161D01*
X198996696Y-82266460D01*
X199045390Y-82299136D01*
X199082926Y-82323138D01*
X199110675Y-82339413D01*
X199130008Y-82348908D01*
X199142297Y-82352573D01*
X199148758Y-82351471D01*
X199165952Y-82338124D01*
X199202345Y-82309266D01*
X199255776Y-82266640D01*
X199324081Y-82211985D01*
X199405097Y-82147044D01*
X199496660Y-82073558D01*
X199596608Y-81993268D01*
X199702776Y-81907915D01*
X199813003Y-81819240D01*
X199925124Y-81728986D01*
X199986756Y-81679344D01*
X199986756Y-80446773D01*
X199894081Y-80395546D01*
X199801405Y-80344319D01*
X197110378Y-80344319D01*
X197017702Y-80395546D01*
X196925027Y-80446773D01*
X196925027Y-79840796D01*
X196925069Y-79696134D01*
X196925259Y-79576644D01*
X196925692Y-79480042D01*
X196926464Y-79404042D01*
X196927670Y-79346357D01*
X196929406Y-79304701D01*
X196931768Y-79276789D01*
X196934850Y-79260335D01*
X196938749Y-79253052D01*
X196943560Y-79252655D01*
X196949378Y-79256858D01*
X196949426Y-79256901D01*
X196974468Y-79274213D01*
X197015185Y-79297136D01*
X197055832Y-79317381D01*
X197137838Y-79355779D01*
X199986756Y-79363611D01*
X199986756Y-80446773D01*
X199986756Y-81679344D01*
X200036976Y-81638893D01*
X200146396Y-81550702D01*
X200251222Y-81466154D01*
X200349289Y-81386992D01*
X200438434Y-81314956D01*
X200516495Y-81251787D01*
X200581308Y-81199227D01*
X200630710Y-81159017D01*
X200659513Y-81135400D01*
X200767222Y-81043690D01*
X200864420Y-80955460D01*
X200947924Y-80873803D01*
X201014552Y-80801810D01*
X201055401Y-80750719D01*
X201098865Y-80690307D01*
X201098865Y-82079698D01*
X201017334Y-82079308D01*
X200957394Y-82083191D01*
X200901823Y-82097790D01*
X200849145Y-82120388D01*
X200819385Y-82135078D01*
X200789897Y-82150872D01*
X200758724Y-82169214D01*
X200723907Y-82191545D01*
X200683490Y-82219309D01*
X200635514Y-82253949D01*
X200578022Y-82296907D01*
X200509057Y-82349627D01*
X200426661Y-82413551D01*
X200328876Y-82490121D01*
X200213745Y-82580781D01*
X200079310Y-82686974D01*
X200064141Y-82698968D01*
X199534588Y-83117725D01*
X200121078Y-83121778D01*
X200296749Y-83122595D01*
X200445468Y-83122421D01*
X200567725Y-83121249D01*
X200664011Y-83119069D01*
X200734817Y-83115874D01*
X200780631Y-83111656D01*
X200789321Y-83110238D01*
X200880865Y-83087991D01*
X200963392Y-83058843D01*
X201029747Y-83025582D01*
X201057890Y-83005600D01*
X201098865Y-82971122D01*
X201098865Y-83625314D01*
X201098731Y-83781369D01*
X201098297Y-83911867D01*
X201097511Y-84018710D01*
X201096324Y-84103798D01*
X201094683Y-84169035D01*
X201092539Y-84216321D01*
X201089841Y-84247557D01*
X201086538Y-84264646D01*
X201082579Y-84269488D01*
X201081702Y-84269153D01*
X201060769Y-84255285D01*
X201027588Y-84232132D01*
X201010807Y-84220154D01*
X200994060Y-84207769D01*
X200979085Y-84196637D01*
X200964406Y-84186688D01*
X200948551Y-84177851D01*
X200930045Y-84170057D01*
X200907415Y-84163235D01*
X200879187Y-84157316D01*
X200843887Y-84152229D01*
X200800042Y-84147904D01*
X200746178Y-84144271D01*
X200680820Y-84141260D01*
X200602496Y-84138801D01*
X200509732Y-84136823D01*
X200401053Y-84135258D01*
X200274987Y-84134034D01*
X200130058Y-84133081D01*
X199964794Y-84132330D01*
X199777721Y-84131711D01*
X199567365Y-84131152D01*
X199332252Y-84130585D01*
X199116259Y-84130055D01*
X198875465Y-84129555D01*
X198645726Y-84129295D01*
X198428507Y-84129268D01*
X198225278Y-84129467D01*
X198037504Y-84129886D01*
X197866655Y-84130518D01*
X197714197Y-84131356D01*
X197581597Y-84132392D01*
X197470324Y-84133620D01*
X197381844Y-84135033D01*
X197317625Y-84136625D01*
X197279135Y-84138387D01*
X197275067Y-84138721D01*
X197181752Y-84150866D01*
X197106810Y-84169827D01*
X197041406Y-84198702D01*
X196976707Y-84240590D01*
X196969648Y-84245829D01*
X196925027Y-84279284D01*
X196925027Y-84645715D01*
X197006521Y-84646454D01*
X197145910Y-84647293D01*
X197303461Y-84647898D01*
X197480309Y-84648305D01*
X197677590Y-84648550D01*
X197896440Y-84648667D01*
X198137993Y-84648695D01*
X198403385Y-84648667D01*
X198693751Y-84648620D01*
X199010227Y-84648590D01*
X199073054Y-84648589D01*
X199392863Y-84648572D01*
X199686339Y-84648512D01*
X199954610Y-84648402D01*
X200198802Y-84648233D01*
X200420043Y-84647997D01*
X200619460Y-84647684D01*
X200798180Y-84647285D01*
X200957329Y-84646793D01*
X201098034Y-84646197D01*
X201221424Y-84645490D01*
X201328624Y-84644663D01*
X201420762Y-84643707D01*
X201498965Y-84642613D01*
X201564359Y-84641373D01*
X201618072Y-84639978D01*
X201661231Y-84638418D01*
X201694963Y-84636686D01*
X201720395Y-84634772D01*
X201738653Y-84632668D01*
X201750866Y-84630366D01*
X201758159Y-84627855D01*
X201758341Y-84627763D01*
X201769482Y-84622592D01*
X201779569Y-84618285D01*
X201788654Y-84613521D01*
X201796788Y-84606978D01*
X201804024Y-84597335D01*
X201810414Y-84583271D01*
X201816011Y-84563463D01*
X201820867Y-84536591D01*
X201825034Y-84501333D01*
X201828564Y-84456368D01*
X201831509Y-84400374D01*
X201833923Y-84332029D01*
X201835856Y-84250014D01*
X201837362Y-84153005D01*
X201838492Y-84039682D01*
X201839298Y-83908723D01*
X201839834Y-83758807D01*
X201840151Y-83588613D01*
X201840301Y-83396818D01*
X201840337Y-83182102D01*
X201840311Y-82943143D01*
G36*
X201153501Y-76547438D02*
G01*
X201137293Y-76399386D01*
X201108282Y-76255948D01*
X201064955Y-76111290D01*
X201005799Y-75959576D01*
X200929300Y-75794972D01*
X200914483Y-75765329D01*
X200880969Y-75697302D01*
X200850792Y-75633144D01*
X200826834Y-75579185D01*
X200811976Y-75541760D01*
X200810105Y-75536011D01*
X200793598Y-75480914D01*
X200434799Y-75727549D01*
X200347107Y-75787848D01*
X200266988Y-75842978D01*
X200197164Y-75891064D01*
X200140353Y-75930232D01*
X200099277Y-75958606D01*
X200076654Y-75974313D01*
X200073072Y-75976864D01*
X200080562Y-75987229D01*
X200103082Y-76012740D01*
X200136539Y-76048837D01*
X200155450Y-76068758D01*
X200245222Y-76181627D01*
X200313439Y-76308386D01*
X200350805Y-76417617D01*
X200362540Y-76483186D01*
X200369692Y-76565284D01*
X200372126Y-76654256D01*
X200369712Y-76740444D01*
X200362317Y-76814195D01*
X200356653Y-76843624D01*
X200311018Y-76976267D01*
X200241337Y-77095794D01*
X200147740Y-77202117D01*
X200030351Y-77295147D01*
X199889300Y-77374795D01*
X199724714Y-77440974D01*
X199536720Y-77493594D01*
X199375783Y-77524867D01*
X199304737Y-77533026D01*
X199212954Y-77538585D01*
X199107032Y-77541598D01*
X198993566Y-77542119D01*
X198879151Y-77540200D01*
X198770383Y-77535897D01*
X198673857Y-77529263D01*
X198596169Y-77520351D01*
X198584183Y-77518421D01*
X198391108Y-77475901D01*
X198220227Y-77417967D01*
X198070776Y-77344267D01*
X197941989Y-77254449D01*
X197872361Y-77190693D01*
X197777827Y-77076114D01*
X197707754Y-76950458D01*
X197662523Y-76815843D01*
X197642516Y-76674389D01*
X197648115Y-76528217D01*
X197679700Y-76379445D01*
X197710606Y-76291489D01*
X197772494Y-76169771D01*
X197861271Y-76044320D01*
X197921306Y-75974047D01*
X197956053Y-75934589D01*
X197981546Y-75903588D01*
X197993830Y-75885942D01*
X197994205Y-75883752D01*
X197981653Y-75875876D01*
X197948484Y-75855468D01*
X197897542Y-75824268D01*
X197831669Y-75784014D01*
X197753711Y-75736443D01*
X197666510Y-75683296D01*
X197617933Y-75653713D01*
X197246785Y-75427752D01*
X197107361Y-75709873D01*
X197057281Y-75811878D01*
X197017790Y-75894511D01*
X196986927Y-75962822D01*
X196962732Y-76021863D01*
X196943242Y-76076686D01*
X196926497Y-76132340D01*
X196910535Y-76193877D01*
X196896518Y-76252860D01*
X196885671Y-76305285D01*
X196877474Y-76360112D01*
X196871472Y-76422828D01*
X196867210Y-76498923D01*
X196864233Y-76593884D01*
X196862948Y-76657887D01*
X196862070Y-76749208D01*
X196862513Y-76836773D01*
X196864148Y-76914788D01*
X196866851Y-76977458D01*
X196870495Y-77018987D01*
X196870858Y-77021448D01*
X196917513Y-77237097D01*
X196988271Y-77439607D01*
X197083086Y-77628905D01*
X197201911Y-77804921D01*
X197344700Y-77967584D01*
X197511406Y-78116822D01*
X197659567Y-78224904D01*
X197853498Y-78339966D01*
X198058301Y-78432977D01*
X198275617Y-78504387D01*
X198507088Y-78554644D01*
X198754357Y-78584199D01*
X199005441Y-78593511D01*
X199248330Y-78585852D01*
X199472430Y-78561787D01*
X199681523Y-78520548D01*
X199879387Y-78461373D01*
X200069804Y-78383496D01*
X200089532Y-78374197D01*
X200273941Y-78271752D01*
X200449424Y-78145928D01*
X200612350Y-78000288D01*
X200759086Y-77838399D01*
X200885999Y-77663824D01*
X200979095Y-77501156D01*
X201052009Y-77336827D01*
X201104826Y-77172149D01*
X201138985Y-77000748D01*
X201155922Y-76816247D01*
X201158420Y-76705941D01*
X201153501Y-76547438D01*
X201153501Y-76547438D01*
G37*
X201153501Y-76547438D02*
X201137293Y-76399386D01*
X201108282Y-76255948D01*
X201064955Y-76111290D01*
X201005799Y-75959576D01*
X200929300Y-75794972D01*
X200914483Y-75765329D01*
X200880969Y-75697302D01*
X200850792Y-75633144D01*
X200826834Y-75579185D01*
X200811976Y-75541760D01*
X200810105Y-75536011D01*
X200793598Y-75480914D01*
X200434799Y-75727549D01*
X200347107Y-75787848D01*
X200266988Y-75842978D01*
X200197164Y-75891064D01*
X200140353Y-75930232D01*
X200099277Y-75958606D01*
X200076654Y-75974313D01*
X200073072Y-75976864D01*
X200080562Y-75987229D01*
X200103082Y-76012740D01*
X200136539Y-76048837D01*
X200155450Y-76068758D01*
X200245222Y-76181627D01*
X200313439Y-76308386D01*
X200350805Y-76417617D01*
X200362540Y-76483186D01*
X200369692Y-76565284D01*
X200372126Y-76654256D01*
X200369712Y-76740444D01*
X200362317Y-76814195D01*
X200356653Y-76843624D01*
X200311018Y-76976267D01*
X200241337Y-77095794D01*
X200147740Y-77202117D01*
X200030351Y-77295147D01*
X199889300Y-77374795D01*
X199724714Y-77440974D01*
X199536720Y-77493594D01*
X199375783Y-77524867D01*
X199304737Y-77533026D01*
X199212954Y-77538585D01*
X199107032Y-77541598D01*
X198993566Y-77542119D01*
X198879151Y-77540200D01*
X198770383Y-77535897D01*
X198673857Y-77529263D01*
X198596169Y-77520351D01*
X198584183Y-77518421D01*
X198391108Y-77475901D01*
X198220227Y-77417967D01*
X198070776Y-77344267D01*
X197941989Y-77254449D01*
X197872361Y-77190693D01*
X197777827Y-77076114D01*
X197707754Y-76950458D01*
X197662523Y-76815843D01*
X197642516Y-76674389D01*
X197648115Y-76528217D01*
X197679700Y-76379445D01*
X197710606Y-76291489D01*
X197772494Y-76169771D01*
X197861271Y-76044320D01*
X197921306Y-75974047D01*
X197956053Y-75934589D01*
X197981546Y-75903588D01*
X197993830Y-75885942D01*
X197994205Y-75883752D01*
X197981653Y-75875876D01*
X197948484Y-75855468D01*
X197897542Y-75824268D01*
X197831669Y-75784014D01*
X197753711Y-75736443D01*
X197666510Y-75683296D01*
X197617933Y-75653713D01*
X197246785Y-75427752D01*
X197107361Y-75709873D01*
X197057281Y-75811878D01*
X197017790Y-75894511D01*
X196986927Y-75962822D01*
X196962732Y-76021863D01*
X196943242Y-76076686D01*
X196926497Y-76132340D01*
X196910535Y-76193877D01*
X196896518Y-76252860D01*
X196885671Y-76305285D01*
X196877474Y-76360112D01*
X196871472Y-76422828D01*
X196867210Y-76498923D01*
X196864233Y-76593884D01*
X196862948Y-76657887D01*
X196862070Y-76749208D01*
X196862513Y-76836773D01*
X196864148Y-76914788D01*
X196866851Y-76977458D01*
X196870495Y-77018987D01*
X196870858Y-77021448D01*
X196917513Y-77237097D01*
X196988271Y-77439607D01*
X197083086Y-77628905D01*
X197201911Y-77804921D01*
X197344700Y-77967584D01*
X197511406Y-78116822D01*
X197659567Y-78224904D01*
X197853498Y-78339966D01*
X198058301Y-78432977D01*
X198275617Y-78504387D01*
X198507088Y-78554644D01*
X198754357Y-78584199D01*
X199005441Y-78593511D01*
X199248330Y-78585852D01*
X199472430Y-78561787D01*
X199681523Y-78520548D01*
X199879387Y-78461373D01*
X200069804Y-78383496D01*
X200089532Y-78374197D01*
X200273941Y-78271752D01*
X200449424Y-78145928D01*
X200612350Y-78000288D01*
X200759086Y-77838399D01*
X200885999Y-77663824D01*
X200979095Y-77501156D01*
X201052009Y-77336827D01*
X201104826Y-77172149D01*
X201138985Y-77000748D01*
X201155922Y-76816247D01*
X201158420Y-76705941D01*
X201153501Y-76547438D01*
G36*
X200049771Y-73819895D02*
G01*
X200044622Y-73751869D01*
X200018727Y-73557237D01*
X199977425Y-73384871D01*
X199920147Y-73233930D01*
X199846326Y-73103575D01*
X199755392Y-72992966D01*
X199646778Y-72901265D01*
X199519915Y-72827630D01*
X199382648Y-72773861D01*
X199338863Y-72760213D01*
X199297859Y-72748327D01*
X199257431Y-72738066D01*
X199215370Y-72729287D01*
X199169469Y-72721852D01*
X199117520Y-72715620D01*
X199057315Y-72710450D01*
X198986648Y-72706204D01*
X198903311Y-72702740D01*
X198805095Y-72699919D01*
X198689795Y-72697600D01*
X198555201Y-72695643D01*
X198399107Y-72693909D01*
X198219305Y-72692257D01*
X198078324Y-72691076D01*
X197110378Y-72683130D01*
X197017230Y-72631644D01*
X196972355Y-72607263D01*
X196937499Y-72589120D01*
X196918946Y-72580465D01*
X196917689Y-72580157D01*
X196916251Y-72593386D01*
X196914926Y-72631074D01*
X196913751Y-72690217D01*
X196912763Y-72767814D01*
X196912001Y-72860864D01*
X196911500Y-72966365D01*
X196911299Y-73081316D01*
X196911297Y-73095022D01*
X196911297Y-73609887D01*
X197028000Y-73609887D01*
X197080740Y-73610765D01*
X197121074Y-73613108D01*
X197142700Y-73616479D01*
X197144702Y-73617969D01*
X197136317Y-73631596D01*
X197114308Y-73659643D01*
X197083399Y-73696097D01*
X197082684Y-73696915D01*
X197033157Y-73763438D01*
X196983425Y-73847452D01*
X196938374Y-73939463D01*
X196902890Y-74029979D01*
X196890764Y-74069833D01*
X196875363Y-74149145D01*
X196865535Y-74246465D01*
X196861420Y-74352884D01*
X196863159Y-74459493D01*
X196870892Y-74557383D01*
X196882019Y-74625887D01*
X196931352Y-74793880D01*
X197001658Y-74945119D01*
X197092067Y-75078618D01*
X197201705Y-75193394D01*
X197329701Y-75288463D01*
X197475182Y-75362840D01*
X197563459Y-75394926D01*
X197649261Y-75415035D01*
X197752264Y-75428362D01*
X197862966Y-75434528D01*
X197879075Y-75434326D01*
X197879075Y-74505752D01*
X197796816Y-74498052D01*
X197728454Y-74472411D01*
X197665030Y-74425022D01*
X197646433Y-74406821D01*
X197596154Y-74342118D01*
X197563944Y-74267334D01*
X197548352Y-74177738D01*
X197547204Y-74083388D01*
X197554784Y-73993899D01*
X197569611Y-73925382D01*
X197580747Y-73895625D01*
X197611096Y-73841992D01*
X197653779Y-73785165D01*
X197701683Y-73733318D01*
X197747699Y-73694622D01*
X197764579Y-73684346D01*
X197788218Y-73676358D01*
X197825832Y-73670679D01*
X197881015Y-73667044D01*
X197957360Y-73665189D01*
X198030019Y-73664806D01*
X198114730Y-73665065D01*
X198175982Y-73666113D01*
X198217773Y-73668355D01*
X198244101Y-73672194D01*
X198258965Y-73678035D01*
X198266361Y-73686282D01*
X198267539Y-73688833D01*
X198271167Y-73711000D01*
X198274134Y-73754720D01*
X198276173Y-73814089D01*
X198277017Y-73883204D01*
X198277018Y-73898211D01*
X198275543Y-73990595D01*
X198271158Y-74061968D01*
X198263262Y-74118681D01*
X198251730Y-74165528D01*
X198207785Y-74281731D01*
X198153757Y-74372857D01*
X198088781Y-74439695D01*
X198011995Y-74483035D01*
X197922533Y-74503666D01*
X197879075Y-74505752D01*
X197879075Y-75434326D01*
X197971867Y-75433156D01*
X198069464Y-75423868D01*
X198108895Y-75416623D01*
X198255299Y-75370361D01*
X198390005Y-75300016D01*
X198511720Y-75206916D01*
X198619153Y-75092388D01*
X198711012Y-74957760D01*
X198786004Y-74804360D01*
X198831542Y-74673941D01*
X198855467Y-74586777D01*
X198874057Y-74503404D01*
X198887916Y-74418424D01*
X198897649Y-74326435D01*
X198903859Y-74222038D01*
X198907149Y-74099832D01*
X198908076Y-73989345D01*
X198908973Y-73661723D01*
X199007453Y-73667999D01*
X199114305Y-73685821D01*
X199206148Y-73723733D01*
X199280690Y-73780120D01*
X199335636Y-73853369D01*
X199362448Y-73917865D01*
X199379346Y-74010277D01*
X199381773Y-74120289D01*
X199370622Y-74242744D01*
X199346790Y-74372486D01*
X199311170Y-74504358D01*
X199264657Y-74633202D01*
X199222117Y-74726834D01*
X199200272Y-74771883D01*
X199185016Y-74806244D01*
X199179063Y-74823719D01*
X199179254Y-74824667D01*
X199192588Y-74830697D01*
X199227932Y-74845755D01*
X199281899Y-74868423D01*
X199351104Y-74897285D01*
X199432160Y-74930923D01*
X199514882Y-74965116D01*
X199846197Y-75101814D01*
X199862167Y-75004580D01*
X199870180Y-74962436D01*
X199883639Y-74899081D01*
X199901321Y-74819943D01*
X199922004Y-74730449D01*
X199944468Y-74636027D01*
X199953597Y-74598427D01*
X199991326Y-74435763D01*
X200019612Y-74293350D01*
X200039028Y-74165873D01*
X200050146Y-74048016D01*
X200053536Y-73934462D01*
X200049771Y-73819895D01*
X200049771Y-73819895D01*
G37*
X200049771Y-73819895D02*
X200044622Y-73751869D01*
X200018727Y-73557237D01*
X199977425Y-73384871D01*
X199920147Y-73233930D01*
X199846326Y-73103575D01*
X199755392Y-72992966D01*
X199646778Y-72901265D01*
X199519915Y-72827630D01*
X199382648Y-72773861D01*
X199338863Y-72760213D01*
X199297859Y-72748327D01*
X199257431Y-72738066D01*
X199215370Y-72729287D01*
X199169469Y-72721852D01*
X199117520Y-72715620D01*
X199057315Y-72710450D01*
X198986648Y-72706204D01*
X198903311Y-72702740D01*
X198805095Y-72699919D01*
X198689795Y-72697600D01*
X198555201Y-72695643D01*
X198399107Y-72693909D01*
X198219305Y-72692257D01*
X198078324Y-72691076D01*
X197110378Y-72683130D01*
X197017230Y-72631644D01*
X196972355Y-72607263D01*
X196937499Y-72589120D01*
X196918946Y-72580465D01*
X196917689Y-72580157D01*
X196916251Y-72593386D01*
X196914926Y-72631074D01*
X196913751Y-72690217D01*
X196912763Y-72767814D01*
X196912001Y-72860864D01*
X196911500Y-72966365D01*
X196911299Y-73081316D01*
X196911297Y-73095022D01*
X196911297Y-73609887D01*
X197028000Y-73609887D01*
X197080740Y-73610765D01*
X197121074Y-73613108D01*
X197142700Y-73616479D01*
X197144702Y-73617969D01*
X197136317Y-73631596D01*
X197114308Y-73659643D01*
X197083399Y-73696097D01*
X197082684Y-73696915D01*
X197033157Y-73763438D01*
X196983425Y-73847452D01*
X196938374Y-73939463D01*
X196902890Y-74029979D01*
X196890764Y-74069833D01*
X196875363Y-74149145D01*
X196865535Y-74246465D01*
X196861420Y-74352884D01*
X196863159Y-74459493D01*
X196870892Y-74557383D01*
X196882019Y-74625887D01*
X196931352Y-74793880D01*
X197001658Y-74945119D01*
X197092067Y-75078618D01*
X197201705Y-75193394D01*
X197329701Y-75288463D01*
X197475182Y-75362840D01*
X197563459Y-75394926D01*
X197649261Y-75415035D01*
X197752264Y-75428362D01*
X197862966Y-75434528D01*
X197879075Y-75434326D01*
X197879075Y-74505752D01*
X197796816Y-74498052D01*
X197728454Y-74472411D01*
X197665030Y-74425022D01*
X197646433Y-74406821D01*
X197596154Y-74342118D01*
X197563944Y-74267334D01*
X197548352Y-74177738D01*
X197547204Y-74083388D01*
X197554784Y-73993899D01*
X197569611Y-73925382D01*
X197580747Y-73895625D01*
X197611096Y-73841992D01*
X197653779Y-73785165D01*
X197701683Y-73733318D01*
X197747699Y-73694622D01*
X197764579Y-73684346D01*
X197788218Y-73676358D01*
X197825832Y-73670679D01*
X197881015Y-73667044D01*
X197957360Y-73665189D01*
X198030019Y-73664806D01*
X198114730Y-73665065D01*
X198175982Y-73666113D01*
X198217773Y-73668355D01*
X198244101Y-73672194D01*
X198258965Y-73678035D01*
X198266361Y-73686282D01*
X198267539Y-73688833D01*
X198271167Y-73711000D01*
X198274134Y-73754720D01*
X198276173Y-73814089D01*
X198277017Y-73883204D01*
X198277018Y-73898211D01*
X198275543Y-73990595D01*
X198271158Y-74061968D01*
X198263262Y-74118681D01*
X198251730Y-74165528D01*
X198207785Y-74281731D01*
X198153757Y-74372857D01*
X198088781Y-74439695D01*
X198011995Y-74483035D01*
X197922533Y-74503666D01*
X197879075Y-74505752D01*
X197879075Y-75434326D01*
X197971867Y-75433156D01*
X198069464Y-75423868D01*
X198108895Y-75416623D01*
X198255299Y-75370361D01*
X198390005Y-75300016D01*
X198511720Y-75206916D01*
X198619153Y-75092388D01*
X198711012Y-74957760D01*
X198786004Y-74804360D01*
X198831542Y-74673941D01*
X198855467Y-74586777D01*
X198874057Y-74503404D01*
X198887916Y-74418424D01*
X198897649Y-74326435D01*
X198903859Y-74222038D01*
X198907149Y-74099832D01*
X198908076Y-73989345D01*
X198908973Y-73661723D01*
X199007453Y-73667999D01*
X199114305Y-73685821D01*
X199206148Y-73723733D01*
X199280690Y-73780120D01*
X199335636Y-73853369D01*
X199362448Y-73917865D01*
X199379346Y-74010277D01*
X199381773Y-74120289D01*
X199370622Y-74242744D01*
X199346790Y-74372486D01*
X199311170Y-74504358D01*
X199264657Y-74633202D01*
X199222117Y-74726834D01*
X199200272Y-74771883D01*
X199185016Y-74806244D01*
X199179063Y-74823719D01*
X199179254Y-74824667D01*
X199192588Y-74830697D01*
X199227932Y-74845755D01*
X199281899Y-74868423D01*
X199351104Y-74897285D01*
X199432160Y-74930923D01*
X199514882Y-74965116D01*
X199846197Y-75101814D01*
X199862167Y-75004580D01*
X199870180Y-74962436D01*
X199883639Y-74899081D01*
X199901321Y-74819943D01*
X199922004Y-74730449D01*
X199944468Y-74636027D01*
X199953597Y-74598427D01*
X199991326Y-74435763D01*
X200019612Y-74293350D01*
X200039028Y-74165873D01*
X200050146Y-74048016D01*
X200053536Y-73934462D01*
X200049771Y-73819895D01*
G36*
X201357175Y-70145130D02*
G01*
X201356696Y-70028359D01*
X201356455Y-69988671D01*
X201352865Y-69442914D01*
X199259081Y-69436049D01*
X198975158Y-69435142D01*
X198717360Y-69434338D01*
X198484354Y-69433585D01*
X198274806Y-69432831D01*
X198087382Y-69432025D01*
X197920750Y-69431115D01*
X197773575Y-69430049D01*
X197644523Y-69428776D01*
X197532261Y-69427244D01*
X197435456Y-69425402D01*
X197352774Y-69423197D01*
X197282881Y-69420578D01*
X197224443Y-69417494D01*
X197176128Y-69413892D01*
X197136600Y-69409722D01*
X197104527Y-69404931D01*
X197078576Y-69399469D01*
X197057411Y-69393282D01*
X197039701Y-69386320D01*
X197024111Y-69378531D01*
X197009307Y-69369863D01*
X196993956Y-69360265D01*
X196976724Y-69349685D01*
X196973054Y-69347516D01*
X196910969Y-69311132D01*
X196914566Y-69836969D01*
X196918162Y-70362806D01*
X197033669Y-70369671D01*
X197089101Y-70373408D01*
X197121149Y-70377303D01*
X197133865Y-70382589D01*
X197131304Y-70390497D01*
X197123976Y-70397130D01*
X197097286Y-70426026D01*
X197062979Y-70473121D01*
X197025154Y-70531780D01*
X196987910Y-70595369D01*
X196955347Y-70657251D01*
X196933923Y-70704766D01*
X196898717Y-70816084D01*
X196873778Y-70943804D01*
X196860059Y-71078499D01*
X196858514Y-71210737D01*
X196870094Y-71331092D01*
X196870426Y-71333074D01*
X196911750Y-71497759D01*
X196977588Y-71651921D01*
X197066526Y-71794072D01*
X197177148Y-71922725D01*
X197308039Y-72036393D01*
X197457784Y-72133590D01*
X197624967Y-72212828D01*
X197748810Y-72255970D01*
X197852419Y-72284421D01*
X197952748Y-72305520D01*
X198055891Y-72319912D01*
X198167943Y-72328242D01*
X198294999Y-72331155D01*
X198398748Y-72329865D01*
X198398748Y-71316750D01*
X198224778Y-71311956D01*
X198075105Y-71296832D01*
X197948403Y-71270915D01*
X197843342Y-71233737D01*
X197758594Y-71184835D01*
X197692831Y-71123742D01*
X197646341Y-71053223D01*
X197628986Y-71016529D01*
X197618581Y-70984704D01*
X197613821Y-70949223D01*
X197613399Y-70901559D01*
X197615252Y-70850211D01*
X197624159Y-70749231D01*
X197641602Y-70669365D01*
X197650339Y-70644265D01*
X197676143Y-70586952D01*
X197708547Y-70526503D01*
X197724767Y-70500103D01*
X197769795Y-70431454D01*
X199197018Y-70431454D01*
X199242282Y-70506968D01*
X199293428Y-70612279D01*
X199323676Y-70719875D01*
X199333205Y-70825819D01*
X199322193Y-70926176D01*
X199290819Y-71017013D01*
X199239260Y-71094393D01*
X199214512Y-71119361D01*
X199133423Y-71179544D01*
X199035266Y-71228255D01*
X198918357Y-71265901D01*
X198781015Y-71292888D01*
X198621556Y-71309625D01*
X198438300Y-71316517D01*
X198398748Y-71316750D01*
X198398748Y-72329865D01*
X198441933Y-72329327D01*
X198667947Y-72317753D01*
X198871808Y-72294480D01*
X199056487Y-72258896D01*
X199224952Y-72210387D01*
X199380174Y-72148340D01*
X199426192Y-72126199D01*
X199576261Y-72037015D01*
X199709623Y-71929241D01*
X199824123Y-71805410D01*
X199917611Y-71668058D01*
X199987932Y-71519717D01*
X200016940Y-71430796D01*
X200034160Y-71343467D01*
X200044406Y-71238389D01*
X200047682Y-71124371D01*
X200043991Y-71010223D01*
X200033340Y-70904752D01*
X200016630Y-70820066D01*
X199983860Y-70719272D01*
X199941721Y-70621578D01*
X199894481Y-70536104D01*
X199862419Y-70490611D01*
X199838578Y-70459231D01*
X199824061Y-70437258D01*
X199822000Y-70432259D01*
X199835282Y-70430710D01*
X199873337Y-70429265D01*
X199933481Y-70427957D01*
X200013027Y-70426817D01*
X200109289Y-70425879D01*
X200219581Y-70425174D01*
X200341219Y-70424733D01*
X200465115Y-70424589D01*
X200623804Y-70424670D01*
X200757592Y-70425065D01*
X200869040Y-70426005D01*
X200960705Y-70427720D01*
X201035147Y-70430443D01*
X201094925Y-70434403D01*
X201142598Y-70439831D01*
X201180726Y-70446959D01*
X201211866Y-70456016D01*
X201238579Y-70467233D01*
X201263423Y-70480842D01*
X201288957Y-70497072D01*
X201292119Y-70499160D01*
X201325190Y-70520094D01*
X201347931Y-70532733D01*
X201352728Y-70534427D01*
X201354241Y-70521184D01*
X201355472Y-70483398D01*
X201356401Y-70423984D01*
X201357008Y-70345858D01*
X201357273Y-70251935D01*
X201357175Y-70145130D01*
X201357175Y-70145130D01*
G37*
X201357175Y-70145130D02*
X201356696Y-70028359D01*
X201356455Y-69988671D01*
X201352865Y-69442914D01*
X199259081Y-69436049D01*
X198975158Y-69435142D01*
X198717360Y-69434338D01*
X198484354Y-69433585D01*
X198274806Y-69432831D01*
X198087382Y-69432025D01*
X197920750Y-69431115D01*
X197773575Y-69430049D01*
X197644523Y-69428776D01*
X197532261Y-69427244D01*
X197435456Y-69425402D01*
X197352774Y-69423197D01*
X197282881Y-69420578D01*
X197224443Y-69417494D01*
X197176128Y-69413892D01*
X197136600Y-69409722D01*
X197104527Y-69404931D01*
X197078576Y-69399469D01*
X197057411Y-69393282D01*
X197039701Y-69386320D01*
X197024111Y-69378531D01*
X197009307Y-69369863D01*
X196993956Y-69360265D01*
X196976724Y-69349685D01*
X196973054Y-69347516D01*
X196910969Y-69311132D01*
X196914566Y-69836969D01*
X196918162Y-70362806D01*
X197033669Y-70369671D01*
X197089101Y-70373408D01*
X197121149Y-70377303D01*
X197133865Y-70382589D01*
X197131304Y-70390497D01*
X197123976Y-70397130D01*
X197097286Y-70426026D01*
X197062979Y-70473121D01*
X197025154Y-70531780D01*
X196987910Y-70595369D01*
X196955347Y-70657251D01*
X196933923Y-70704766D01*
X196898717Y-70816084D01*
X196873778Y-70943804D01*
X196860059Y-71078499D01*
X196858514Y-71210737D01*
X196870094Y-71331092D01*
X196870426Y-71333074D01*
X196911750Y-71497759D01*
X196977588Y-71651921D01*
X197066526Y-71794072D01*
X197177148Y-71922725D01*
X197308039Y-72036393D01*
X197457784Y-72133590D01*
X197624967Y-72212828D01*
X197748810Y-72255970D01*
X197852419Y-72284421D01*
X197952748Y-72305520D01*
X198055891Y-72319912D01*
X198167943Y-72328242D01*
X198294999Y-72331155D01*
X198398748Y-72329865D01*
X198398748Y-71316750D01*
X198224778Y-71311956D01*
X198075105Y-71296832D01*
X197948403Y-71270915D01*
X197843342Y-71233737D01*
X197758594Y-71184835D01*
X197692831Y-71123742D01*
X197646341Y-71053223D01*
X197628986Y-71016529D01*
X197618581Y-70984704D01*
X197613821Y-70949223D01*
X197613399Y-70901559D01*
X197615252Y-70850211D01*
X197624159Y-70749231D01*
X197641602Y-70669365D01*
X197650339Y-70644265D01*
X197676143Y-70586952D01*
X197708547Y-70526503D01*
X197724767Y-70500103D01*
X197769795Y-70431454D01*
X199197018Y-70431454D01*
X199242282Y-70506968D01*
X199293428Y-70612279D01*
X199323676Y-70719875D01*
X199333205Y-70825819D01*
X199322193Y-70926176D01*
X199290819Y-71017013D01*
X199239260Y-71094393D01*
X199214512Y-71119361D01*
X199133423Y-71179544D01*
X199035266Y-71228255D01*
X198918357Y-71265901D01*
X198781015Y-71292888D01*
X198621556Y-71309625D01*
X198438300Y-71316517D01*
X198398748Y-71316750D01*
X198398748Y-72329865D01*
X198441933Y-72329327D01*
X198667947Y-72317753D01*
X198871808Y-72294480D01*
X199056487Y-72258896D01*
X199224952Y-72210387D01*
X199380174Y-72148340D01*
X199426192Y-72126199D01*
X199576261Y-72037015D01*
X199709623Y-71929241D01*
X199824123Y-71805410D01*
X199917611Y-71668058D01*
X199987932Y-71519717D01*
X200016940Y-71430796D01*
X200034160Y-71343467D01*
X200044406Y-71238389D01*
X200047682Y-71124371D01*
X200043991Y-71010223D01*
X200033340Y-70904752D01*
X200016630Y-70820066D01*
X199983860Y-70719272D01*
X199941721Y-70621578D01*
X199894481Y-70536104D01*
X199862419Y-70490611D01*
X199838578Y-70459231D01*
X199824061Y-70437258D01*
X199822000Y-70432259D01*
X199835282Y-70430710D01*
X199873337Y-70429265D01*
X199933481Y-70427957D01*
X200013027Y-70426817D01*
X200109289Y-70425879D01*
X200219581Y-70425174D01*
X200341219Y-70424733D01*
X200465115Y-70424589D01*
X200623804Y-70424670D01*
X200757592Y-70425065D01*
X200869040Y-70426005D01*
X200960705Y-70427720D01*
X201035147Y-70430443D01*
X201094925Y-70434403D01*
X201142598Y-70439831D01*
X201180726Y-70446959D01*
X201211866Y-70456016D01*
X201238579Y-70467233D01*
X201263423Y-70480842D01*
X201288957Y-70497072D01*
X201292119Y-70499160D01*
X201325190Y-70520094D01*
X201347931Y-70532733D01*
X201352728Y-70534427D01*
X201354241Y-70521184D01*
X201355472Y-70483398D01*
X201356401Y-70423984D01*
X201357008Y-70345858D01*
X201357273Y-70251935D01*
X201357175Y-70145130D01*
G36*
X202277510Y-79713479D02*
G01*
X202241762Y-79610373D01*
X202185493Y-79514378D01*
X202108712Y-79428647D01*
X202011427Y-79356330D01*
X201950108Y-79323845D01*
X201864340Y-79295732D01*
X201765323Y-79282105D01*
X201663529Y-79283614D01*
X201571286Y-79300369D01*
X201458568Y-79346163D01*
X201360793Y-79412568D01*
X201279885Y-79496209D01*
X201217768Y-79593712D01*
X201176366Y-79701700D01*
X201157603Y-79816799D01*
X201163402Y-79935634D01*
X201175794Y-79994211D01*
X201220203Y-80108372D01*
X201287967Y-80209765D01*
X201376999Y-80295945D01*
X201485209Y-80364466D01*
X201497027Y-80370264D01*
X201541372Y-80390304D01*
X201578720Y-80402887D01*
X201618120Y-80409719D01*
X201668619Y-80412505D01*
X201723567Y-80412968D01*
X201789585Y-80412203D01*
X201837311Y-80408752D01*
X201875897Y-80400877D01*
X201914494Y-80386843D01*
X201952574Y-80369520D01*
X202060672Y-80304905D01*
X202148197Y-80225334D01*
X202215159Y-80133960D01*
X202261564Y-80033936D01*
X202287419Y-79928412D01*
X202292732Y-79820542D01*
X202277510Y-79713479D01*
X202277510Y-79713479D01*
G37*
X202277510Y-79713479D02*
X202241762Y-79610373D01*
X202185493Y-79514378D01*
X202108712Y-79428647D01*
X202011427Y-79356330D01*
X201950108Y-79323845D01*
X201864340Y-79295732D01*
X201765323Y-79282105D01*
X201663529Y-79283614D01*
X201571286Y-79300369D01*
X201458568Y-79346163D01*
X201360793Y-79412568D01*
X201279885Y-79496209D01*
X201217768Y-79593712D01*
X201176366Y-79701700D01*
X201157603Y-79816799D01*
X201163402Y-79935634D01*
X201175794Y-79994211D01*
X201220203Y-80108372D01*
X201287967Y-80209765D01*
X201376999Y-80295945D01*
X201485209Y-80364466D01*
X201497027Y-80370264D01*
X201541372Y-80390304D01*
X201578720Y-80402887D01*
X201618120Y-80409719D01*
X201668619Y-80412505D01*
X201723567Y-80412968D01*
X201789585Y-80412203D01*
X201837311Y-80408752D01*
X201875897Y-80400877D01*
X201914494Y-80386843D01*
X201952574Y-80369520D01*
X202060672Y-80304905D01*
X202148197Y-80225334D01*
X202215159Y-80133960D01*
X202261564Y-80033936D01*
X202287419Y-79928412D01*
X202292732Y-79820542D01*
X202277510Y-79713479D01*
D11*
X192188000Y-79941800D02*
X192188000Y-80941800D01*
X190488000Y-80941800D02*
X190488000Y-79941800D01*
X188126000Y-80941800D02*
X188126000Y-79941800D01*
X189826000Y-79941800D02*
X189826000Y-80941800D01*
X184416000Y-72677400D02*
X184416000Y-73677400D01*
X182716000Y-73677400D02*
X182716000Y-72677400D01*
X187692000Y-79941800D02*
X187692000Y-80941800D01*
X185992000Y-80941800D02*
X185992000Y-79941800D01*
X183429000Y-64753600D02*
X182229000Y-64753600D01*
X182229000Y-66513600D02*
X183429000Y-66513600D01*
X182229000Y-63973600D02*
X183429000Y-63973600D01*
X183429000Y-62213600D02*
X182229000Y-62213600D01*
X183404000Y-59978400D02*
X182204000Y-59978400D01*
X182204000Y-61738400D02*
X183404000Y-61738400D01*
D13*
X190652000Y-73634600D02*
X191160000Y-73634600D01*
X190652000Y-72364600D02*
X190652000Y-73634600D01*
X191160000Y-72364600D02*
X190652000Y-72364600D01*
X191160000Y-75412600D02*
X191160000Y-70840600D01*
X186080000Y-75412600D02*
X191160000Y-75412600D01*
X186080000Y-70840600D02*
X186080000Y-75412600D01*
X191160000Y-70840600D02*
X186080000Y-70840600D01*
X195867257Y-62402980D02*
X196200590Y-61926790D01*
X196438685Y-62402980D02*
X196438685Y-61402980D01*
X196057733Y-61402980D01*
X195962495Y-61450600D01*
X195914876Y-61498219D01*
X195867257Y-61593457D01*
X195867257Y-61736314D01*
X195914876Y-61831552D01*
X195962495Y-61879171D01*
X196057733Y-61926790D01*
X196438685Y-61926790D01*
X195486304Y-61498219D02*
X195438685Y-61450600D01*
X195343447Y-61402980D01*
X195105352Y-61402980D01*
X195010114Y-61450600D01*
X194962495Y-61498219D01*
X194914876Y-61593457D01*
X194914876Y-61688695D01*
X194962495Y-61831552D01*
X195533923Y-62402980D01*
X194914876Y-62402980D01*
X194533923Y-61498219D02*
X194486304Y-61450600D01*
X194391066Y-61402980D01*
X194152971Y-61402980D01*
X194057733Y-61450600D01*
X194010114Y-61498219D01*
X193962495Y-61593457D01*
X193962495Y-61688695D01*
X194010114Y-61831552D01*
X194581542Y-62402980D01*
X193962495Y-62402980D01*
X195841857Y-59837580D02*
X196175190Y-59361390D01*
X196413285Y-59837580D02*
X196413285Y-58837580D01*
X196032333Y-58837580D01*
X195937095Y-58885200D01*
X195889476Y-58932819D01*
X195841857Y-59028057D01*
X195841857Y-59170914D01*
X195889476Y-59266152D01*
X195937095Y-59313771D01*
X196032333Y-59361390D01*
X196413285Y-59361390D01*
X195460904Y-58932819D02*
X195413285Y-58885200D01*
X195318047Y-58837580D01*
X195079952Y-58837580D01*
X194984714Y-58885200D01*
X194937095Y-58932819D01*
X194889476Y-59028057D01*
X194889476Y-59123295D01*
X194937095Y-59266152D01*
X195508523Y-59837580D01*
X194889476Y-59837580D01*
X194270428Y-58837580D02*
X194175190Y-58837580D01*
X194079952Y-58885200D01*
X194032333Y-58932819D01*
X193984714Y-59028057D01*
X193937095Y-59218533D01*
X193937095Y-59456628D01*
X193984714Y-59647104D01*
X194032333Y-59742342D01*
X194079952Y-59789961D01*
X194175190Y-59837580D01*
X194270428Y-59837580D01*
X194365666Y-59789961D01*
X194413285Y-59742342D01*
X194460904Y-59647104D01*
X194508523Y-59456628D01*
X194508523Y-59218533D01*
X194460904Y-59028057D01*
X194413285Y-58932819D01*
X194365666Y-58885200D01*
X194270428Y-58837580D01*
X195867257Y-64866780D02*
X196200590Y-64390590D01*
X196438685Y-64866780D02*
X196438685Y-63866780D01*
X196057733Y-63866780D01*
X195962495Y-63914400D01*
X195914876Y-63962019D01*
X195867257Y-64057257D01*
X195867257Y-64200114D01*
X195914876Y-64295352D01*
X195962495Y-64342971D01*
X196057733Y-64390590D01*
X196438685Y-64390590D01*
X194914876Y-64866780D02*
X195486304Y-64866780D01*
X195200590Y-64866780D02*
X195200590Y-63866780D01*
X195295828Y-64009638D01*
X195391066Y-64104876D01*
X195486304Y-64152495D01*
X194438685Y-64866780D02*
X194248209Y-64866780D01*
X194152971Y-64819161D01*
X194105352Y-64771542D01*
X194010114Y-64628685D01*
X193962495Y-64438209D01*
X193962495Y-64057257D01*
X194010114Y-63962019D01*
X194057733Y-63914400D01*
X194152971Y-63866780D01*
X194343447Y-63866780D01*
X194438685Y-63914400D01*
X194486304Y-63962019D01*
X194533923Y-64057257D01*
X194533923Y-64295352D01*
X194486304Y-64390590D01*
X194438685Y-64438209D01*
X194343447Y-64485828D01*
X194152971Y-64485828D01*
X194057733Y-64438209D01*
X194010114Y-64390590D01*
X193962495Y-64295352D01*
X191695142Y-83627933D02*
X191742761Y-83580314D01*
X191790380Y-83437457D01*
X191790380Y-83342219D01*
X191742761Y-83199361D01*
X191647523Y-83104123D01*
X191552285Y-83056504D01*
X191361809Y-83008885D01*
X191218952Y-83008885D01*
X191028476Y-83056504D01*
X190933238Y-83104123D01*
X190838000Y-83199361D01*
X190790380Y-83342219D01*
X190790380Y-83437457D01*
X190838000Y-83580314D01*
X190885619Y-83627933D01*
X190790380Y-83961266D02*
X190790380Y-84580314D01*
X191171333Y-84246980D01*
X191171333Y-84389838D01*
X191218952Y-84485076D01*
X191266571Y-84532695D01*
X191361809Y-84580314D01*
X191599904Y-84580314D01*
X191695142Y-84532695D01*
X191742761Y-84485076D01*
X191790380Y-84389838D01*
X191790380Y-84104123D01*
X191742761Y-84008885D01*
X191695142Y-83961266D01*
X189333142Y-83602533D02*
X189380761Y-83554914D01*
X189428380Y-83412057D01*
X189428380Y-83316819D01*
X189380761Y-83173961D01*
X189285523Y-83078723D01*
X189190285Y-83031104D01*
X188999809Y-82983485D01*
X188856952Y-82983485D01*
X188666476Y-83031104D01*
X188571238Y-83078723D01*
X188476000Y-83173961D01*
X188428380Y-83316819D01*
X188428380Y-83412057D01*
X188476000Y-83554914D01*
X188523619Y-83602533D01*
X188761714Y-84459676D02*
X189428380Y-84459676D01*
X188380761Y-84221580D02*
X189095047Y-83983485D01*
X189095047Y-84602533D01*
X182173142Y-73010733D02*
X182220761Y-72963114D01*
X182268380Y-72820257D01*
X182268380Y-72725019D01*
X182220761Y-72582161D01*
X182125523Y-72486923D01*
X182030285Y-72439304D01*
X181839809Y-72391685D01*
X181696952Y-72391685D01*
X181506476Y-72439304D01*
X181411238Y-72486923D01*
X181316000Y-72582161D01*
X181268380Y-72725019D01*
X181268380Y-72820257D01*
X181316000Y-72963114D01*
X181363619Y-73010733D01*
X181268380Y-73915495D02*
X181268380Y-73439304D01*
X181744571Y-73391685D01*
X181696952Y-73439304D01*
X181649333Y-73534542D01*
X181649333Y-73772638D01*
X181696952Y-73867876D01*
X181744571Y-73915495D01*
X181839809Y-73963114D01*
X182077904Y-73963114D01*
X182173142Y-73915495D01*
X182220761Y-73867876D01*
X182268380Y-73772638D01*
X182268380Y-73534542D01*
X182220761Y-73439304D01*
X182173142Y-73391685D01*
X187275342Y-83577133D02*
X187322961Y-83529514D01*
X187370580Y-83386657D01*
X187370580Y-83291419D01*
X187322961Y-83148561D01*
X187227723Y-83053323D01*
X187132485Y-83005704D01*
X186942009Y-82958085D01*
X186799152Y-82958085D01*
X186608676Y-83005704D01*
X186513438Y-83053323D01*
X186418200Y-83148561D01*
X186370580Y-83291419D01*
X186370580Y-83386657D01*
X186418200Y-83529514D01*
X186465819Y-83577133D01*
X186370580Y-84434276D02*
X186370580Y-84243800D01*
X186418200Y-84148561D01*
X186465819Y-84100942D01*
X186608676Y-84005704D01*
X186799152Y-83958085D01*
X187180104Y-83958085D01*
X187275342Y-84005704D01*
X187322961Y-84053323D01*
X187370580Y-84148561D01*
X187370580Y-84339038D01*
X187322961Y-84434276D01*
X187275342Y-84481895D01*
X187180104Y-84529514D01*
X186942009Y-84529514D01*
X186846771Y-84481895D01*
X186799152Y-84434276D01*
X186751533Y-84339038D01*
X186751533Y-84148561D01*
X186799152Y-84053323D01*
X186846771Y-84005704D01*
X186942009Y-83958085D01*
X187358057Y-66009780D02*
X187691390Y-65533590D01*
X187929485Y-66009780D02*
X187929485Y-65009780D01*
X187548533Y-65009780D01*
X187453295Y-65057400D01*
X187405676Y-65105019D01*
X187358057Y-65200257D01*
X187358057Y-65343114D01*
X187405676Y-65438352D01*
X187453295Y-65485971D01*
X187548533Y-65533590D01*
X187929485Y-65533590D01*
X186405676Y-66009780D02*
X186977104Y-66009780D01*
X186691390Y-66009780D02*
X186691390Y-65009780D01*
X186786628Y-65152638D01*
X186881866Y-65247876D01*
X186977104Y-65295495D01*
X185548533Y-65009780D02*
X185739009Y-65009780D01*
X185834247Y-65057400D01*
X185881866Y-65105019D01*
X185977104Y-65247876D01*
X186024723Y-65438352D01*
X186024723Y-65819304D01*
X185977104Y-65914542D01*
X185929485Y-65962161D01*
X185834247Y-66009780D01*
X185643771Y-66009780D01*
X185548533Y-65962161D01*
X185500914Y-65914542D01*
X185453295Y-65819304D01*
X185453295Y-65581209D01*
X185500914Y-65485971D01*
X185548533Y-65438352D01*
X185643771Y-65390733D01*
X185834247Y-65390733D01*
X185929485Y-65438352D01*
X185977104Y-65485971D01*
X186024723Y-65581209D01*
X187358057Y-63622180D02*
X187691390Y-63145990D01*
X187929485Y-63622180D02*
X187929485Y-62622180D01*
X187548533Y-62622180D01*
X187453295Y-62669800D01*
X187405676Y-62717419D01*
X187358057Y-62812657D01*
X187358057Y-62955514D01*
X187405676Y-63050752D01*
X187453295Y-63098371D01*
X187548533Y-63145990D01*
X187929485Y-63145990D01*
X186405676Y-63622180D02*
X186977104Y-63622180D01*
X186691390Y-63622180D02*
X186691390Y-62622180D01*
X186786628Y-62765038D01*
X186881866Y-62860276D01*
X186977104Y-62907895D01*
X186072342Y-62622180D02*
X185405676Y-62622180D01*
X185834247Y-63622180D01*
X187333057Y-61386980D02*
X187666390Y-60910790D01*
X187904485Y-61386980D02*
X187904485Y-60386980D01*
X187523533Y-60386980D01*
X187428295Y-60434600D01*
X187380676Y-60482219D01*
X187333057Y-60577457D01*
X187333057Y-60720314D01*
X187380676Y-60815552D01*
X187428295Y-60863171D01*
X187523533Y-60910790D01*
X187904485Y-60910790D01*
X186952104Y-60482219D02*
X186904485Y-60434600D01*
X186809247Y-60386980D01*
X186571152Y-60386980D01*
X186475914Y-60434600D01*
X186428295Y-60482219D01*
X186380676Y-60577457D01*
X186380676Y-60672695D01*
X186428295Y-60815552D01*
X186999723Y-61386980D01*
X186380676Y-61386980D01*
X185428295Y-61386980D02*
X185999723Y-61386980D01*
X185714009Y-61386980D02*
X185714009Y-60386980D01*
X185809247Y-60529838D01*
X185904485Y-60625076D01*
X185999723Y-60672695D01*
X189661105Y-71712080D02*
X189661105Y-72521604D01*
X189613486Y-72616842D01*
X189565867Y-72664461D01*
X189470629Y-72712080D01*
X189280153Y-72712080D01*
X189184915Y-72664461D01*
X189137296Y-72616842D01*
X189089677Y-72521604D01*
X189089677Y-71712080D01*
X188661105Y-71807319D02*
X188613486Y-71759700D01*
X188518248Y-71712080D01*
X188280153Y-71712080D01*
X188184915Y-71759700D01*
X188137296Y-71807319D01*
X188089677Y-71902557D01*
X188089677Y-71997795D01*
X188137296Y-72140652D01*
X188708724Y-72712080D01*
X188089677Y-72712080D01*
M02*
